SplineFontDB: 1.0
FontName: Kinnari-Bold
FullName: Kinnari Bold
FamilyName: Kinnari
Weight: Bold
Copyright: KinnariBold by Db Type : Fontographer 3.5
Version: 001.000
ItalicAngle: 0
UnderlinePosition: -70
UnderlineWidth: 25
Ascent: 800
Descent: 200
NeedsXUIDChange: 1
FSType: 0
PfmFamily: 17
TTFWeight: 700
TTFWidth: 5
Panose: 0 0 0 0 0 0 0 0 0 0
LineGap: 138
VLineGap: 0
OS2WinAscent: 0
OS2WinAOffset: 1
OS2WinDescent: 0
OS2WinDOffset: 1
HheadAscent: 0
HheadAOffset: 1
HheadDescent: 0
HheadDOffset: 1
ScriptLang: 5
 1 DFLT 1 dflt 
 1 thai 4 KUY  PAL  THA  dflt 
 1 latn 1 dflt 
 1 thai 1 dflt 
 1 thai 1 PAL  
ContextSub: glyph 0 4 ' RQD' 0 0 0 1
 String: 15 uni0E0D uni0E10
 BString: 0 
 FString: 0 
 1
  SeqLookup: 0 'nds0'
EndFPST
ChainSub: coverage 0 1 'ccmp' 0 0 0 1
 2 0 0
  Coverage: 19 uni0E4B uni0E4B.low
  Coverage: 7 uni0E4D
 2
  SeqLookup: 0 'amni'
  SeqLookup: 1 'G006'
EndFPST
ChainSub: coverage 0 1 'ccmp' 0 0 0 1
 2 0 0
  Coverage: 19 uni0E4A uni0E4A.low
  Coverage: 7 uni0E4D
 2
  SeqLookup: 0 'amni'
  SeqLookup: 1 'G005'
EndFPST
ChainSub: coverage 0 1 'ccmp' 0 0 0 1
 2 0 0
  Coverage: 19 uni0E49 uni0E49.low
  Coverage: 7 uni0E4D
 2
  SeqLookup: 0 'amni'
  SeqLookup: 1 'G004'
EndFPST
ChainSub: coverage 0 1 'ccmp' 0 0 0 1
 2 0 0
  Coverage: 19 uni0E48 uni0E48.low
  Coverage: 7 uni0E4D
 2
  SeqLookup: 0 'amni'
  SeqLookup: 1 'G003'
EndFPST
ChainSub: coverage 0 1 'ccmp' 0 0 0 1
 1 0 1
  Coverage: 15 uni0E0D uni0E10
  FCoverage: 23 uni0E38 uni0E39 uni0E3A
 1
  SeqLookup: 0 'ndsc'
EndFPST
ChainSub: coverage 0 1 'ccmp' 0 0 0 1
 1 2 0
  Coverage: 39 uni0E48 uni0E49 uni0E4A uni0E4B uni0E4C
  BCoverage: 23 uni0E38 uni0E39 uni0E3A

StartChar: .notdef
Encoding: 0 -1 0
Width: 384
Flags: W
HStem: 0 23<23 384> 568 23<0 361>
VStem: 0 23<0 568> 361 23<23 591>
Fore
23 568 m 1
 23 23 l 1
 361 23 l 1
 361 568 l 1
 23 568 l 1
384 0 m 1
 0 0 l 1
 0 591 l 1
 384 591 l 1
 384 0 l 1
EndSplineSet
EndChar
StartChar: exclam
Encoding: 33 33 2
Width: 333
Flags: W
HStem: -14 140<160 178>
Fore
232 608 m 0
 232 608 l 0
 232 591 230 573 229 558 c 1
 184 177 l 1
 149 177 l 1
 104 559 l 1
 104 574 101 591 101 608 c 0
 101 647 117 700 167 700 c 0
 221 700 232 647 232 608 c 0
237 54 m 0
 237 14 203 -14 166 -14 c 0
 132 -14 97 17 97 54 c 0
 97 92 126 126 167 126 c 0
 206 126 237 92 237 54 c 0
EndSplineSet
EndChar
StartChar: quotedbl
Encoding: 34 34 3
Width: 407
Flags: W
Fore
349 651 m 0
 315 444 l 1
 273 444 l 1
 238 651 l 2
 233 679 263 708 293 708 c 0
 326 708 355 680 349 651 c 0
169 651 m 2
 134 444 l 1
 92 444 l 1
 58 651 l 1
 52 680 81 708 114 708 c 0
 144 708 174 679 169 651 c 2
EndSplineSet
EndChar
StartChar: numbersign
Encoding: 35 35 4
Width: 499
Flags: W
HStem: 217 78<-8 97 192 289 384 482> 404 80<18 127 221 318 412 507>
DStem: 97 217 180 217 65 0 147 0 127 404 210 404 109 295 192 295 169 687 252 687 138 484 221 484 289 217 372 217 258 0 341 0 318 404 401 404 301 295 384 295 359 687 441 687 329 484 412 484
Fore
507 404 m 1
 401 404 l 1
 384 295 l 1
 482 295 l 1
 482 217 l 1
 372 217 l 1
 341 0 l 1
 258 0 l 1
 289 217 l 1
 180 217 l 1
 147 0 l 1
 65 0 l 1
 97 217 l 1
 -8 217 l 1
 -8 295 l 1
 109 295 l 1
 127 404 l 1
 18 404 l 1
 18 484 l 1
 138 484 l 1
 169 687 l 1
 252 687 l 1
 221 484 l 1
 329 484 l 1
 359 687 l 1
 441 687 l 1
 412 484 l 1
 507 484 l 1
 507 404 l 1
318 404 m 1
 210 404 l 1
 192 295 l 1
 301 295 l 1
 318 404 l 1
EndSplineSet
EndChar
StartChar: dollar
Encoding: 36 36 5
Width: 499
Flags: W
VStem: 40 100<508 533> 218 58<-100 -11 40 272 430 622 673 739> 366 102<152 178>
Fore
468 178 m 0
 468 178 l 0
 468 61 381 0 276 -11 c 1
 276 -100 l 1
 218 -100 l 1
 218 -12 l 1
 155 -11 92 8 32 43 c 1
 32 194 l 1
 71 194 l 1
 86 100 135 46 218 40 c 1
 218 303 l 1
 140 347 40 406 40 508 c 0
 40 613 124 667 218 674 c 1
 218 739 l 1
 276 739 l 1
 276 674 l 1
 332 670 389 653 436 616 c 1
 436 487 l 1
 399 487 l 1
 387 564 343 613 276 622 c 1
 276 398 l 1
 366 349 468 298 468 178 c 0
218 430 m 0
 218 622 l 0
 187 614 140 581 140 533 c 0
 140 481 180 456 218 430 c 0
366 152 m 0
 366 210 323 244 276 272 c 1
 276 41 l 1
 332 54 366 92 366 152 c 0
EndSplineSet
EndChar
StartChar: percent
Encoding: 37 37 6
Width: 832
Flags: W
HStem: -11 56<574 589> 290 60<180 198> 327 57<664 678> 636 54<274 283>
VStem: 49 100<412 439> 346 50<548 568> 733 50<244 265>
DStem: 524 604 654 703 180 -11 257 -11
Fore
654 703 m 1xde
 257 -11 l 1
 180 -11 l 1
 524 604 l 1
 476 588 427 585 390 591 c 1
 393 579 396 565 396 554 c 0
 396 412 272 290 180 290 c 0
 95 290 49 346 49 439 c 0
 49 553 158 690 276 690 c 0
 313 690 336 680 364 654 c 1
 387 637 407 634 436 634 c 0
 492 634 545 659 579 703 c 1
 654 703 l 1xde
783 263 m 0
 783 263 l 0
 783 98 667 -11 576 -11 c 0
 464 -11 436 55 436 138 c 0
 436 252 547 384 665 384 c 0xbe
 740 384 783 321 783 263 c 0
346 568 m 0
 346 568 l 0
 346 581 343 593 339 605 c 1
 309 616 296 636 281 636 c 0
 246 636 149 541 149 412 c 0
 149 376 160 350 198 350 c 1xde
 290 359 346 478 346 568 c 0
733 257 m 0
 733 290 714 327 676 327 c 0xbe
 627 327 594 275 574 235 c 0
 525 131 515 45 587 45 c 0
 674 45 733 181 733 257 c 0
EndSplineSet
EndChar
StartChar: ampersand
Encoding: 38 38 7
Width: 777
Flags: W
HStem: -11 79<220 263> 647 56<350 368>
VStem: 31 115<160 187> 190 103<531 564> 425 77<562 582>
Fore
768 120 m 1
 768 120 l 0
 710 31 671 -11 599 -11 c 0
 531 -11 476 31 429 75 c 1
 372 25 296 -11 220 -11 c 0
 100 -11 31 51 31 160 c 0
 31 273 143 356 221 398 c 1
 204 441 190 485 190 531 c 0
 190 625 258 703 355 703 c 0
 435 703 502 656 502 571 c 0
 502 482 427 427 353 393 c 1
 387 330 425 270 467 214 c 1
 501 255 547 326 547 373 c 0
 547 396 533 407 482 412 c 1
 482 453 l 1
 722 453 l 1
 722 412 l 1
 653 402 641 378 614 332 c 0
 581 270 530 195 508 164 c 1
 545 123 585 86 644 86 c 0
 679 86 705 106 731 146 c 1
 768 120 l 1
425 574 m 0
 425 574 l 0
 425 613 398 647 359 647 c 0
 307 647 293 607 293 564 c 0
 293 530 312 481 327 449 c 1
 375 473 425 518 425 574 c 0
387 121 m 1
 333 189 289 264 247 341 c 1
 189 304 146 263 146 187 c 0
 146 126 201 68 263 68 c 0
 298 68 349 91 387 121 c 1
EndSplineSet
EndChar
StartChar: quotesingle
Encoding: 39 39 8
Width: 179
Flags: W
Fore
146 650 m 2
 111 442 l 1
 69 442 l 1
 35 650 l 1
 29 679 58 707 91 707 c 0
 121 707 151 677 146 650 c 2
EndSplineSet
EndChar
StartChar: parenleft
Encoding: 40 40 9
Width: 333
Flags: W
VStem: 37 109<250 300>
Fore
321 -147 m 1
 295 -181 l 1
 154 -86 37 55 37 272 c 0
 37 450 127 599 300 707 c 1
 321 667 l 1
 181 571 146 432 146 281 c 0
 146 120 164 -23 321 -147 c 1
EndSplineSet
EndChar
StartChar: parenright
Encoding: 41 41 10
Width: 333
Flags: W
VStem: 187 109<218 268>
Fore
296 244 m 0
 296 68 194 -86 35 -181 c 1
 12 -146 l 1
 154 -48 187 91 187 241 c 0
 187 404 166 561 12 668 c 1
 38 705 l 1
 88 679 296 533 296 244 c 0
EndSplineSet
EndChar
StartChar: asterisk
Encoding: 42 42 11
Width: 499
Flags: W
Fore
447 372 m 0
 421 327 375 349 352 379 c 0
 333 402 313 418 272 447 c 1
 276 404 287 370 295 343 c 0
 304 309 301 257 252 257 c 0
 200 257 197 307 210 343 c 0
 221 370 226 396 229 447 c 1
 186 421 166 404 149 379 c 1
 124 350 80 327 52 373 c 0
 28 416 74 445 106 455 c 1
 132 459 166 468 201 485 c 1
 160 507 135 515 108 518 c 1
 71 525 28 551 54 598 c 0
 78 641 126 616 151 591 c 0
 170 571 194 545 229 521 c 1
 226 571 221 596 210 624 c 0
 197 659 200 710 252 710 c 0
 301 710 304 657 295 624 c 0
 287 598 278 562 272 521 c 1
 306 545 329 574 347 594 c 1
 373 619 419 642 445 599 c 0
 470 556 429 527 390 522 c 0
 361 516 336 504 290 484 c 1
 330 467 366 459 393 453 c 0
 427 444 472 415 447 372 c 0
EndSplineSet
EndChar
StartChar: plus
Encoding: 43 43 12
Width: 563
Flags: W
HStem: 241 89<18 238 326 545>
VStem: 238 88<20 241 330 548>
Fore
545 241 m 1
 326 241 l 1
 326 20 l 1
 238 20 l 1
 238 241 l 1
 18 241 l 1
 18 330 l 1
 238 330 l 1
 238 548 l 1
 326 548 l 1
 326 330 l 1
 545 330 l 1
 545 241 l 1
EndSplineSet
EndChar
StartChar: comma
Encoding: 44 44 13
Width: 250
Flags: W
HStem: -22 20G<142.5 148>
VStem: 151 64<-5 18>
Fore
215 18 m 0
 215 -40 146 -120 84 -143 c 1
 65 -103 l 1
 103 -84 151 -35 151 -5 c 0
 151 -3 149 -2 147 -2 c 0
 138 -2 124 -5 115 -5 c 0
 80 -2 51 20 51 57 c 0
 51 103 77 129 123 129 c 0
 190 129 215 69 215 18 c 0
EndSplineSet
EndChar
StartChar: hyphen
Encoding: 45 45 14
Width: 333
Flags: W
HStem: 241 88<31 301>
Fore
301 241 m 1
 31 241 l 1
 31 329 l 1
 301 329 l 1
 301 241 l 1
EndSplineSet
EndChar
StartChar: period
Encoding: 46 46 15
Width: 250
Flags: W
HStem: -11 21G<106 143.5>
Fore
195 58 m 0
 195 17 163 -11 124 -11 c 0
 88 -11 55 23 55 58 c 0
 55 95 86 129 124 129 c 0
 163 129 195 100 195 58 c 0
EndSplineSet
EndChar
StartChar: slash
Encoding: 47 47 16
Width: 278
Flags: W
DStem: 230 710 319 710 -29 -104 60 -104
Fore
319 710 m 1
 60 -104 l 1
 -29 -104 l 1
 230 710 l 1
 319 710 l 1
EndSplineSet
EndChar
StartChar: zero
Encoding: 48 48 17
Width: 537
Flags: W
HStem: -14 52<259 275> 650 50<259 274>
VStem: 29 122<321 371> 384 121<321 371>
Fore
505 339 m 0
 505 339 l 0
 505 197 447 -14 261 -14 c 0
 114 -14 29 143 29 346 c 0
 29 495 86 700 266 700 c 0
 422 700 505 544 505 339 c 0
384 338 m 0
 384 508 362 650 272 650 c 0
 164 650 151 485 151 326 c 0
 151 184 166 38 269 38 c 0
 376 38 384 192 384 338 c 0
EndSplineSet
EndChar
StartChar: one
Encoding: 49 49 18
Width: 537
Flags: W
HStem: 0 37<129 142.333 413.667 427>
VStem: 223 110<92 545>
Fore
427 0 m 1
 129 0 l 1
 129 37 l 1
 209 43 223 55 223 92 c 2
 223 541 l 2
 223 605 197 588 120 561 c 1
 120 599 l 1
 333 708 l 1
 333 92 l 2
 333 55 347 43 427 37 c 1
 427 0 l 1
EndSplineSet
EndChar
StartChar: two
Encoding: 50 50 19
Width: 537
Flags: W
HStem: 0 101<180 450> 604 96<218 269>
VStem: 349 110<472 513>
DStem: 214 214 319 247 43 31 180 101
Fore
513 155 m 1
 450 0 l 1
 40 0 l 1
 43 31 l 1
 214 214 l 2
 276 281 349 373 349 472 c 0
 349 551 298 604 218 604 c 0
 146 604 109 542 83 470 c 1
 40 484 l 1
 63 613 141 700 269 700 c 0
 373 700 459 617 459 513 c 0
 459 416 413 346 319 247 c 2
 180 101 l 1
 364 101 l 2
 432 101 438 104 482 172 c 1
 513 155 l 1
EndSplineSet
EndChar
StartChar: three
Encoding: 51 51 20
Width: 537
Flags: W
HStem: -11 60<183 247> 619 84<232 264>
VStem: 329 103<525 558> 370 95<183 229>
Fore
465 229 m 0xd0
 465 71 326 -11 183 -11 c 0
 140 -11 55 -3 55 58 c 0
 55 88 77 104 104 104 c 0
 154 104 187 49 247 49 c 0
 323 49 370 111 370 183 c 0xd0
 370 287 313 333 164 333 c 1
 163 369 l 1
 243 393 329 435 329 525 c 0
 329 582 289 619 232 619 c 0
 170 619 127 584 89 513 c 1
 52 524 l 1
 91 641 163 703 264 703 c 0
 378 703 432 642 432 558 c 0xe0
 432 495 396 452 352 419 c 1
 427 382 465 326 465 229 c 0xd0
EndSplineSet
EndChar
StartChar: four
Encoding: 52 52 21
Width: 537
Flags: W
HStem: 0 21G<303 404> 157 87<98 303 404 505>
VStem: 303 101<0 157 244 690>
DStem: 338 690 303 531 22 237 98 244
Fore
505 157 m 1
 404 157 l 1
 404 0 l 1
 303 0 l 1
 303 157 l 1
 22 157 l 1
 22 237 l 1
 338 690 l 1
 404 690 l 1
 404 244 l 1
 505 244 l 1
 505 157 l 1
303 244 m 1
 303 531 l 1
 98 244 l 1
 303 244 l 1
EndSplineSet
EndChar
StartChar: five
Encoding: 53 53 22
Width: 537
Flags: W
HStem: -11 60<180 240> 585 105<189 421>
VStem: 367 94<210 243>
DStem: 189 690 212 585 75 444 181 522
Fore
476 700 m 1
 421 585 l 1
 212 585 l 1
 181 522 l 1
 338 495 461 442 461 243 c 0
 461 86 335 -11 180 -11 c 0
 135 -11 52 -3 43 54 c 0
 37 89 61 112 100 112 c 0
 163 112 186 49 240 49 c 0
 319 49 367 123 367 210 c 0
 367 359 218 407 98 415 c 1
 80 418 72 432 75 444 c 1
 189 690 l 1
 393 690 l 2
 419 690 425 690 450 719 c 1
 476 700 l 1
EndSplineSet
EndChar
StartChar: six
Encoding: 54 54 23
Width: 537
Flags: W
HStem: -11 52<285 307> 386 69<267 304>
VStem: 46 117<260 294>
Fore
502 229 m 0
 502 229 l 0
 502 103 421 -11 286 -11 c 0
 154 -11 46 97 46 289 c 0
 46 511 200 671 409 702 c 0
 425 703 442 710 479 710 c 1
 484 670 l 1
 442 659 412 657 379 641 c 0
 300 604 218 538 192 422 c 1
 227 442 263 455 304 455 c 0
 429 455 502 369 502 229 c 0
386 240 m 0
 376 315 349 386 267 386 c 0
 237 386 203 375 178 356 c 0
 175 353 175 353 174 352 c 0
 163 327 163 296 163 263 c 0
 163 137 209 41 301 41 c 0
 370 41 398 131 386 240 c 0
EndSplineSet
EndChar
StartChar: seven
Encoding: 55 55 24
Width: 537
Flags: W
HStem: -11 21G<175 267> 590 100<95 375>
DStem: 375 590 484 660 175 -11 267 -11
Fore
484 660 m 1
 267 -11 l 1
 175 -11 l 1
 375 590 l 1
 187 590 l 2
 120 590 106 573 66 507 c 1
 29 525 l 1
 95 690 l 1
 484 690 l 1
 484 660 l 1
EndSplineSet
EndChar
StartChar: eight
Encoding: 56 56 25
Width: 537
Flags: W
HStem: -11 49<264 283> 653 50<256 275>
VStem: 65 99<164 182> 362 94<540 567> 376 102<141 169>
Fore
478 169 m 0xe8
 478 169 l 0xe8
 478 54 373 -11 266 -11 c 0
 161 -11 65 52 65 167 c 0
 65 250 127 304 186 347 c 1
 126 406 71 442 71 542 c 0
 71 616 141 703 273 703 c 0
 359 703 456 653 456 554 c 0xf0
 456 470 398 421 333 386 c 1
 402 330 478 267 478 169 c 0xe8
362 551 m 0xf0
 362 551 l 0
 362 611 323 653 264 653 c 0
 212 653 169 619 169 565 c 0
 169 501 232 452 281 419 c 1
 329 449 362 495 362 551 c 0xf0
376 141 m 0xe8
 376 221 292 270 232 312 c 0
 230 312 230 310 230 310 c 2
 192 280 164 226 164 178 c 0
 164 101 201 38 281 38 c 0
 339 38 376 83 376 141 c 0xe8
EndSplineSet
EndChar
StartChar: nine
Encoding: 57 57 26
Width: 537
Flags: W
HStem: 240 67<233 273> 653 50<248 267>
VStem: 41 117<461 492>
Fore
482 304 m 0
 482 304 l 0
 450 195 361 69 237 17 c 0
 178 -9 115 -20 72 -20 c 1
 66 23 l 1
 137 35 226 61 290 147 c 0
 319 186 346 232 361 280 c 1
 318 253 275 240 233 240 c 0
 120 240 41 324 41 462 c 0
 41 550 97 703 267 703 c 0
 361 703 436 636 468 551 c 0
 495 476 505 387 482 304 c 0
373 429 m 0
 373 510 359 653 253 653 c 0
 174 653 158 554 158 492 c 0
 158 412 178 307 273 307 c 0
 301 307 350 326 370 350 c 1
 373 375 373 399 373 429 c 0
EndSplineSet
EndChar
StartChar: colon
Encoding: 58 58 27
Width: 278
Flags: W
HStem: -8 140<140 152> 392 139<140 152>
Fore
210 461 m 0
 210 461 l 0
 210 419 178 392 140 392 c 0
 100 392 71 425 71 461 c 0
 71 498 98 531 140 531 c 0
 177 531 210 502 210 461 c 0
210 61 m 0
 210 20 178 -8 140 -8 c 0
 100 -8 71 26 71 61 c 0
 71 98 98 132 140 132 c 0
 177 132 210 103 210 61 c 0
EndSplineSet
EndChar
StartChar: semicolon
Encoding: 59 59 28
Width: 278
Flags: W
HStem: -5 134<131 138> 392 139<140 147>
VStem: 166 64<-5 18>
Fore
209 464 m 0
 209 464 l 0
 209 429 175 392 140 392 c 0
 98 392 69 429 69 464 c 0
 69 499 103 531 140 531 c 0
 175 531 209 499 209 464 c 0
230 18 m 0
 230 -40 161 -120 100 -143 c 1
 80 -103 l 1
 118 -84 166 -35 166 -5 c 0
 166 -3 164 -2 163 -2 c 0
 154 -2 140 -5 131 -5 c 0
 95 -2 66 20 66 57 c 0
 66 103 92 129 138 129 c 0
 201 129 230 72 230 18 c 0
EndSplineSet
EndChar
StartChar: less
Encoding: 60 60 29
Width: 563
Flags: W
DStem: 15 226 135 261 548 -18 548 71 548 541 548 452 15 295 135 261
Fore
548 -18 m 1
 15 226 l 1
 15 295 l 1
 548 541 l 1
 548 452 l 1
 135 261 l 1
 548 71 l 1
 548 -18 l 1
EndSplineSet
EndChar
StartChar: equal
Encoding: 61 61 30
Width: 563
Flags: W
HStem: 120 89<18 545> 313 89<18 545>
Fore
545 313 m 1
 18 313 l 1
 18 402 l 1
 545 402 l 1
 545 313 l 1
545 120 m 1
 18 120 l 1
 18 209 l 1
 545 209 l 1
 545 120 l 1
EndSplineSet
EndChar
StartChar: greater
Encoding: 62 62 31
Width: 563
Flags: W
DStem: 15 467 15 556 427 276 548 310 427 276 548 241 15 86 15 -3
Fore
548 241 m 1
 15 -3 l 1
 15 86 l 1
 427 276 l 1
 15 467 l 1
 15 556 l 1
 548 310 l 1
 548 241 l 1
EndSplineSet
EndChar
StartChar: question
Encoding: 63 63 32
Width: 443
Flags: W
HStem: -14 140<217 219> 470 21G<72.5 110.5> 647 53<195 217>
VStem: 37 114<522 548> 146 140<55 57> 290 117<528 547>
Fore
407 530 m 0xf4
 407 530 l 0
 407 462 364 399 326 355 c 0
 273 293 246 230 235 164 c 1
 195 164 l 1
 195 332 290 398 290 528 c 0
 290 588 260 647 195 647 c 0
 163 647 106 624 118 585 c 0
 121 576 126 576 132 567 c 0
 146 550 151 542 151 522 c 0
 151 490 127 470 94 470 c 0
 51 470 37 515 37 548 c 0
 37 645 129 700 217 700 c 0
 338 700 407 614 407 530 c 0xf4
286 55 m 0xec
 286 15 250 -14 217 -14 c 0
 181 -14 146 18 146 55 c 0
 146 92 181 126 217 126 c 0
 250 126 286 94 286 55 c 0xec
EndSplineSet
EndChar
StartChar: at
Encoding: 64 64 33
Width: 920
Flags: W
HStem: -155 64<474 514> 41 68<401 433 657 669> 427 71<510 525> 636 63<501 526>
VStem: 43 120<244 278> 267 117<180 214> 816 64<324 358>
Fore
880 343 m 0
 880 343 l 0
 880 177 765 40 659 40 c 0
 625 40 565 49 538 109 c 1
 499 66 441 41 401 41 c 0
 324 41 267 86 267 197 c 0
 267 349 392 498 510 498 c 0
 551 498 581 478 599 455 c 1
 607 484 l 1
 719 484 l 1
 633 154 l 2
 625 124 644 108 667 108 c 0
 737 108 816 232 816 341 c 0
 816 518 654 636 501 636 c 0
 295 636 163 427 163 261 c 0
 163 115 220 -91 495 -91 c 0
 588 -91 700 -55 753 -2 c 1
 774 -14 l 1
 753 -81 l 1
 753 -81 654 -155 493 -155 c 0
 284 -155 43 -35 43 269 c 0
 43 441 186 699 501 699 c 0
 631 699 880 611 880 343 c 0
570 356 m 0
 570 410 550 427 525 427 c 0
 475 427 384 344 384 187 c 0
 384 134 396 109 433 109 c 0
 464 109 502 147 511 166 c 0
 525 189 570 287 570 356 c 0
EndSplineSet
EndChar
StartChar: A
Encoding: 65 65 34
Width: 721
Flags: W
HStem: 0 21G<3 226 438 717> 217 64<235 453>
DStem: 330 513 379 690 429 281 621 134 335 690 330 513 134 210 235 281
Fore
717 0 m 1
 438 0 l 1
 438 45 l 1
 521 48 516 65 485 138 c 2
 453 217 l 1
 209 217 l 1
 194 177 157 108 157 74 c 0
 157 48 187 45 226 45 c 1
 226 0 l 1
 3 0 l 1
 3 43 l 1
 72 49 95 120 134 210 c 2
 335 690 l 1
 379 690 l 1
 621 134 l 2
 636 98 654 41 717 45 c 1
 717 0 l 1
429 281 m 1
 330 513 l 1
 235 281 l 1
 429 281 l 1
EndSplineSet
EndChar
StartChar: B
Encoding: 66 66 35
Width: 666
Flags: W
HStem: 0 45<8 34.9444> 0 61<279 335> 326 64<230 302> 645 45<8 34.4651>
VStem: 104 126<90 326 92 600> 447 127<495 513> 468 140<175 209>
Fore
608 195 m 0xba
 608 195 l 0
 608 69 499 0 335 0 c 2x7a
 8 0 l 1
 8 45 l 1
 89 45 104 68 104 92 c 2
 104 598 l 2
 104 621 89 645 8 645 c 1
 8 690 l 1
 287 690 l 2
 450 690 574 642 574 508 c 0xbc
 574 433 535 386 473 361 c 1
 547 335 608 281 608 195 c 0xba
447 505 m 0x3c
 447 505 l 0
 447 574 404 611 341 622 c 1
 261 628 230 625 230 598 c 2
 230 390 l 1
 300 390 l 2
 392 390 447 432 447 505 c 0x3c
468 197 m 0x7a
 468 309 356 326 267 326 c 2
 230 326 l 1
 230 103 l 2
 230 74 240 61 300 61 c 0
 396 61 468 89 468 197 c 0x7a
EndSplineSet
EndChar
StartChar: C
Encoding: 67 67 36
Width: 666
Flags: W
HStem: -14 69<373 391> 634 66<373 391>
VStem: 22 139<321 371>
Fore
651 123 m 1
 584 38 476 -14 376 -14 c 0
 175 -14 22 115 22 343 c 0
 22 548 166 700 375 700 c 0
 504 700 553 614 587 699 c 1
 628 699 l 1
 636 450 l 1
 591 450 l 1
 561 562 493 634 384 634 c 0
 227 634 161 507 161 335 c 0
 161 201 230 55 386 55 c 0
 481 55 544 86 621 163 c 1
 651 123 l 1
EndSplineSet
EndChar
StartChar: D
Encoding: 68 68 37
Width: 721
Flags: W
HStem: 0 45<8 32.2885> 627 63<8 297> 645 45<8 31.8559>
VStem: 95 128<92 600> 567 133<319 369>
Fore
700 344 m 0xd8
 700 344 l 0
 700 135 562 0 286 0 c 2
 8 0 l 1
 8 45 l 1
 81 45 95 68 95 92 c 2
 95 598 l 2
 95 621 81 645 8 645 c 1xb8
 8 690 l 1
 278 690 l 2
 541 690 700 576 700 344 c 0xd8
567 343 m 0
 567 531 444 627 267 627 c 0xd8
 230 627 223 627 223 588 c 2
 223 103 l 2
 223 75 241 68 258 66 c 0
 455 57 567 166 567 343 c 0
EndSplineSet
EndChar
StartChar: E
Encoding: 69 69 38
Width: 609
Flags: W
HStem: 0 45<0 24.0562> 0 66<223 561> 326 66<215 361> 522 168<0 554> 624 66<0 417> 645 45<0 23.6262>
VStem: 88 127<82.2384 326 92 600> 455 44<229 247.214 487 487>
Fore
613 194 m 1x6b
 561 0 l 1x6b
 0 0 l 1
 0 45 l 1
 72 45 88 68 88 92 c 2
 88 598 l 2
 88 621 72 645 0 645 c 1xa7
 0 690 l 1
 554 690 l 1
 554 522 l 1
 510 522 l 1x33
 499 581 468 624 407 624 c 2
 246 624 l 2
 229 624 215 614 215 598 c 2
 215 392 l 1
 343 392 l 2
 402 392 455 406 455 487 c 1
 499 487 l 1
 499 229 l 1
 455 229 l 1
 455 310 402 326 343 326 c 2
 215 326 l 1
 215 92 l 2
 215 81 215 66 227 66 c 2
 359 66 l 2
 435 66 508 68 561 194 c 1
 613 194 l 1x6b
EndSplineSet
EndChar
StartChar: F
Encoding: 70 70 39
Width: 556
Flags: W
HStem: 0 45<0 24.0562 304 304> 326 66<215 353> 522 168<0 556> 624 66<0 417> 645 45<0 23.6262>
VStem: 88 127<82.2384 326 92 600> 445 47<229 247.421 487 487>
Fore
556 522 m 1xe6
 508 522 l 1xe6
 496 633 441 624 376 624 c 2
 244 624 l 2xd6
 221 624 215 613 215 598 c 2
 215 392 l 1
 333 392 l 2
 393 392 445 406 445 487 c 1
 492 487 l 1
 492 229 l 1
 445 229 l 1
 445 310 393 326 333 326 c 2
 215 326 l 1
 215 92 l 2
 215 68 229 45 304 45 c 1
 304 0 l 1
 0 0 l 1
 0 45 l 1
 72 45 88 68 88 92 c 2
 88 598 l 2
 88 621 72 645 0 645 c 1xce
 0 690 l 1
 556 690 l 1
 556 522 l 1xe6
EndSplineSet
EndChar
StartChar: G
Encoding: 71 71 40
Width: 721
Flags: W
HStem: -14 66<371 400> 336 45<436 460.956 436 716> 464 21G<593 636> 636 64<366 385>
VStem: 15 140<321 355> 524 121<97 275>
Fore
716 336 m 1
 648 336 645 307 645 260 c 2
 645 61 l 1
 581 26 465 -14 382 -14 c 0
 206 -14 15 98 15 341 c 0
 15 547 163 700 370 700 c 0
 485 700 559 622 585 700 c 1
 628 700 l 1
 636 464 l 1
 593 464 l 1
 554 573 492 636 379 636 c 0
 221 636 155 501 155 333 c 0
 155 186 235 52 395 52 c 0
 430 52 470 58 502 72 c 0
 524 83 524 88 524 111 c 2
 524 260 l 2
 524 309 519 336 436 336 c 1
 436 381 l 1
 716 381 l 1
 716 336 l 1
EndSplineSet
EndChar
StartChar: H
Encoding: 72 72 41
Width: 721
Flags: W
HStem: 0 45<8 32.2885 310 310 412 436.371 714 714> 321 66<223 501> 645 45<3 32.5463 3 310 412 435.936 412 714>
VStem: 95 128<81.7675 321 92 600> 501 126<82.2384 321 387 600>
Fore
714 0 m 1
 412 0 l 1
 412 45 l 1
 485 45 501 68 501 92 c 2
 501 321 l 1
 223 321 l 1
 223 92 l 2
 223 68 237 45 310 45 c 1
 310 0 l 1
 8 0 l 1
 8 45 l 1
 81 45 95 68 95 92 c 2
 95 598 l 2
 95 621 81 645 9 645 c 1
 3 690 l 1
 310 690 l 1
 310 645 l 1
 237 645 223 621 223 598 c 2
 223 387 l 1
 501 387 l 1
 501 598 l 2
 501 621 485 645 412 645 c 1
 412 690 l 1
 714 690 l 1
 714 645 l 1
 642 645 627 621 627 598 c 2
 627 92 l 2
 627 68 642 45 714 45 c 1
 714 0 l 1
EndSplineSet
EndChar
StartChar: I
Encoding: 73 73 42
Width: 333
Flags: W
HStem: 0 45<6 33.5767 329 329> 645 45<6 33.0861 6 329>
VStem: 104 126<82.3731 600>
Fore
329 0 m 1
 6 0 l 1
 6 45 l 1
 89 45 104 68 104 92 c 2
 104 598 l 2
 104 621 89 645 6 645 c 1
 6 690 l 1
 329 690 l 1
 329 645 l 1
 246 645 230 621 230 598 c 2
 230 92 l 2
 230 68 246 45 329 45 c 1
 329 0 l 1
EndSplineSet
EndChar
StartChar: J
Encoding: 74 74 43
Width: 388
Flags: W
HStem: -14 63<112 135> 645 45<66 93.0861 66 389>
VStem: 164 126<126 600>
Fore
389 645 m 1
 306 645 290 621 290 598 c 2
 290 210 l 2
 290 60 210 -14 112 -14 c 0
 78 -14 12 0 2 54 c 2
 -2 71 l 1
 -2 100 23 132 58 132 c 0
 98 132 120 100 117 86 c 0
 112 72 121 49 135 49 c 0
 160 49 164 91 164 126 c 2
 164 598 l 2
 164 621 149 645 66 645 c 1
 66 690 l 1
 389 690 l 1
 389 645 l 1
EndSplineSet
EndChar
StartChar: K
Encoding: 75 75 44
Width: 721
Flags: W
HStem: 0 45<8 32.9598 315 315 392 432.676 720 720> 645 45<8 32.5143 8 316 387 673>
VStem: 98 126<82.2721 307 92 600>
DStem: 237 315 336 390 326 224 485 230
Fore
720 0 m 1
 392 0 l 1
 392 45 l 1
 459 45 470 49 456 71 c 0
 429 118 364 187 326 224 c 1
 237 315 l 1
 224 306 l 1
 224 92 l 2
 224 68 240 45 315 45 c 1
 315 0 l 1
 8 0 l 1
 8 45 l 1
 83 45 98 68 98 92 c 2
 98 598 l 2
 98 621 83 645 8 645 c 1
 8 690 l 1
 316 690 l 1
 316 645 l 1
 240 645 224 621 224 598 c 2
 224 390 l 1
 292 449 455 584 455 624 c 0
 455 653 418 644 387 647 c 1
 387 690 l 1
 673 690 l 1
 673 645 l 1
 590 645 554 608 508 562 c 2
 336 390 l 1
 485 230 l 1
 553 157 l 2
 602 101 641 45 720 45 c 1
 720 0 l 1
EndSplineSet
EndChar
StartChar: L
Encoding: 76 76 45
Width: 609
Flags: W
HStem: 0 45<0 24.0562> 0 66<271 559> 645 45<0 23.6262 0 303>
VStem: 88 127<92 600>
Fore
614 198 m 1x70
 559 0 l 1x70
 0 0 l 1
 0 45 l 1xb0
 72 45 88 68 88 92 c 2
 88 598 l 2
 88 621 72 645 0 645 c 1
 0 690 l 1
 303 690 l 1
 303 645 l 1
 229 645 215 621 215 598 c 2
 215 92 l 2
 215 69 249 66 303 66 c 0
 422 66 508 60 565 198 c 1
 614 198 l 1x70
EndSplineSet
EndChar
StartChar: M
Encoding: 77 77 46
Width: 887
Flags: W
HStem: 0 45<8 34.9444 269 269 581 605.015 882 882> 645 45<9 35.155 662 882>
VStem: 104 68<82.1374 505> 668 126<82.0028 528>
DStem: 172 505 227 690 402 0 450 198 662 690 668 528 450 198 432 0
Fore
882 0 m 1
 581 0 l 1
 581 45 l 1
 653 45 668 68 668 92 c 2
 668 528 l 1
 432 0 l 1
 402 0 l 1
 172 505 l 1
 172 92 l 2
 172 68 187 45 269 45 c 1
 269 0 l 1
 8 0 l 1
 8 45 l 1
 89 45 104 68 104 92 c 2
 104 598 l 2
 104 621 89 645 9 645 c 1
 9 690 l 1
 227 690 l 1
 450 198 l 1
 662 690 l 1
 882 690 l 1
 882 645 l 1
 808 645 794 621 794 598 c 2
 794 92 l 2
 794 68 809 45 882 45 c 1
 882 0 l 1
EndSplineSet
EndChar
StartChar: N
Encoding: 78 78 47
Width: 721
Flags: W
HStem: 0 45<0 26.9859 263 263> 645 45<0 26.8006 458 485.006 458 720>
VStem: 97 69<82.3394 518> 554 70<229 607>
DStem: 166 518 189 690 590 -14 554 229
Fore
720 645 m 1
 639 645 624 621 624 598 c 2
 624 -14 l 1
 590 -14 l 1
 166 518 l 1
 166 92 l 2
 166 68 180 45 263 45 c 1
 263 0 l 1
 0 0 l 1
 0 45 l 1
 81 45 97 68 97 92 c 2
 97 596 l 1
 91 605 l 1
 63 636 57 645 0 645 c 1
 0 690 l 1
 189 690 l 1
 554 229 l 1
 554 598 l 2
 554 621 541 645 458 645 c 1
 458 690 l 1
 720 690 l 1
 720 645 l 1
EndSplineSet
EndChar
StartChar: O
Encoding: 79 79 48
Width: 721
Flags: W
HStem: -14 21G<269.5 464.5>
VStem: 22 138<343 371> 562 137<343 372.922>
Fore
699 343 m 0
 699 343 l 0
 699 143 568 -14 361 -14 c 0
 178 -14 22 124 22 343 c 0
 22 550 158 703 361 700 c 1
 539 708 699 564 699 343 c 0
562 343 m 1
 562 492 510 642 361 639 c 1
 220 630 160 525 160 343 c 0
 160 146 247 38 359 48 c 0
 530 61 567 241 562 343 c 1
EndSplineSet
EndChar
StartChar: P
Encoding: 80 80 49
Width: 556
Flags: W
HStem: 0 45<-2 22.6852 301 301> 289 63<245 287> 627 63<5 271> 645 45<5 27.5371>
VStem: 88 126<82.2721 291 92 600> 421 133<479 513>
Fore
554 502 m 0xec
 554 502 l 0
 554 347 422 289 287 289 c 0
 264 289 238 290 214 292 c 1
 214 92 l 2
 214 68 229 45 301 45 c 1
 301 0 l 1
 -2 0 l 1
 -2 45 l 1
 72 45 88 68 88 92 c 2
 88 598 l 2
 88 621 74 645 5 645 c 1xdc
 5 690 l 1
 267 690 l 2
 430 690 554 627 554 502 c 0xec
421 495 m 0
 421 601 333 627 244 627 c 0xec
 215 627 214 624 214 594 c 2
 214 355 l 1
 226 353 238 352 250 352 c 0
 350 352 421 387 421 495 c 0
EndSplineSet
EndChar
StartChar: Q
Encoding: 81 81 50
Width: 721
Flags: W
HStem: -177 225<361 713> 639 61<361 375>
VStem: 22 138<343 368> 562 137<343 368>
Fore
713 -177 m 1
 713 -177 l 0
 522 -177 401 -146 313 -61 c 0
 295 -45 275 -17 258 -5 c 1
 250 5 237 8 230 9 c 0
 95 46 22 201 22 343 c 0
 22 545 149 700 361 700 c 0
 570 700 699 544 699 343 c 0
 699 154 578 14 449 -6 c 1
 515 -84 594 -132 713 -135 c 1
 713 -177 l 1
562 343 m 0
 562 531 484 639 361 639 c 0
 230 637 160 533 160 343 c 0
 160 155 237 48 361 48 c 0
 493 48 562 167 562 343 c 0
EndSplineSet
EndChar
StartChar: R
Encoding: 82 82 51
Width: 666
Flags: W
HStem: 0 45<0 23.6172 300 300> 627 63<0 289> 645 45<0 23.1976>
VStem: 84 128<81.7675 307 92 609> 421 133<480.795 513>
DStem: 249 307 384 323 487 0 568 95
Fore
665 0 m 1xd8
 487 0 l 1
 249 307 l 1
 212 306 l 1
 212 92 l 2
 212 68 226 45 300 45 c 1
 300 0 l 1
 0 0 l 1
 0 45 l 1
 71 45 84 68 84 92 c 2
 84 598 l 2
 84 621 71 645 0 645 c 1xb8
 0 690 l 1
 276 690 l 2
 452 690 554 624 554 501 c 0
 554 395 475 341 384 323 c 1
 568 95 l 2
 593 66 613 48 665 43 c 1
 665 0 l 1xd8
421 499 m 0
 421 590 355 627 273 627 c 0xd8
 220 627 212 630 212 591 c 2
 212 367 l 1
 339 373 421 401 421 499 c 0
EndSplineSet
EndChar
StartChar: S
Encoding: 83 83 52
Width: 556
Flags: W
HStem: -14 63<261 286> 462 21G<433 482> 634 66<245 265>
VStem: 58 111<521 551>
Fore
502 181 m 0
 502 86 425 -14 280 -14 c 0
 183 -14 115 66 104 -14 c 1
 61 -14 l 1
 29 226 l 1
 74 226 l 1
 106 129 172 49 272 49 c 0
 344 49 393 111 372 181 c 0
 332 321 58 329 58 521 c 0
 58 627 144 700 247 700 c 0
 347 700 392 622 416 700 c 1
 458 700 l 1
 482 462 l 1
 433 462 l 1
 410 559 349 634 263 634 c 0
 210 634 169 607 169 551 c 0
 169 498 229 461 269 436 c 0
 410 352 502 306 502 181 c 0
EndSplineSet
EndChar
StartChar: T
Encoding: 84 84 53
Width: 609
Flags: W
HStem: 0 45<154 178.288 456 456> 622 68<12 241 12 459>
VStem: 241 128<81.7675 622>
Fore
605 495 m 1
 559 495 l 1
 536 625 492 622 427 622 c 2
 369 622 l 1
 369 92 l 2
 369 68 382 45 456 45 c 1
 456 0 l 1
 154 0 l 1
 154 45 l 1
 227 45 241 68 241 92 c 2
 241 622 l 1
 178 622 109 627 84 590 c 1
 65 565 61 533 54 495 c 1
 6 495 l 1
 12 690 l 1
 599 690 l 1
 605 495 l 1
EndSplineSet
EndChar
StartChar: U
Encoding: 85 85 54
Width: 721
Flags: W
HStem: -14 69<356 381> 645 45<5 28.5862 5 306 461 486.441 461 716>
VStem: 92 126<241 600> 554 68<280 600>
Fore
716 645 m 1
 637 645 622 621 622 598 c 2
 622 280 l 2
 622 161 611 69 492 14 c 1
 459 -3 404 -14 359 -14 c 0
 169 -14 92 74 92 266 c 2
 92 598 l 2
 92 621 77 645 5 645 c 1
 5 690 l 1
 306 690 l 1
 306 645 l 1
 233 645 218 621 218 598 c 2
 218 258 l 2
 218 112 261 55 379 55 c 0
 554 55 554 190 554 280 c 2
 554 598 l 2
 554 621 539 645 461 645 c 1
 461 690 l 1
 716 690 l 1
 716 645 l 1
EndSplineSet
EndChar
StartChar: V
Encoding: 86 86 55
Width: 721
Flags: W
HStem: -14 21G<366 393> 645 45<8 23.1521 8 298 484 712.937>
DStem: 120 538 267 507 366 -14 402 204
Fore
713 645 m 1
 659 645 642 616 628 581 c 0
 554 404 452 138 393 -14 c 1
 366 -14 l 1
 120 538 l 2
 95 593 74 645 8 645 c 1
 8 690 l 1
 298 690 l 1
 298 645 l 1
 235 645 223 641 223 621 c 0
 223 601 260 527 267 507 c 1
 402 204 l 1
 533 536 l 2
 541 556 556 593 556 614 c 0
 556 645 518 645 484 645 c 1
 484 690 l 1
 713 690 l 1
 713 645 l 1
EndSplineSet
EndChar
StartChar: W
Encoding: 87 87 56
Width: 943
Flags: W
HStem: -14 21G<296 329 627 656> 645 45<-3 266 304 328.226 304 596>
DStem: 140 427 215 573 296 -14 344 233 436 481 475 389 344 233 329 -14 475 389 527 590 627 -14 664 233 774 533 865 582 664 233 656 -14
Fore
948 647 m 1
 915 644 895 639 882 624 c 1
 872 610 868 596 865 582 c 1
 656 -14 l 1
 627 -14 l 1
 475 389 l 1
 329 -14 l 1
 296 -14 l 1
 140 427 l 1
 121 476 91 570 65 613 c 0
 52 634 32 642 -3 647 c 1
 -3 690 l 1
 266 690 l 1
 266 645 l 1
 241 645 l 1
 217 642 201 644 201 617 c 0
 201 608 212 581 215 573 c 2
 344 233 l 1
 436 481 l 1
 424 522 409 570 389 607 c 0
 373 637 350 645 304 645 c 1
 304 690 l 1
 596 690 l 1
 596 645 l 1
 561 645 519 651 519 627 c 0
 519 613 525 596 527 590 c 1
 664 233 l 1
 774 533 l 1
 790 578 799 614 790 628 c 0
 779 645 754 644 725 647 c 1
 725 690 l 1
 948 690 l 1
 948 647 l 1
EndSplineSet
EndChar
StartChar: X
Encoding: 88 88 57
Width: 721
Flags: W
HStem: 0 45<0 15.1541 257 257 396 436.604 717 717> 645 45<12 338 447 498.122 447 710>
DStem: 298 339 338 280 155 163 238 154 338 280 418 381 416 164 596 123 473 556 550 547 378 439 418 381
Fore
717 0 m 1
 396 0 l 1
 396 45 l 1
 464 45 479 49 468 77 c 1
 462 100 432 144 416 164 c 1
 338 280 l 1
 238 154 l 2
 220 132 198 106 184 81 c 0
 174 60 197 45 257 45 c 1
 257 0 l 1
 0 0 l 1
 0 45 l 1
 66 45 106 100 155 163 c 1
 298 339 l 1
 201 485 l 2
 123 602 94 642 12 645 c 1
 12 690 l 1
 338 690 l 1
 338 645 l 1
 275 645 263 645 263 627 c 0
 263 598 335 499 352 476 c 2
 378 439 l 1
 473 556 l 2
 485 571 518 602 518 625 c 0
 518 651 476 645 447 645 c 1
 447 690 l 1
 710 690 l 1
 710 645 l 1
 630 645 578 582 550 547 c 2
 418 381 l 1
 596 123 l 1
 639 65 662 45 717 45 c 1
 717 0 l 1
EndSplineSet
EndChar
StartChar: Y
Encoding: 89 89 58
Width: 721
Flags: W
HStem: 0 45<201 229.567 530 530> 645 45<11 26.0149 11 315 472 521.563>
VStem: 303 126<82.4068 303>
DStem: 180 484 264 582 303 303 396 386 522 584 568 528 396 386 429 315
Fore
714 647 m 1
 637 636 596 570 568 528 c 2
 429 315 l 1
 429 92 l 2
 429 68 444 45 530 45 c 1
 530 0 l 1
 201 0 l 1
 201 45 l 1
 287 45 303 68 303 92 c 2
 303 303 l 1
 180 484 l 2
 115 579 91 644 11 645 c 1
 11 690 l 1
 315 690 l 1
 315 645 l 1
 260 645 243 647 243 630 c 0
 243 611 253 596 264 582 c 1
 396 386 l 1
 522 584 l 2
 531 599 547 616 539 634 c 0
 535 645 527 645 472 645 c 1
 472 690 l 1
 714 690 l 1
 714 647 l 1
EndSplineSet
EndChar
StartChar: Z
Encoding: 90 90 59
Width: 609
Flags: W
HStem: 0 63<169 584> 627 63<40 421>
DStem: 421 627 590 662 -5 29 169 63
Fore
610 201 m 1
 584 0 l 1
 -5 0 l 1
 -5 29 l 1
 421 627 l 1
 237 627 l 2
 141 627 86 610 68 493 c 1
 17 493 l 1
 40 690 l 1
 593 690 l 1
 590 662 l 1
 169 63 l 1
 390 63 l 2
 492 63 535 89 564 201 c 1
 610 201 l 1
EndSplineSet
EndChar
StartChar: bracketleft
Encoding: 91 91 60
Width: 333
Flags: W
HStem: -157 51<205.897 312> 639 51<75 312>
VStem: 75 102<-157 612>
Fore
312 -157 m 1
 75 -157 l 1
 75 690 l 1
 312 690 l 1
 312 639 l 1
 221 639 l 2
 186 639 177 631 177 596 c 2
 177 -55 l 2
 177 -97 186 -106 224 -106 c 2
 312 -106 l 1
 312 -157 l 1
EndSplineSet
EndChar
StartChar: backslash
Encoding: 92 92 61
Width: 278
Flags: W
HStem: 0 21G<281 382>
DStem: -104 707 -3 707 281 0 382 0
Fore
382 0 m 1
 281 0 l 1
 -104 707 l 1
 -3 707 l 1
 382 0 l 1
EndSplineSet
EndChar
StartChar: bracketright
Encoding: 93 93 62
Width: 333
Flags: W
HStem: -157 51<22 257> 639 51<22 135>
VStem: 157 100<-76.1473 612>
Fore
257 -157 m 1
 22 -157 l 1
 22 -106 l 1
 103 -106 l 2
 152 -104 157 -98 157 -51 c 2
 157 571 l 2
 157 616 161 639 123 639 c 2
 22 639 l 1
 22 690 l 1
 257 690 l 1
 257 -157 l 1
EndSplineSet
EndChar
StartChar: asciicircum
Encoding: 94 94 63
Width: 468
Flags: W
DStem: 195 687 235 576 -5 257 94 257
Fore
475 257 m 1
 375 257 l 1
 235 576 l 1
 94 257 l 1
 -5 257 l 1
 195 687 l 1
 275 687 l 1
 475 257 l 1
EndSplineSet
EndChar
StartChar: underscore
Encoding: 95 95 64
Width: 499
Flags: W
HStem: -166 68<-12 511>
Fore
511 -166 m 1
 -12 -166 l 1
 -12 -98 l 1
 511 -98 l 1
 511 -166 l 1
EndSplineSet
EndChar
StartChar: grave
Encoding: 96 96 65
Width: 333
Flags: W
Fore
275 507 m 1
 200 508 l 1
 54 599 l 2
 34 610 5 633 5 653 c 0
 5 684 20 702 48 702 c 0
 68 702 98 688 114 665 c 1
 275 507 l 1
EndSplineSet
EndChar
StartChar: a
Encoding: 97 97 66
Width: 443
Flags: W
HStem: -11 85<143 195> 435 47<200 224>
VStem: 25 112<108 143> 270 109<107 336.814>
Fore
455 108 m 0
 453 52 l 0
 436 32 390 -11 359 -11 c 0
 310 -11 286 18 278 54 c 1
 235 18 183 -11 143 -11 c 0
 75 -11 25 43 25 108 c 0
 25 229 181 276 270 310 c 1
 270 399 266 435 210 435 c 0
 194 435 164 430 155 415 c 1
 152 404 157 386 157 361 c 0
 157 332 129 304 100 304 c 0
 43 304 29 353 55 401 c 0
 92 465 158 482 224 482 c 0
 344 482 379 432 379 300 c 2
 379 89 l 2
 379 61 399 66 455 108 c 0
270 108 m 1
 270 260 l 1
 212 238 137 220 137 143 c 0
 137 108 155 74 195 74 c 0
 210 74 258 89 270 108 c 1
EndSplineSet
EndChar
StartChar: b
Encoding: 98 98 67
Width: 499
Flags: W
HStem: -11 59<241 261> 396 86<258 301>
VStem: 61 111<80 326 80 713> 373 112<212 255>
Fore
485 255 m 0
 485 255 l 0
 485 118 387 -11 243 -11 c 0
 183 -11 121 6 78 40 c 0
 68 48 61 61 61 80 c 2
 61 571 l 2
 61 627 52 619 -3 619 c 1
 -3 659 l 1
 41 671 68 676 92 685 c 2
 172 713 l 1
 172 429 l 1
 204 464 252 482 301 482 c 0
 424 482 485 362 485 255 c 0
373 212 m 0
 373 286 352 396 258 396 c 0
 194 396 172 359 172 321 c 2
 172 97 l 1
 169 71 180 69 201 58 c 0
 217 52 241 48 257 48 c 0
 349 48 373 135 373 212 c 0
EndSplineSet
EndChar
StartChar: c
Encoding: 99 99 68
Width: 443
Flags: W
HStem: -11 95<212 257> 316 21G<338.5 367.5> 429 53<228 249>
VStem: 12 103<226 267> 295 115<370 373>
Fore
429 167 m 1
 379 66 319 -11 212 -11 c 0
 98 -11 12 95 12 226 c 0
 12 362 92 482 249 482 c 0
 310 482 406 447 410 373 c 0
 410 344 382 316 353 316 c 0
 324 316 295 344 295 372 c 0
 295 406 275 429 230 429 c 0
 151 429 115 344 115 267 c 0
 115 181 161 84 257 84 c 0
 318 84 356 129 395 186 c 1
 429 167 l 1
EndSplineSet
EndChar
StartChar: d
Encoding: 100 100 69
Width: 499
Flags: W
HStem: -11 74<212 250> 427 55<221 250>
VStem: 14 110<223 253> 327 109<121 713>
Fore
502 48 m 1
 502 48 l 0
 447 31 396 14 327 -22 c 1
 327 38 l 1
 296 9 255 -11 212 -11 c 0
 80 -11 14 104 14 223 c 0
 14 346 101 482 237 482 c 0
 275 482 306 468 327 456 c 1
 327 571 l 2
 327 625 321 619 261 619 c 1
 261 659 l 1
 307 671 332 677 356 685 c 2
 436 713 l 1
 436 103 l 2
 436 74 465 84 502 84 c 1
 502 48 l 1
327 129 m 2
 327 312 l 2
 327 376 300 427 235 427 c 0
 158 427 124 338 124 253 c 0
 124 132 177 63 250 63 c 0
 300 63 327 100 327 129 c 2
EndSplineSet
EndChar
StartChar: e
Encoding: 101 101 70
Width: 443
Flags: W
HStem: -11 92<212 253> 276 56<109 415> 422 60<204 226>
Fore
438 178 m 1
 438 178 l 0
 401 71 316 -11 212 -11 c 0
 91 -11 11 100 11 226 c 0
 11 376 97 482 226 482 c 0
 341 482 412 399 415 276 c 1
 103 276 l 1
 109 189 152 81 253 81 c 0
 315 81 364 131 399 194 c 1
 438 178 l 1
286 332 m 1
 281 378 258 422 204 422 c 0
 146 422 118 382 109 332 c 1
 286 332 l 1
EndSplineSet
EndChar
StartChar: f
Encoding: 102 102 71
Width: 333
Flags: W
HStem: 0 37<8 19.5 279.167 292> 416 56<9 91 200 321> 579 128<273 344>
VStem: 91 109<92 416 472 512.84>
Fore
393 639 m 1
 393 611 373 579 344 579 c 0
 287 579 300 630 260 650 c 0
 252 654 238 656 230 651 c 1
 195 642 200 594 200 565 c 2
 200 472 l 1
 321 472 l 1
 321 416 l 1
 200 416 l 1
 200 92 l 2
 200 55 215 43 292 37 c 1
 292 0 l 1
 8 0 l 1
 8 37 l 1
 77 43 91 55 91 92 c 2
 91 416 l 1
 9 416 l 1
 9 472 l 1
 91 472 l 1
 91 504 92 530 98 559 c 0
 117 642 184 707 273 707 c 0
 318 707 369 696 393 639 c 1
EndSplineSet
EndChar
StartChar: g
Encoding: 103 103 72
Width: 499
Flags: W
HStem: -217 80<200 240> 147 51<242 257> 386 96<244 482> 430 52<222 244>
VStem: 15 96<-101 -78> 57 107<309 347> 316 102<284 312> 421 52<-55 -37>
Fore
482 386 m 1xe7
 406 386 l 0
 415 359 418 332 418 312 c 0
 418 209 338 147 244 147 c 0
 229 147 210 151 192 154 c 1
 175 149 144 121 146 103 c 1
 160 86 204 89 223 88 c 0
 366 81 473 88 473 -37 c 0
 473 -157 298 -217 200 -217 c 0
 75 -217 15 -144 15 -101 c 0xeb
 15 -61 54 -32 104 11 c 1
 83 22 61 40 61 66 c 0
 61 104 101 143 140 174 c 1
 88 200 57 244 57 309 c 0
 57 415 141 482 244 482 c 0
 330 482 339 432 482 450 c 1
 482 386 l 1xe7
316 284 m 0
 316 284 l 0
 316 335 292 430 230 430 c 0
 178 430 164 390 164 347 c 0xd7
 164 290 181 198 255 198 c 0
 304 198 316 241 316 284 c 0
421 -55 m 0
 421 -11 356 -15 298 -14 c 0
 255 -14 198 -12 151 -5 c 1
 134 -25 111 -52 111 -78 c 0xcb
 111 -111 147 -137 240 -137 c 0
 349 -137 421 -108 421 -55 c 0
EndSplineSet
EndChar
StartChar: h
Encoding: 104 104 73
Width: 499
Flags: W
HStem: 0 37<-3 9.75 219.25 232 267 279.75 489.5 502> 404 78<266 301>
VStem: 60 109<92 352 92 713> 330 109<92 321>
Fore
502 0 m 1
 267 0 l 1
 267 37 l 1
 318 41 330 57 330 92 c 2
 330 300 l 2
 330 350 329 404 266 404 c 0
 217 404 194 379 169 352 c 1
 169 92 l 2
 169 57 181 41 232 37 c 1
 232 0 l 1
 -3 0 l 1
 -3 37 l 1
 48 41 60 57 60 92 c 2
 60 571 l 2
 60 622 52 621 -3 619 c 1
 -3 659 l 1
 40 671 65 677 89 685 c 2
 169 713 l 1
 169 422 l 1
 203 458 249 482 301 482 c 0
 410 482 439 421 439 301 c 2
 439 92 l 2
 439 57 452 41 502 37 c 1
 502 0 l 1
EndSplineSet
EndChar
StartChar: i
Encoding: 105 105 74
Width: 278
Flags: W
HStem: 0 38<11 31.3333 251 272> 579 128<134 140>
VStem: 86 109<92 353>
Fore
197 642 m 0
 197 642 l 0
 197 608 167 579 134 579 c 0
 97 579 71 608 71 642 c 0
 71 679 97 707 134 707 c 0
 167 707 197 679 197 642 c 0
272 0 m 1
 11 0 l 1
 11 38 l 1
 72 41 86 57 86 92 c 2
 86 335 l 2
 86 398 77 404 11 386 c 1
 11 425 l 1
 195 488 l 1
 195 92 l 2
 195 57 209 41 272 38 c 1
 272 0 l 1
EndSplineSet
EndChar
StartChar: j
Encoding: 106 106 75
Width: 278
Flags: W
HStem: 579 128<161 163>
VStem: 109 109<-81 360>
Fore
224 642 m 0
 224 642 l 0
 224 608 195 579 161 579 c 0
 127 579 98 608 98 642 c 0
 98 679 127 707 161 707 c 0
 195 707 224 679 224 642 c 0
218 25 m 2
 218 -137 154 -217 35 -217 c 0
 5 -217 -32 -204 -52 -186 c 1
 -78 -157 -69 -112 -41 -101 c 1
 -15 -88 11 -94 26 -112 c 1
 35 -127 48 -146 74 -158 c 0
 108 -174 109 -114 109 -81 c 2
 109 355 l 2
 109 398 97 398 35 389 c 1
 35 425 l 1
 218 488 l 1
 218 25 l 2
EndSplineSet
EndChar
StartChar: k
Encoding: 107 107 76
Width: 499
Flags: W
HStem: 0 37<496.25 511> 433 39<258 305.827 258 487>
VStem: 65 109<92 224 92 713>
DStem: 174 224 247 293 301 55 384 118
Fore
511 0 m 1
 270 0 l 1
 270 38 l 1
 309 38 306 49 301 55 c 2
 174 224 l 1
 174 92 l 2
 174 57 187 41 249 38 c 1
 249 0 l 1
 -11 0 l 1
 -11 38 l 1
 51 41 65 57 65 92 c 2
 65 591 l 2
 65 627 54 622 -2 617 c 1
 -2 659 l 1
 45 671 69 677 94 685 c 2
 174 713 l 1
 174 301 l 1
 280 395 l 2
 290 406 301 415 309 427 c 1
 309 436 296 433 258 433 c 1
 258 472 l 1
 487 472 l 1
 487 433 l 1
 378 433 330 367 247 293 c 1
 384 118 l 2
 413 81 452 41 511 37 c 1
 511 0 l 1
EndSplineSet
EndChar
StartChar: l
Encoding: 108 108 77
Width: 278
Flags: W
HStem: 0 38<8 29.3333 250.333 272>
VStem: 84 111<92 593>
Fore
272 0 m 1
 8 0 l 1
 8 38 l 1
 72 41 84 57 84 92 c 2
 84 571 l 2
 84 633 77 624 8 624 c 1
 8 660 l 1
 65 671 135 690 195 711 c 1
 195 92 l 2
 195 57 207 41 272 38 c 1
 272 0 l 1
EndSplineSet
EndChar
StartChar: m
Encoding: 109 109 78
Width: 777
Flags: W
HStem: 0 37<2 14.5 224.25 237 270 282.75 492.5 505 541 553.5 763.25 776> 404 78<276 316 538 574>
VStem: 65 109<92 335> 333 109<92 300> 604 109<92 321>
Fore
776 0 m 1
 541 0 l 1
 541 37 l 1
 591 41 604 57 604 92 c 2
 604 295 l 2
 604 381 593 404 538 404 c 0
 498 404 462 384 442 353 c 1
 442 92 l 2
 442 57 455 41 505 37 c 1
 505 0 l 1
 270 0 l 1
 270 37 l 1
 321 41 333 57 333 92 c 2
 333 300 l 1
 335 346 335 404 276 404 c 0
 240 404 194 386 174 355 c 1
 174 92 l 2
 174 57 186 41 237 37 c 1
 237 0 l 1
 2 0 l 1
 2 37 l 1
 52 41 65 57 65 92 c 2
 65 335 l 1
 68 379 55 389 2 389 c 1
 2 427 l 1
 174 488 l 1
 174 404 l 2
 174 384 177 424 189 433 c 0
 224 461 269 482 316 482 c 0
 366 482 406 452 425 409 c 1
 464 447 522 482 574 482 c 0
 702 482 713 375 713 280 c 2
 713 92 l 2
 713 57 725 41 776 37 c 1
 776 0 l 1
EndSplineSet
EndChar
StartChar: n
Encoding: 110 110 79
Width: 499
Flags: W
HStem: 0 37<-3 9.75 219.25 232 267 279.75 489.5 502> 404 78<266 310>
VStem: 60 109<92 353> 330 109<92 338>
Fore
502 0 m 1
 267 0 l 1
 267 37 l 1
 318 41 330 57 330 92 c 2
 330 307 l 2
 330 358 327 404 266 404 c 0
 223 404 192 378 169 353 c 1
 169 92 l 2
 169 57 181 41 232 37 c 1
 232 0 l 1
 -3 0 l 1
 -3 37 l 1
 48 41 60 57 60 92 c 2
 60 336 l 2
 60 399 54 399 -3 395 c 1
 -3 432 l 1
 169 487 l 1
 169 421 l 1
 204 453 247 482 310 482 c 0
 393 482 439 425 439 309 c 2
 439 92 l 2
 439 57 452 41 502 37 c 1
 502 0 l 1
EndSplineSet
EndChar
StartChar: o
Encoding: 111 111 80
Width: 499
Flags: W
HStem: -11 56<246 266> 427 55<225 248>
VStem: 18 117<230 284> 366 116<203 250>
Fore
482 250 m 0
 482 250 l 0
 482 114 392 -11 246 -11 c 0
 111 -11 18 103 18 230 c 0
 18 370 100 482 246 482 c 0
 386 482 482 389 482 250 c 0
366 203 m 0
 366 287 341 427 233 427 c 0
 166 427 135 364 135 284 c 0
 134 151 175 45 264 45 c 0
 336 45 366 124 366 203 c 0
EndSplineSet
EndChar
StartChar: p
Encoding: 112 112 81
Width: 499
Flags: W
HStem: -217 37<-9 2.6> -11 59<251 265> 402 80<258 306>
VStem: 63 109<-124 344> 372 110<215 255>
Fore
482 255 m 0
 482 255 l 0
 482 114 389 -11 253 -11 c 0
 224 -11 195 2 172 20 c 1
 172 -124 l 2
 172 -161 186 -175 255 -178 c 1
 255 -217 l 1
 -9 -217 l 1
 -9 -180 l 1
 49 -175 63 -161 63 -124 c 2
 63 339 l 2
 63 386 63 402 -9 395 c 1
 -9 432 l 1
 172 487 l 1
 172 429 l 1
 174 430 175 433 178 435 c 0
 207 462 243 482 306 482 c 0
 424 482 482 379 482 255 c 0
372 215 m 0
 372 290 355 402 258 402 c 0
 232 402 204 390 187 372 c 1
 172 358 172 355 172 336 c 2
 172 115 l 2
 172 91 183 80 204 66 c 0
 221 55 243 48 263 48 c 0
 329 48 372 123 372 215 c 0
EndSplineSet
EndChar
StartChar: q
Encoding: 113 113 82
Width: 499
Flags: W
HStem: -217 37<498 510> -11 86<194 233> 433 49<231 252>
VStem: 12 111<226 257> 327 109<-124 46 118 452>
Fore
510 -217 m 1
 244 -217 l 1
 244 -178 l 1
 313 -175 327 -161 327 -124 c 2
 327 46 l 1
 287 15 243 -11 194 -11 c 0
 55 -11 12 117 12 226 c 0
 12 361 106 482 250 482 c 0
 290 482 327 473 359 453 c 1
 401 479 l 1
 433 496 436 472 436 452 c 2
 436 -124 l 2
 436 -161 450 -175 510 -180 c 1
 510 -217 l 1
327 152 m 2
 327 335 l 2
 327 376 332 404 287 425 c 0
 270 432 263 433 244 433 c 0
 154 433 123 333 123 257 c 0
 123 154 160 75 233 75 c 0
 261 75 293 84 316 103 c 1
 332 118 327 131 327 152 c 2
EndSplineSet
EndChar
StartChar: r
Encoding: 114 114 83
Width: 333
Flags: W
HStem: 0 38<-8 12.6667 231.333 252> 396 86<226 278>
VStem: 68 109<92 337>
Fore
346 402 m 0
 341 373 319 361 293 361 c 0
 258 361 250 396 226 396 c 0
 209 396 177 355 177 330 c 2
 177 92 l 2
 177 57 190 41 252 38 c 1
 252 0 l 1
 -8 0 l 1
 -8 38 l 1
 54 41 68 57 68 92 c 2
 68 310 l 2
 68 390 58 404 -8 384 c 1
 -8 425 l 1
 177 488 l 1
 177 419 l 1
 201 452 238 482 278 482 c 0
 324 482 353 455 346 402 c 0
EndSplineSet
EndChar
StartChar: s
Encoding: 115 115 84
Width: 388
Flags: W
HStem: -11 49<181 202> 435 47<181 202>
VStem: 38 88<347 382> 266 93<97 137>
Fore
359 137 m 0
 359 43 287 -11 200 -11 c 0
 169 -11 152 -3 124 5 c 0
 80 18 78 12 75 -3 c 1
 38 -3 l 1
 38 178 l 1
 78 178 l 1
 91 101 121 38 198 38 c 0
 233 38 266 60 266 97 c 0
 266 203 38 206 38 347 c 0
 38 433 111 482 190 482 c 0
 215 482 233 478 267 464 c 0
 289 456 290 465 298 473 c 1
 327 473 l 1
 327 313 l 1
 290 313 l 1
 270 386 250 435 189 435 c 0
 157 435 126 415 126 382 c 0
 126 283 359 263 359 137 c 0
EndSplineSet
EndChar
StartChar: t
Encoding: 116 116 85
Width: 278
Flags: W
HStem: -11 21G<114 176> 416 56<169 267>
VStem: 58 111<132 416>
Fore
296 81 m 1
 250 22 201 -11 151 -11 c 0
 77 -11 57 32 58 141 c 1
 58 416 l 1
 41 416 l 2
 22 416 -9 418 6 450 c 1
 61 487 100 545 169 624 c 1
 169 472 l 1
 267 472 l 1
 267 416 l 1
 169 416 l 1
 169 158 l 2
 169 97 172 52 224 72 c 0
 238 78 247 89 266 111 c 1
 296 81 l 1
EndSplineSet
EndChar
StartChar: u
Encoding: 117 117 86
Width: 499
Flags: W
HStem: -11 83<189 232> 433 39<-3 21.0213 247 275.387>
VStem: 60 109<130 384> 319 110<162 472>
Fore
492 40 m 1
 442 25 390 6 326 -17 c 1
 326 58 l 1
 303 32 258 -11 189 -11 c 0
 101 -11 60 51 60 144 c 2
 60 373 l 2
 60 422 54 433 -3 433 c 1
 -3 472 l 1
 169 472 l 1
 169 149 l 2
 169 106 184 72 232 72 c 0
 257 72 283 86 303 101 c 0
 326 121 319 132 319 163 c 2
 319 372 l 2
 319 422 315 433 247 433 c 1
 247 472 l 1
 429 472 l 1
 429 132 l 2
 429 89 432 72 492 77 c 1
 492 40 l 1
EndSplineSet
EndChar
StartChar: v
Encoding: 118 118 87
Width: 499
Flags: W
HStem: -11 21G<244 252> 433 39<-2 11.7764 -2 218 316 478.937>
DStem: 63 387 184 375 220 25 270 164
Fore
479 433 m 1
 435 433 427 393 410 350 c 1
 276 25 l 1
 273 14 257 -11 247 -11 c 0
 241 -11 223 14 220 25 c 1
 63 387 l 2
 49 418 31 433 -2 433 c 1
 -2 472 l 1
 218 472 l 1
 218 433 l 1
 158 433 175 402 184 375 c 1
 270 164 l 1
 336 339 l 1
 361 407 378 433 316 433 c 1
 316 472 l 1
 479 472 l 1
 479 433 l 1
EndSplineSet
MinimumDistance: x6,9 
EndChar
StartChar: w
Encoding: 119 119 88
Width: 721
Flags: W
HStem: -11 21G<232 238 485 491.5> 433 39<9 22.4334 250 265.489 443 476 558 575.762>
DStem: 77 350 221 261 217 5 261 158 336 323 370 250 261 158 255 5 370 250 433 359 468 3 507 167
Fore
705 436 m 1
 674 425 665 393 657 378 c 1
 507 5 l 2
 504 -2 495 -11 488 -11 c 0
 482 -11 475 -2 468 3 c 1
 370 250 l 1
 255 5 l 2
 252 -2 241 -11 235 -11 c 0
 229 -11 220 -2 217 5 c 2
 77 350 l 2
 54 406 54 433 9 433 c 1
 9 472 l 1
 214 472 l 1
 214 432 l 1
 183 435 167 433 167 412 c 0
 167 387 212 287 221 261 c 1
 261 158 l 1
 336 323 l 1
 315 399 307 433 250 433 c 1
 250 472 l 1
 476 472 l 1
 476 433 l 1
 410 435 412 416 433 359 c 2
 507 167 l 1
 507 166 579 339 579 339 c 1
 605 407 619 433 558 433 c 1
 558 472 l 1
 705 472 l 1
 705 436 l 1
EndSplineSet
EndChar
StartChar: x
Encoding: 120 120 89
Width: 499
Flags: W
HStem: 0 38<5 19.2886 175 175 266 284.5 492 492> 433 39<12 244 264 294.26 264 445>
DStem: 189 244 221 186 86 97 160 91 221 186 284 281 313 54 401 103
Fore
492 0 m 1
 266 0 l 1
 266 38 l 1
 303 40 324 38 313 54 c 2
 221 186 l 1
 160 91 l 2
 132 48 126 38 175 38 c 1
 175 0 l 1
 5 0 l 1
 5 38 l 1
 49 38 63 63 86 97 c 2
 189 244 l 1
 108 369 l 2
 86 401 83 430 12 433 c 1
 12 472 l 1
 244 472 l 1
 244 433 l 1
 209 433 201 427 201 419 c 0
 201 409 232 362 249 335 c 1
 270 361 304 402 304 422 c 0
 304 435 286 433 264 433 c 1
 264 472 l 1
 445 472 l 1
 445 433 l 1
 401 433 373 409 355 384 c 1
 284 281 l 1
 401 103 l 2
 424 68 447 38 492 38 c 1
 492 0 l 1
EndSplineSet
MinimumDistance: x2,27 x9,6 
EndChar
StartChar: y
Encoding: 121 121 90
Width: 499
Flags: W
HStem: -217 125<83 103> 433 39<3 233 329 329 329 329 329 488>
DStem: 60 398 184 384 230 32 286 160
Fore
488 433 m 1
 459 433 442 402 435 384 c 2
 287 0 l 1
 258 -78 207 -217 103 -217 c 0
 72 -217 43 -204 26 -177 c 1
 18 -158 15 -141 25 -121 c 0
 34 -100 60 -92 83 -92 c 0
 100 -92 121 -103 146 -109 c 0
 170 -115 186 -91 220 -6 c 0
 224 6 233 23 230 32 c 1
 60 398 l 1
 51 419 38 430 3 435 c 1
 3 472 l 1
 233 472 l 1
 233 433 l 1
 170 433 170 416 184 384 c 2
 286 160 l 1
 373 409 l 2
 378 421 375 432 329 433 c 1
 329 472 l 1
 488 472 l 1
 488 433 l 1
EndSplineSet
EndChar
StartChar: z
Encoding: 122 122 91
Width: 443
Flags: W
HStem: 0 55<157 415> 416 56<45 269>
DStem: 270 416 415 442 12 29 157 55
Fore
432 158 m 1
 415 0 l 1
 12 0 l 1
 12 29 l 1
 270 416 l 1
 167 416 l 2
 92 416 88 389 81 330 c 1
 41 330 l 1
 45 472 l 1
 418 472 l 1
 415 442 l 1
 157 55 l 1
 260 55 l 2
 287 55 316 57 343 68 c 1
 378 77 379 124 392 167 c 1
 432 158 l 1
EndSplineSet
EndChar
StartChar: braceleft
Encoding: 123 123 92
Width: 479
Flags: W
VStem: 174 96<-37 157 379 573>
Fore
344 -140 m 1
 341 -164 l 1
 218 -167 174 -138 174 -5 c 2
 174 155 l 2
 174 214 166 241 63 269 c 1
 161 296 174 326 174 382 c 2
 174 556 l 2
 174 684 233 707 341 707 c 1
 344 682 l 1
 286 667 270 633 270 571 c 2
 270 396 l 2
 270 332 260 292 214 269 c 1
 261 244 270 200 270 134 c 2
 270 -31 l 2
 270 -91 287 -129 344 -140 c 1
EndSplineSet
EndChar
StartChar: bar
Encoding: 124 124 93
Width: 199
Flags: W
HStem: 0 21G<55 144>
VStem: 55 89<0 707>
Fore
144 0 m 1
 55 0 l 1
 55 707 l 1
 144 707 l 1
 144 0 l 1
EndSplineSet
EndChar
StartChar: braceright
Encoding: 125 125 94
Width: 479
Flags: W
VStem: 210 96<-37 157 379 573>
Fore
419 269 m 1
 315 241 306 214 306 155 c 2
 306 -5 l 2
 306 -138 261 -167 140 -164 c 1
 137 -140 l 1
 194 -129 210 -91 210 -31 c 2
 210 134 l 2
 210 198 218 244 266 269 c 1
 220 292 210 332 210 396 c 2
 210 571 l 2
 210 633 195 667 137 682 c 1
 140 707 l 1
 247 707 306 684 306 556 c 2
 306 382 l 2
 306 326 318 296 419 269 c 1
EndSplineSet
EndChar
StartChar: asciitilde
Encoding: 126 126 95
Width: 540
Flags: W
HStem: 198 158<160 174.768 160 383>
Fore
538 321 m 1
 502 257 450 198 381 198 c 0
 304 198 229 267 160 267 c 0
 109 267 86 220 57 169 c 1
 5 229 l 1
 40 292 84 356 160 356 c 0
 229 356 329 286 382 286 c 0
 422 286 458 330 485 381 c 1
 538 321 l 1
EndSplineSet
EndChar
StartChar: uni0E10.descless
Encoding: 128 63232 96
Width: 484
Flags: HW
HStem: -5 50<279 286> 166 44<134 139> 315 43<134 139>
VStem: 158 96<106 258> 304 97<74 338>
DStem: 17 445 86 478 298 370 358 407
Fore
422 558 m 0
 422 558 l 0
 355 376 134 627 82 478 c 1
 341 407 l 2
 356 402 402 395 402 335 c 2
 402 121 l 2
 402 49 361 -5 279 -5 c 0
 211 -5 158 54 158 121 c 1
 156 169 l 1
 148 167 142 166 134 166 c 0
 74 166 39 215 41 269 c 1
 46 319 79 358 134 358 c 0
 218 359 255 313 255 258 c 2
 255 75 l 2
 255 61 262 45 279 45 c 0
 298 45 304 61 304 74 c 2
 304 333 l 2
 304 358 296 367 284 370 c 2
 16 445 l 1
 31 493 68 601 180 598 c 0
 241 598 358 533 399 585 c 0
 410 601 438 599 422 558 c 0
134 210 m 0
 200 210 200 315 134 315 c 0
 66 315 66 210 134 210 c 0
EndSplineSet
KernsSLIF: 212 30 0 0 215 30 0 0 214 30 0 0 213 30 0 0
EndChar
StartChar: uni0E34.left
Encoding: 129 63233 97
Width: 0
Flags: HW
Fore
-222 636 m 0
 -222 636 l 0
 -399 716 -516 746 -668 713 c 1
 -604 977 -222 952 -222 636 c 0
-279 708 m 1
 -325 840 -497 894 -587 768 c 1
 -492 780 -378 760 -279 708 c 1
EndSplineSet
EndChar
StartChar: uni0E35.left
Encoding: 130 63234 98
Width: 0
Flags: HW
VStem: -339 93<849 948>
Fore
-222 636 m 0
 -222 636 l 0
 -399 716 -516 746 -668 713 c 1
 -627 882 -456 917 -339 849 c 1
 -339 948 l 1
 -246 948 l 5
 -246 751 l 1
 -236 739 -222 690 -222 636 c 0
-282 710 m 1
 -319 825 -504 876 -587 768 c 1
 -492 780 -381 762 -282 710 c 1
EndSplineSet
EndChar
StartChar: uni0E36.left
Encoding: 131 63235 99
Width: 0
Flags: HW
HStem: 914 38<-312 -300>
Fore
-222 636 m 0
 -222 636 l 0
 -399 716 -516 746 -668 713 c 1
 -631 863 -494 902 -397 872 c 1
 -399 906 -371 952 -312 952 c 0
 -200 952 -199 813 -270 791 c 1
 -238 768 -222 688 -222 636 c 0
-312 819 m 0
 -312 819 l 0
 -246 819 -246 914 -312 914 c 0
 -378 914 -378 819 -312 819 c 0
-282 710 m 1
 -319 825 -504 876 -587 768 c 1
 -492 780 -381 762 -282 710 c 1
EndSplineSet
EndChar
StartChar: uni0E37.left
Encoding: 132 63236 100
Width: 0
Flags: HW
VStem: -322 74<839 948>
Fore
-282 710 m 0
 -282 710 l 0
 -319 825 -504 876 -587 768 c 1
 -492 780 -381 762 -282 710 c 0
-246 743 m 1
 -235 733 -222 684 -222 636 c 1
 -399 716 -516 746 -668 713 c 1
 -639 831 -546 883 -454 882 c 1
 -453 948 l 1
 -383 948 l 1
 -382 869 l 1
 -369 866 -336 851 -322 839 c 1
 -320 948 l 1
 -248 948 l 5
 -246 743 l 1
EndSplineSet
EndChar
StartChar: ellipsis
Encoding: 133 8230 101
Width: 951
Flags: HW
HStem: -14 21G<141 176 458 494 775 811>
VStem: 93 133<57 67> 410 134<57 67> 728 133<57 67>
CounterMasks: 1 00
Fore
860 57 m 0
 860 57 l 0
 860 18 829 -14 793 -14 c 0
 757 -14 728 20 728 57 c 0
 728 92 759 126 793 126 c 0
 828 126 860 94 860 57 c 0
544 57 m 0
 544 57 l 0
 544 18 511 -14 476 -14 c 0
 440 -14 410 20 410 57 c 0
 410 92 441 126 476 126 c 0
 511 126 544 94 544 57 c 0
226 57 m 0
 226 18 195 -14 158 -14 c 0
 123 -14 93 20 93 57 c 0
 93 92 125 126 158 126 c 0
 194 126 226 94 226 57 c 0
EndSplineSet
EndChar
StartChar: uni0E48.low_left
Encoding: 134 63237 102
Width: 0
Flags: W
VStem: -350 93<688 926>
Fore
-257 926 m 1
 -257 688 l 1
 -350 688 l 5
 -350 926 l 1
 -257 926 l 1
EndSplineSet
EndChar
StartChar: uni0E49.low_left
Encoding: 135 63238 103
Width: 0
Flags: HW
HStem: 892 48<-540 -522>
Fore
-218 940 m 1
 -218 940 l 0
 -254 627 -544 665 -595 670 c 1
 -595 710 l 1
 -551 716 -533 736 -525 757 c 1
 -525 760 l 1
 -525 760 -533 757 -549 759 c 0
 -650 776 -649 940 -530 940 c 0
 -437 940 -437 851 -437 849 c 0
 -437 765 -479 725 -479 725 c 1
 -479 722 l 1
 -479 722 -311 737 -315 940 c 1
 -218 940 l 1
-530 800 m 0
 -472 800 -472 892 -530 892 c 0
 -588 892 -588 800 -530 800 c 0
EndSplineSet
EndChar
StartChar: uni0E4A.low_left
Encoding: 136 63239 104
Width: 0
Flags: HW
HStem: 677 31<-532 -521> 785 31<-532 -521>
Fore
-226 917 m 1
 -226 917 l 0
 -216 790 -293 677 -426 677 c 1
 -426 713 l 1
 -359 750 -377 851 -418 866 c 1
 -470 828 l 1
 -530 869 l 1
 -560 863 -573 822 -570 799 c 1
 -566 796 l 1
 -566 796 -555 816 -523 816 c 0
 -484 816 -456 790 -456 748 c 0
 -456 705 -484 677 -523 677 c 0
 -585 677 -621 734 -621 806 c 0
 -621 851 -585 919 -525 923 c 1
 -470 874 l 1
 -415 923 l 1
 -312 892 -317 794 -347 746 c 1
 -344 745 l 1
 -304 771 -277 833 -296 917 c 1
 -226 917 l 1
-525 708 m 0
 -475 708 -475 785 -525 785 c 0
 -573 785 -573 708 -525 708 c 0
EndSplineSet
EndChar
StartChar: uni0E4B.low_left
Encoding: 137 63240 105
Width: 0
Flags: HW
HStem: 773 75<-494 -404 -331 -241>
VStem: -404 72<691 773 849 931>
DStem: -424 849 -347 849 -518 848 -253 848
Fore
-241 774 m 1
 -331 773 l 1
 -333 691 l 1
 -402 691 l 1
 -404 773 l 1
 -494 774 l 1
 -494 848 l 1
 -404 849 l 1
 -405 931 l 1
 -330 931 l 1
 -331 849 l 1
 -241 848 l 1
 -241 774 l 1
EndSplineSet
MinimumDistance: x8,9 
EndChar
StartChar: uni0E4C.low_left
Encoding: 138 63241 106
Width: 0
Flags: HW
HStem: 679 43<-415 -407>
Fore
-227 954 m 1
 -227 954 l 0
 -252 857 -358 836 -381 829 c 1
 -381 826 l 1
 -358 825 -333 802 -333 760 c 0
 -333 714 -366 679 -415 679 c 0
 -467 679 -500 720 -500 766 c 0
 -500 806 -472 859 -385 876 c 0
 -341 885 -311 919 -301 975 c 1
 -227 954 l 1
-415 722 m 0
 -364 722 -364 805 -415 805 c 0
 -469 805 -469 722 -415 722 c 0
EndSplineSet
EndChar
StartChar: uni0E48.low
Encoding: 139 63242 107
Width: 0
Flags: W
VStem: -184 93<688 926>
AnchorPoint: "AboveBase" -89.3584 629.76 mark 0
Fore
-91 926 m 1
 -91 688 l 1
 -184 688 l 5
 -184 926 l 1
 -91 926 l 1
EndSplineSet
Substitution: 0 65534 'amni' uni0E4D
EndChar
StartChar: uni0E49.low
Encoding: 140 63243 108
Width: 0
Flags: HW
HStem: 925 53<-301 -282>
AnchorPoint: "AboveBase" -89.3584 629.76 mark 0
Fore
54 972 m 1
 54 972 l 0
 22 631 -317 673 -360 677 c 1
 -360 727 l 1
 -333 730 -298 742 -284 777 c 1
 -284 780 l 1
 -284 780 -296 777 -312 779 c 0
 -419 790 -423 978 -289 978 c 0
 -189 978 -188 880 -188 879 c 0
 -188 771 -240 736 -240 736 c 1
 -238 733 l 1
 -238 733 -39 763 -49 972 c 1
 54 972 l 1
-293 823 m 0
 -226 823 -226 925 -293 925 c 0
 -353 925 -353 823 -293 823 c 0
EndSplineSet
Substitution: 0 65534 'amni' uni0E4D
EndChar
StartChar: uni0E4A.low
Encoding: 141 63244 109
Width: 0
Flags: HW
HStem: 671 40<-337 -328> 794 39<-337 -328>
AnchorPoint: "AboveBase" -89.3584 629.76 mark 0
Fore
19 954 m 1
 19 954 l 0
 24 803 -65 671 -222 671 c 1
 -222 713 l 1
 -142 756 -162 877 -211 894 c 1
 -276 848 l 1
 -345 899 l 1
 -381 891 -397 842 -393 816 c 1
 -388 809 l 1
 -388 809 -375 833 -337 833 c 0
 -293 833 -259 803 -259 757 c 0
 -259 705 -290 671 -337 671 c 0
 -409 671 -451 737 -451 823 c 0
 -451 877 -409 955 -340 963 c 1
 -276 906 l 1
 -208 963 l 1
 -87 926 -91 808 -128 753 c 1
 -125 750 l 1
 -77 782 -46 856 -68 954 c 1
 19 954 l 1
-337 711 m 0
 -287 711 -287 794 -337 794 c 0
 -391 794 -391 711 -337 711 c 0
EndSplineSet
Substitution: 0 65534 'amni' uni0E4D
EndChar
StartChar: uni0E4B.low
Encoding: 142 63245 110
Width: 0
Flags: HW
HStem: 768 83<-278 -180 -91 5>
DStem: -190 852 -95 852 -292 851 5 851
AnchorPoint: "AboveBase" -89.3584 629.76 mark 0
Fore
5 770 m 1
 -93 768 l 1
 -93 677 l 1
 -178 677 l 1
 -180 768 l 1
 -278 770 l 1
 -278 851 l 1
 -181 852 l 1
 -183 942 l 1
 -90 942 l 1
 -91 852 l 1
 5 851 l 1
 5 770 l 1
EndSplineSet
MinimumDistance: x8,9 
Substitution: 0 65534 'amni' uni0E4D
EndChar
StartChar: uni0E4C.low
Encoding: 143 63246 111
Width: 0
Flags: HW
HStem: 671 48<-180 -167>
AnchorPoint: "AboveBase" -89.3584 629.76 mark 0
Fore
38 974 m 1
 38 974 l 0
 10 866 -106 843 -131 837 c 1
 -131 836 l 1
 -106 834 -77 806 -77 760 c 0
 -77 710 -114 671 -169 671 c 0
 -226 671 -260 717 -260 768 c 0
 -260 811 -230 865 -136 889 c 0
 -90 902 -52 935 -43 998 c 1
 38 974 l 1
-170 719 m 0
 -113 719 -113 809 -170 809 c 0
 -227 809 -227 719 -170 719 c 0
EndSplineSet
EndChar
StartChar: uni0E0D.descless
Encoding: 144 63247 112
Width: 762
Flags: HW
HStem: -8 49<506 522> 378 44<84 112 84 262> 576 20G<576 674>
VStem: 79 98<124 326> 361 98<115 401> 576 98<100 596>
Fore
674 596 m 1
 674 117 l 1
 674 117 l 0
 674 61 609 -8 517 -8 c 0
 428 -8 361 54 361 124 c 2
 361 401 l 2
 361 581 132 596 84 422 c 1
 263 422 l 1
 263 378 l 1
 241 378 216 378 216 378 c 2
 189 378 177 355 177 326 c 2
 177 183 l 1
 319 218 341 3 202 -5 c 0
 101 -9 79 80 79 124 c 2
 79 315 l 2
 79 336 93 373 112 378 c 1
 32 378 l 1
 41 654 446 680 460 401 c 1
 460 101 l 2
 460 68 484 41 517 41 c 0
 552 41 576 66 576 100 c 1
 576 596 l 1
 674 596 l 1
202 38 m 0
 270 38 270 143 202 143 c 0
 134 143 134 38 202 38 c 0
EndSplineSet
EndChar
StartChar: quoteleft
Encoding: 145 8216 113
Width: 317
Flags: HW
VStem: 85 51<559 588>
Fore
236 524 m 0
 236 479 208 452 167 452 c 0
 104 452 85 504 85 559 c 0
 85 637 150 713 207 731 c 1
 219 703 l 1
 170 680 136 622 136 588 c 0
 136 585 136 579 139 581 c 0
 151 587 155 588 173 588 c 0
 207 588 236 564 236 524 c 0
EndSplineSet
EndChar
StartChar: quoteright
Encoding: 146 8217 114
Width: 317
Flags: HW
VStem: 180 51<594 624>
Fore
232 624 m 0
 232 545 167 470 110 452 c 1
 96 479 l 1
 147 502 180 561 180 594 c 0
 180 598 180 604 177 602 c 0
 166 596 161 594 144 594 c 0
 110 594 80 619 80 659 c 0
 80 703 109 731 150 731 c 0
 213 731 232 679 232 624 c 0
EndSplineSet
EndChar
StartChar: quotedblleft
Encoding: 147 8220 115
Width: 451
Flags: HW
VStem: 33 51<559 588> 255 51<559 588>
Fore
405 524 m 0
 405 524 l 0
 405 479 378 452 337 452 c 0
 274 452 255 504 255 559 c 0
 255 637 319 713 377 731 c 1
 390 703 l 1
 340 680 306 622 306 588 c 0
 306 585 306 579 309 581 c 0
 320 587 325 588 342 588 c 0
 377 588 405 564 405 524 c 0
185 524 m 0
 185 479 156 452 115 452 c 0
 52 452 33 504 33 559 c 0
 33 637 98 713 155 731 c 1
 169 703 l 1
 118 680 85 622 85 588 c 0
 85 585 85 579 88 581 c 0
 99 587 104 588 121 588 c 0
 155 588 185 564 185 524 c 0
EndSplineSet
EndChar
StartChar: quotedblright
Encoding: 148 8221 116
Width: 451
Flags: HW
VStem: 142 51<591 621> 363 51<591 621>
Fore
415 621 m 0
 415 621 l 0
 415 542 350 467 293 449 c 1
 279 476 l 1
 330 499 363 558 363 591 c 0
 363 594 363 601 360 599 c 0
 349 593 344 591 327 591 c 0
 293 591 263 616 263 656 c 0
 263 700 292 728 333 728 c 0
 396 728 415 676 415 621 c 0
194 621 m 0
 194 542 129 467 72 449 c 1
 58 476 l 1
 109 499 142 558 142 591 c 0
 142 594 142 601 139 599 c 0
 128 593 123 591 106 591 c 0
 72 591 43 616 43 656 c 0
 43 700 71 728 112 728 c 0
 175 728 194 676 194 621 c 0
EndSplineSet
EndChar
StartChar: bullet
Encoding: 149 8226 117
Width: 367
Flags: HW
HStem: 442 20G<146 222>
Fore
319 319 m 0
 319 241 260 177 183 177 c 0
 110 177 49 241 49 319 c 0
 47 398 109 462 183 462 c 0
 260 462 319 398 319 319 c 0
EndSplineSet
EndChar
StartChar: endash
Encoding: 150 8211 118
Width: 732
Flags: HW
HStem: 201 72<21 711>
Fore
711 201 m 1
 21 201 l 1
 21 273 l 1
 711 273 l 1
 711 201 l 1
EndSplineSet
EndChar
StartChar: emdash
Encoding: 151 8212 119
Width: 1464
Flags: HW
HStem: 201 72<9 1456>
Fore
1456 201 m 1
 9 201 l 1
 9 273 l 1
 1456 273 l 1
 1456 201 l 1
EndSplineSet
EndChar
StartChar: uni0E31.left
Encoding: 152 63248 120
Width: 0
Flags: HW
HStem: 676 100<-383 -268> 880 49<-383 -377>
Fore
88 923 m 1
 88 923 l 0
 52 737 -128 676 -268 676 c 0
 -381 676 -484 736 -484 823 c 0
 -484 882 -440 929 -383 929 c 0
 -323 929 -282 885 -282 826 c 0
 -282 786 -303 754 -342 737 c 1
 -222 703 -49 745 -9 923 c 1
 88 923 l 1
-383 776 m 0
 -317 776 -317 880 -383 880 c 0
 -451 880 -451 776 -383 776 c 0
EndSplineSet
EndChar
StartChar: uni0E4D.left
Encoding: 153 63249 121
Width: 0
Flags: HW
HStem: 673 54<-332 -318> 831 57<-332 -318>
Fore
-320 673 m 0
 -320 673 l 0
 -459 673 -459 888 -320 888 c 0
 -185 888 -185 673 -320 673 c 0
-320 727 m 0
 -254 727 -254 831 -320 831 c 0
 -388 831 -388 727 -320 727 c 0
EndSplineSet
EndChar
StartChar: uni0E47.left
Encoding: 154 63250 122
Width: 0
Flags: HW
VStem: -378 38<741 753> -257 40<743 753>
Fore
-208 1008 m 1
 -208 1008 l 0
 -210 897 -284 872 -353 876 c 0
 -385 877 -445 886 -482 888 c 0
 -539 892 -568 825 -528 748 c 1
 -501 813 -423 777 -391 742 c 1
 -391 742 -378 733 -378 746 c 0
 -378 857 -216 860 -216 743 c 0
 -216 684 -263 656 -300 656 c 0
 -377 656 -421 733 -473 733 c 0
 -513 733 -508 687 -481 656 c 1
 -546 657 l 1
 -658 760 -621 955 -479 940 c 0
 -448 937 -390 931 -361 928 c 0
 -339 925 -286 928 -295 1008 c 1
 -208 1008 l 1
-257 743 m 0
 -257 802 -340 802 -340 743 c 0
 -340 685 -257 685 -257 743 c 0
EndSplineSet
EndChar
StartChar: uni0E48.left
Encoding: 155 63251 123
Width: 0
Flags: W
VStem: -325 93<1021 1227>
Fore
-232 1227 m 1
 -232 1021 l 1
 -325 1021 l 5
 -325 1227 l 1
 -232 1227 l 1
EndSplineSet
EndChar
StartChar: uni0E49.left
Encoding: 156 63252 124
Width: 0
Flags: HW
HStem: 1187 42<-335 -321>
Fore
-52 1229 m 1
 -52 1229 l 0
 -82 957 -341 991 -385 994 c 1
 -385 1029 l 1
 -347 1034 -333 1052 -323 1071 c 1
 -323 1074 l 1
 -323 1074 -333 1071 -345 1072 c 0
 -434 1086 -432 1229 -330 1229 c 0
 -248 1229 -248 1152 -248 1150 c 0
 -248 1077 -284 1043 -284 1043 c 1
 -284 1040 l 1
 -284 1040 -132 1054 -136 1229 c 1
 -52 1229 l 1
-331 1109 m 0
 -278 1109 -278 1187 -331 1187 c 0
 -381 1187 -381 1109 -331 1109 c 0
EndSplineSet
EndChar
StartChar: uni0E4A.left
Encoding: 157 63253 125
Width: 0
Flags: HW
HStem: 986 35<-353 -343> 1089 35<-353 -343>
Fore
-55 1226 m 1
 -55 1226 l 0
 -47 1098 -123 986 -257 986 c 1
 -257 1021 l 1
 -189 1058 -207 1160 -248 1175 c 1
 -300 1137 l 1
 -360 1178 l 1
 -390 1172 -402 1130 -400 1107 c 1
 -397 1104 l 1
 -397 1104 -385 1124 -353 1124 c 0
 -315 1124 -287 1098 -287 1057 c 0
 -287 1014 -314 986 -353 986 c 0
 -415 986 -451 1043 -451 1115 c 0
 -451 1160 -415 1227 -356 1232 c 1
 -300 1183 l 1
 -245 1232 l 1
 -142 1201 -147 1103 -177 1055 c 1
 -175 1054 l 1
 -134 1080 -107 1141 -126 1226 c 1
 -55 1226 l 1
-353 1021 m 0
 -309 1021 -309 1089 -353 1089 c 0
 -396 1089 -396 1021 -353 1021 c 0
EndSplineSet
EndChar
StartChar: uni0E4B.left
Encoding: 158 63254 126
Width: 0
Flags: HW
HStem: 1074 75<-409 -319 -246 -156>
VStem: -320 74<1150 1229>
DStem: -335 1150 -258 1150 -429 1149 -164 1149 -335 1074 -258 1074 -333 995 -260 995
Fore
-156 1075 m 1
 -246 1074 l 1
 -248 995 l 1
 -318 995 l 1
 -319 1074 l 1
 -409 1075 l 1
 -409 1149 l 1
 -319 1150 l 1
 -320 1229 l 1
 -245 1229 l 1
 -246 1150 l 1
 -156 1149 l 1
 -156 1075 l 1
EndSplineSet
MinimumDistance: x8,9 x5,0 
EndChar
StartChar: uni0E4C.left
Encoding: 159 63255 127
Width: 0
Flags: HW
HStem: 926 42<-295 -287>
Fore
-107 1201 m 1
 -107 1201 l 0
 -132 1104 -237 1086 -260 1080 c 1
 -260 1077 l 1
 -237 1075 -213 1049 -213 1008 c 0
 -213 962 -246 926 -295 926 c 0
 -347 926 -380 968 -380 1014 c 0
 -380 1054 -352 1106 -265 1123 c 0
 -221 1132 -191 1166 -181 1223 c 1
 -107 1201 l 1
-295 968 m 0
 -245 968 -245 1051 -295 1051 c 0
 -349 1051 -349 968 -295 968 c 0
EndSplineSet
EndChar
StartChar: uni0E01
Encoding: 161 3585 129
Width: 574
Flags: HW
HStem: 0 21G<79 178 391 487> 378 44<85 262>
VStem: 79 99<0 326> 391 96<0 404>
Fore
487 0 m 1
 391 0 l 1
 391 399 l 2
 391 582 132 593 85 422 c 1
 263 422 l 1
 263 378 l 1
 241 378 216 378 216 378 c 2
 191 378 178 355 178 326 c 2
 178 0 l 1
 79 0 l 1
 79 315 l 2
 79 336 93 373 112 378 c 1
 32 378 l 1
 41 651 472 682 487 404 c 1
 487 0 l 1
EndSplineSet
EndChar
StartChar: uni0E02
Encoding: 162 3586 130
Width: 557
Flags: HW
HStem: -8 46<342 344> 298 35<115 122> 432 35<115 122> 576 20G<374 472>
VStem: 214 98<103 457> 374 98<68 596>
Fore
472 596 m 1
 472 118 l 1
 472 118 l 0
 472 46 426 -8 342 -8 c 0
 267 -8 214 48 214 118 c 2
 214 472 l 2
 214 564 54 579 58 436 c 1
 73 461 95 467 115 467 c 0
 167 467 197 430 197 384 c 0
 197 339 169 298 115 298 c 0
 35 298 9 386 14 458 c 0
 21 535 72 598 162 598 c 0
 257 598 312 527 312 436 c 2
 312 69 l 2
 312 54 325 38 342 38 c 0
 359 38 374 54 374 68 c 1
 374 596 l 1
 472 596 l 1
115 333 m 0
 178 333 178 432 115 432 c 0
 52 432 52 333 115 333 c 0
EndSplineSet
EndChar
StartChar: uni0E03
Encoding: 163 3587 131
Width: 607
Flags: HW
HStem: -8 46<383 397> 255 37<125 127> 576 20G<422 520>
VStem: 260 100<103 473> 422 98<68 596>
DStem: 112 536 117 599 186 459 186 525
Fore
520 596 m 1
 520 118 l 1
 520 118 l 0
 520 46 475 -8 391 -8 c 0
 315 -8 260 51 260 118 c 2
 260 485 l 2
 260 505 255 521 238 525 c 1
 177 459 l 1
 107 536 l 1
 77 515 52 476 62 395 c 1
 77 421 107 427 125 427 c 0
 238 424 237 255 125 255 c 0
 38 255 16 346 14 427 c 0
 13 478 33 559 112 599 c 1
 177 525 l 1
 245 599 l 1
 337 588 360 521 360 455 c 2
 360 69 l 2
 360 54 371 38 391 38 c 0
 410 38 422 54 422 68 c 1
 422 596 l 5
 520 596 l 1
125 292 m 0
 188 292 188 390 125 390 c 0
 62 390 62 292 125 292 c 0
EndSplineSet
EndChar
StartChar: uni0E04
Encoding: 164 3588 132
Width: 561
Flags: HW
HStem: 0 21G<85 183 381 478> 249 44<248 254> 319 21G<109 112> 398 46<237 254> 547 52<221 254>
VStem: 24 47<401 418> 85 -14<233 401> 85 98<0 235> 381 97<0 406>
Fore
478 0 m 1
 381 0 l 1
 381 389 l 2
 381 484 334 547 237 547 c 0
 134 547 71 482 71 401 c 0
 71 361 96 333 109 319 c 1
 112 319 l 1
 129 387 159 444 246 444 c 0
 374 444 377 249 248 249 c 0
 224 249 202 258 191 267 c 1
 185 257 183 233 183 206 c 2
 183 0 l 1
 85 0 l 1
 85 233 l 2
 85 275 24 304 24 401 c 0
 24 525 117 599 236 599 c 4
 368 599 478 550 478 404 c 2
 478 0 l 1
248 293 m 0
 315 293 315 398 248 398 c 0
 180 398 180 293 248 293 c 0
EndSplineSet
EndChar
StartChar: uni0E05
Encoding: 165 3589 133
Width: 563
Flags: HW
HStem: 0 21G<85 183 380 476> 218 45<243 254> 367 46<243 254>
VStem: 24 47<401 417> 85 -14<229 401> 85 98<0 193> 380 96<0 415>
DStem: 169 535 174 598 257 459 257 521 341 596 346 535 257 521 257 459
Fore
476 0 m 1
 380 0 l 1
 380 387 l 2
 380 444 382 504 330 535 c 1
 245 459 l 1
 161 535 l 1
 129 527 71 475 71 401 c 0
 71 362 91 327 117 295 c 1
 120 295 l 1
 136 346 162 413 246 413 c 0
 374 413 377 218 248 218 c 0
 224 218 205 223 191 237 c 1
 185 226 183 197 183 186 c 2
 183 0 l 1
 85 0 l 1
 85 229 l 2
 85 264 24 304 24 401 c 0
 24 525 107 576 166 598 c 1
 245 521 l 1
 325 596 l 1
 383 581 476 548 476 387 c 2
 476 0 l 1
249 263 m 0
 317 263 317 367 249 367 c 0
 181 367 181 263 249 263 c 0
EndSplineSet
EndChar
StartChar: uni0E06
Encoding: 166 3590 134
Width: 721
Flags: HW
HStem: -8 66<249 270> 255 37<125 127> 576 20G<535 631>
VStem: 260 101<80 163 222 473> 535 96<120 596>
DStem: 112 536 117 599 186 459 186 525
Fore
631 596 m 1
 631 0 l 0
 549 0 l 0
 489 120 396 152 361 163 c 1
 363 77 359 -8 270 -8 c 0
 126 -8 132 210 260 223 c 1
 260 485 l 2
 260 505 255 521 238 525 c 1
 177 459 l 1
 107 536 l 1
 77 515 52 476 62 395 c 1
 77 421 107 427 125 427 c 0
 238 424 237 255 125 255 c 0
 38 255 16 346 14 427 c 0
 13 478 33 559 112 599 c 1
 177 525 l 1
 245 599 l 1
 337 588 360 521 360 455 c 2
 360 214 l 1
 390 206 473 183 535 120 c 1
 535 596 l 5
 631 596 l 1
260 80 m 0
 260 174 l 0
 199 166 191 58 249 58 c 0
 257 58 260 66 260 80 c 0
125 292 m 0
 188 292 188 390 125 390 c 0
 62 390 62 292 125 292 c 0
EndSplineSet
EndChar
StartChar: uni0E07
Encoding: 167 3591 135
Width: 456
Flags: HW
HStem: 0 21G<277 372> 395 46<231 252> 545 49<239 252>
VStem: 273 99<117 399>
Fore
372 0 m 1
 277 0 l 1
 33 296 l 1
 35 353 l 1
 273 117 l 1
 273 399 l 1
 263 396 254 395 245 395 c 0
 120 395 113 594 252 594 c 4
 381 594 372 490 372 476 c 0
 372 475 372 0 372 0 c 1
241 441 m 0
 309 441 309 545 241 545 c 0
 175 545 175 441 241 441 c 0
EndSplineSet
EndChar
StartChar: uni0E08
Encoding: 168 3592 136
Width: 538
Flags: HW
HStem: -5 50<322 328> 237 44<158 177> 386 46<167 177>
VStem: 194 98<106 327> 353 100<74 432>
Fore
453 121 m 1
 453 121 l 0
 453 49 405 -5 322 -5 c 0
 254 -5 194 54 194 121 c 2
 194 240 l 1
 186 238 178 237 170 237 c 0
 110 237 72 286 76 343 c 0
 80 393 117 432 175 432 c 0
 263 432 292 381 292 327 c 2
 292 75 l 2
 292 60 303 45 322 45 c 0
 342 45 353 60 353 74 c 2
 353 415 l 2
 353 576 126 582 58 430 c 1
 22 450 l 1
 125 682 453 617 453 413 c 2
 453 121 l 1
169 281 m 0
 236 281 236 386 169 386 c 0
 101 386 101 281 169 281 c 0
EndSplineSet
EndChar
StartChar: uni0E09
Encoding: 169 3593 137
Width: 586
Flags: HW
HStem: -8 43<443 448> 195 45<124 141> 344 46<124 141>
VStem: 156 97<0 197> 400 98<183 432>
Fore
498 226 m 0
 498 226 l 0
 498 194 484 184 484 184 c 1
 484 181 l 1
 570 155 566 -8 445 -8 c 0
 374 -8 336 65 360 120 c 1
 281 92 240 20 236 0 c 1
 156 0 l 1
 156 198 l 1
 150 197 140 195 132 195 c 0
 72 195 36 247 39 300 c 0
 43 350 79 390 137 390 c 0
 226 390 254 339 254 286 c 2
 254 286 254 198 254 154 c 0
 254 131 249 109 249 109 c 1
 267 131 314 175 400 183 c 1
 400 421 l 2
 400 571 147 590 71 430 c 1
 33 450 l 1
 128 673 498 633 498 412 c 2
 498 412 498 227 498 226 c 0
131 240 m 0
 131 240 l 0
 197 240 197 344 131 344 c 0
 63 344 63 240 131 240 c 0
446 35 m 0
 514 35 514 140 446 140 c 0
 380 140 380 35 446 35 c 0
EndSplineSet
EndChar
StartChar: uni0E0A
Encoding: 170 3594 138
Width: 556
Flags: HW
HStem: 0 45<150 352> 298 35<115 122> 366 20G<349 349> 432 35<115 122>
VStem: 214 97<45 463>
Fore
527 594 m 1
 527 594 l 0
 513 476 451 435 390 418 c 1
 525 412 546 0 352 0 c 2
 150 0 l 1
 150 45 l 1
 214 45 l 1
 214 470 l 2
 214 562 54 579 58 436 c 1
 73 461 95 467 115 467 c 0
 167 467 197 430 197 384 c 0
 197 339 169 298 115 298 c 0
 35 298 9 386 14 458 c 0
 21 535 72 598 162 598 c 0
 257 598 312 524 312 445 c 1
 383 449 418 531 419 594 c 1
 527 594 l 1
349 386 m 0
 349 386 l 0
 339 392 320 393 311 393 c 1
 311 45 l 1
 339 45 l 2
 415 45 415 338 349 386 c 0
115 333 m 0
 178 333 178 432 115 432 c 0
 52 432 52 333 115 333 c 0
EndSplineSet
EndChar
StartChar: uni0E0B
Encoding: 171 3595 139
Width: 618
Flags: HW
HStem: 0 45<200 402> 255 37<125 127> 366 20G<399 399>
VStem: 260 100<45 393 45 465>
DStem: 112 536 117 599 186 459 186 525
Fore
577 594 m 1
 577 594 l 0
 563 476 501 435 440 418 c 1
 576 412 596 0 402 0 c 2
 200 0 l 1
 200 45 l 1
 260 45 l 1
 260 485 l 2
 260 505 255 521 238 525 c 1
 177 459 l 1
 107 536 l 1
 77 515 52 476 62 395 c 1
 77 421 107 427 125 427 c 0
 238 424 237 255 125 255 c 0
 38 255 16 346 14 427 c 0
 13 478 33 559 112 599 c 1
 177 525 l 1
 245 599 l 1
 337 588 360 521 360 455 c 2
 360 450 l 1
 437 453 467 531 469 594 c 1
 577 594 l 1
399 386 m 0
 399 386 l 0
 388 392 371 393 360 393 c 1
 360 45 l 1
 388 45 l 2
 464 45 464 338 399 386 c 0
125 292 m 0
 188 292 188 390 125 390 c 0
 62 390 62 292 125 292 c 0
EndSplineSet
EndChar
StartChar: uni0E0C
Encoding: 172 3596 140
Width: 762
Flags: HW
HStem: -6 43<175 187> 378 44<85 262> 576 20G<592 689>
VStem: 79 98<183 326> 393 94<71 135 189 402> 590 98<132 596>
Fore
393 71 m 0
 393 144 l 0
 355 141 339 84 363 58 c 0
 372 49 393 51 393 71 c 0
689 596 m 5
 689 0 l 1
 609 0 l 1
 605 78 530 129 487 135 c 1
 487 52 481 -8 399 -8 c 0
 274 -8 278 183 391 190 c 1
 391 404 l 2
 391 579 131 594 85 422 c 1
 263 422 l 1
 263 378 l 1
 241 378 216 378 216 378 c 2
 189 378 177 355 177 326 c 2
 177 326 177 229 177 183 c 0
 177 183 l 0
 300 194 314 -6 185 -6 c 0
 95 -6 79 77 79 121 c 2
 79 315 l 2
 79 336 93 373 112 378 c 1
 32 378 l 1
 41 653 473 682 487 402 c 1
 487 184 l 1
 505 180 560 167 590 132 c 1
 592 596 l 1
 689 596 l 5
181 37 m 0
 249 37 249 141 181 141 c 0
 114 141 114 37 181 37 c 0
EndSplineSet
EndChar
StartChar: uni0E0D
Encoding: 173 3597 141
Width: 762
Flags: HW
HStem: -8 49<517 525> 378 44<84 112 84 262> 576 20G<576 674>
VStem: 79 98<124 326> 361 98<115 401> 364 43<-116 -104> 494 29<-116 -104> 576 98<100 596> 583 92<-121 -43>
Fore
674 596 m 1xfb
 674 117 l 1
 674 117 l 0
 674 61 609 -8 517 -8 c 0
 428 -8 361 54 361 124 c 2
 361 401 l 2
 361 581 132 596 84 422 c 1
 263 422 l 1
 263 378 l 1
 241 378 216 378 216 378 c 2
 189 378 177 355 177 326 c 2
 177 183 l 1
 319 218 341 3 202 -5 c 0
 101 -9 79 80 79 124 c 2
 79 315 l 2
 79 336 93 373 112 378 c 1
 32 378 l 1
 41 654 446 680 460 401 c 1
 460 101 l 2
 460 68 484 41 517 41 c 0
 552 41 576 66 576 100 c 1
 576 596 l 5
 674 596 l 1xfb
674 -109 m 1xf680
 674 -109 l 0
 674 -283 364 -303 364 -112 c 0
 364 -83 385 -31 448 -31 c 0
 500 -31 523 -69 523 -111 c 0
 523 -147 492 -183 453 -177 c 1
 453 -181 l 1
 505 -220 583 -183 583 -114 c 2
 583 -43 l 1
 674 -43 l 1
 674 -109 l 1xf680
494 -106 m 0
 494 -106 l 0
 494 -48 407 -48 407 -106 c 0
 407 -167 494 -167 494 -106 c 0
202 38 m 0
 270 38 270 143 202 143 c 0
 134 143 134 38 202 38 c 0
EndSplineSet
Substitution: 0 65534 'nds0' uni0E0D.descless
Substitution: 0 65534 'ndsc' uni0E0D.descless
EndChar
StartChar: uni0E0E
Encoding: 174 3598 142
Width: 583
Flags: HW
HStem: -5 43<95 99> 378 44<98 123 98 277>
VStem: 71 50<-137 -124> 91 97<186 318> 400 98<-102 407>
AnchorPoint: "BelowBase" 495.131 -241.152 basechar 0
Fore
498 -241 m 5xd8
 418 -241 l 0
 391 -183 340 -146 287 -118 c 1
 251 -260 71 -252 71 -132 c 0xe8
 71 -61 148 -15 259 -51 c 1
 278 -5 299 6 312 15 c 1
 359 -9 l 1
 336 -22 318 -41 306 -71 c 1
 336 -80 380 -104 402 -127 c 1
 402 -127 400 -101 400 -77 c 2
 400 413 l 2
 400 581 139 590 98 422 c 1
 277 422 l 1
 277 378 l 1
 227 378 l 2
 200 378 188 346 188 318 c 2
 188 92 l 2
 188 29 147 -5 95 -5 c 0
 -25 -5 -27 183 91 187 c 1
 91 304 l 2
 91 329 104 373 123 378 c 1
 46 378 l 1
 54 651 482 682 498 407 c 1
 498 -241 l 5xd8
241 -100 m 1
 241 -100 l 0
 178 -81 120 -86 120 -135 c 0
 120 -183 213 -194 238 -109 c 2
 241 -100 l 1
95 38 m 0
 162 38 162 143 95 143 c 0
 28 143 28 38 95 38 c 0
EndSplineSet
EndChar
StartChar: uni0E0F
Encoding: 175 3599 143
Width: 583
Flags: HW
HStem: -8 45<95 99> 378 44<98 123 98 277>
VStem: -27 48<-157 -145> 90 98<186 318> 400 98<-123 407>
AnchorPoint: "BelowBase" 495.131 -241.152 basechar 0
Fore
498 -240 m 5
 419 -240 l 0
 391 -140 298 -121 257 -240 c 1
 216 -240 l 1
 210 -207 188 -172 169 -154 c 1
 136 -281 -27 -257 -27 -151 c 0
 -27 -54 71 -25 148 -74 c 1
 159 -45 186 -20 224 -5 c 1
 257 -43 l 1
 229 -51 197 -75 188 -104 c 1
 208 -115 229 -147 238 -169 c 1
 267 -103 342 -78 400 -123 c 1
 400 413 l 2
 400 581 139 590 98 422 c 1
 277 422 l 1
 277 378 l 1
 227 378 l 2
 200 378 188 346 188 318 c 2
 188 92 l 2
 188 29 147 -8 95 -8 c 0
 -25 -8 -30 183 90 187 c 1
 90 304 l 2
 90 329 104 373 123 378 c 1
 46 378 l 1
 54 651 482 682 498 407 c 1
 498 -240 l 5
129 -120 m 0
 129 -120 l 0
 69 -77 21 -109 21 -147 c 0
 21 -200 110 -215 129 -120 c 0
95 37 m 0
 162 37 162 141 95 141 c 0
 28 141 28 37 95 37 c 0
EndSplineSet
EndChar
StartChar: uni0E10
Encoding: 176 3600 144
Width: 484
Flags: HW
HStem: -289 48<210 339> -243 42<71 89> -74 40<284 306> -5 50<279 286> 166 44<134 143> 315 43<134 143>
VStem: 158 96<94 258> 164 47<-289 -201> 304 97<74 337>
DStem: 17 445 86 478 298 370 358 407
Fore
422 558 m 0x3e80
 422 558 l 0
 355 376 134 627 82 478 c 1
 341 407 l 2
 356 402 402 395 402 335 c 2
 402 106 l 2
 402 34 361 -5 279 -5 c 0
 211 -5 158 38 158 106 c 2
 158 169 l 1
 150 167 142 166 134 166 c 0
 74 166 39 215 41 269 c 1
 46 319 79 358 134 358 c 0
 218 359 255 313 255 258 c 2
 255 75 l 2
 255 61 262 45 279 45 c 0
 298 45 304 61 304 74 c 2
 304 333 l 2
 304 358 296 367 284 370 c 2
 16 445 l 1
 31 493 68 601 180 598 c 0
 241 598 358 533 399 585 c 0
 410 601 438 599 422 558 c 0x3e80
400 -218 m 1
 400 -218 l 0
 400 -249 387 -289 339 -289 c 2
 164 -289 l 1xbd80
 164 -226 l 2
 164 -203 166 -178 156 -166 c 1
 155 -210 128 -243 80 -243 c 0x7d80
 44 -243 17 -223 8 -183 c 0
 -6 -132 39 -63 114 -84 c 1
 115 -71 117 -58 126 -46 c 1
 172 -52 l 1
 159 -66 155 -88 156 -106 c 1
 216 -134 211 -217 211 -241 c 1
 299 -241 l 2xbd80
 315 -241 315 -214 314 -197 c 1
 306 -200 l 2
 300 -203 292 -203 279 -201 c 0x7d80
 183 -192 188 -34 293 -34 c 0
 359 -34 393 -68 400 -129 c 1
 400 -218 l 1
296 -166 m 0
 296 -166 l 0
 352 -166 352 -74 296 -74 c 0
 235 -74 235 -166 296 -166 c 0
115 -124 m 0
 115 -124 l 0
 90 -117 46 -124 46 -163 c 0
 46 -183 57 -201 80 -201 c 0x7c80
 110 -201 125 -160 115 -124 c 0
134 210 m 0
 200 210 200 315 134 315 c 0
 66 315 66 210 134 210 c 0
EndSplineSet
KernsSLIF: 212 30 1 0 215 30 1 0 214 30 1 0 213 30 1 0
Substitution: 0 65534 'nds0' uni0E10.descless
Substitution: 0 65534 'ndsc' uni0E10.descless
EndChar
StartChar: uni0E11
Encoding: 177 3601 145
Width: 743
Flags: HW
HStem: 0 21G<262 359 556 654> 255 37<125 127>
VStem: 262 96<0 225 0 476> 556 98<0 484>
DStem: 112 536 117 599 186 459 186 525 468 490 513 470 376 347 415 308
Fore
359 455 m 6
 359 347 l 1
 446 490 l 2
 534 634 654 619 654 482 c 2
 654 0 l 1
 556 0 l 1
 556 473 l 2
 556 513 521 525 489 470 c 2
 396 308 l 18
 381 282 359 246 359 216 c 2
 359 0 l 1
 262 0 l 1
 262 485 l 2
 262 505 255 521 238 525 c 1
 177 459 l 1
 107 536 l 1
 77 515 52 476 62 395 c 1
 77 421 107 427 125 427 c 0
 238 424 237 255 125 255 c 0
 38 255 16 346 14 427 c 0
 13 478 33 559 112 599 c 1
 177 525 l 1
 245 599 l 1
 337 588 359 521 359 455 c 6
125 292 m 0
 188 292 188 390 125 390 c 0
 62 390 62 292 125 292 c 0
EndSplineSet
EndChar
StartChar: uni0E12
Encoding: 178 3602 146
Width: 761
Flags: HW
HStem: 0 21G<85 183 598 677> 235 40<237 245> 379 43<237 254> 576 20G<580 677>
VStem: 24 48<384 409> 85 -13<109 402> 380 96<68 135 189 422> 579 98<132 596>
DStem: 169 535 174 598 257 459 257 521 343 598 346 535 257 521 257 459
Fore
677 596 m 1
 677 0 l 1
 598 0 l 0
 593 78 519 129 476 135 c 1
 476 52 469 -8 387 -8 c 0
 262 -8 267 183 380 190 c 1
 380 401 l 2
 380 482 366 511 330 535 c 1
 245 459 l 1
 161 535 l 1
 128 524 72 476 72 402 c 0
 72 300 151 227 164 164 c 1
 194 214 249 235 238 235 c 0
 183 235 154 281 154 330 c 0
 154 344 162 422 243 422 c 0
 322 422 366 347 323 263 c 0
 287 189 192 146 183 65 c 1
 183 0 l 1
 85 0 l 1
 85 109 l 2
 85 158 24 261 24 384 c 0
 24 535 118 581 166 598 c 1
 245 521 l 1
 327 598 l 1
 388 581 476 539 476 396 c 2
 476 184 l 1
 494 180 547 167 579 132 c 1
 580 596 l 5
 677 596 l 1
380 68 m 0
 380 146 l 0
 340 143 322 83 349 55 c 0
 359 45 380 46 380 68 c 0
245 275 m 0
 312 275 312 379 245 379 c 0
 177 379 177 275 245 275 c 0
EndSplineSet
EndChar
StartChar: uni0E13
Encoding: 179 3603 147
Width: 762
Flags: HW
HStem: -9 43<615 628> 378 44<84 112 84 262> 576 20G<577 674>
VStem: 79 98<124 326> 361 98<0 401> 576 98<183 596>
Fore
674 596 m 1
 674 203 l 0
 674 203 l 0
 674 194 668 175 662 169 c 1
 743 140 734 -9 626 -9 c 0
 579 -9 546 17 538 61 c 0
 533 83 535 111 551 131 c 1
 489 101 463 23 457 0 c 1
 361 0 l 1
 361 401 l 2
 361 581 132 596 84 422 c 1
 263 422 l 1
 263 378 l 1
 241 378 216 378 216 378 c 2
 189 378 177 355 177 326 c 2
 177 183 l 1
 319 218 341 2 202 -6 c 0
 101 -11 79 80 79 124 c 2
 79 315 l 2
 79 336 93 373 112 378 c 1
 32 378 l 1
 41 654 446 680 460 401 c 1
 460 126 l 1
 481 147 520 184 576 183 c 1
 577 596 l 1
 674 596 l 1
626 34 m 0
 626 34 l 0
 689 34 689 132 626 132 c 0
 563 132 563 34 626 34 c 0
202 38 m 0
 270 38 270 143 202 143 c 0
 134 143 134 38 202 38 c 0
EndSplineSet
KernsSLIF: 212 -14 1 0 215 -14 1 0 214 -14 1 0 213 -14 1 0
EndChar
StartChar: uni0E14
Encoding: 180 3604 148
Width: 579
Flags: HW
HStem: 0 21G<96 194 399 495> 263 40<249 259> 407 43<249 267> 548 50<265 281>
VStem: 36 49<384 409> 96 -11<94 399> 399 96<0 417>
Fore
495 0 m 1
 399 0 l 1
 399 412 l 2
 399 470 363 548 265 548 c 0
 150 548 85 487 85 399 c 0
 85 323 150 240 175 163 c 1
 204 212 263 263 254 263 c 0
 197 263 167 309 167 358 c 0
 167 372 177 450 257 450 c 0
 337 450 380 375 337 290 c 0
 300 217 196 115 194 65 c 1
 194 0 l 1
 96 0 l 1
 96 94 l 2
 96 177 36 270 36 384 c 0
 36 574 192 598 265 598 c 0
 381 598 495 545 495 412 c 2
 495 0 l 1
259 303 m 0
 327 303 327 407 259 407 c 0
 192 407 192 303 259 303 c 0
EndSplineSet
EndChar
StartChar: uni0E15
Encoding: 181 3605 149
Width: 582
Flags: HW
HStem: 0 21G<98 196 399 495> 235 40<249 257> 379 43<249 266>
VStem: 36 49<384 404> 399 96<0 422>
DStem: 183 535 187 598 270 459 270 521 362 598 366 535 270 521 270 459
Fore
495 0 m 1
 399 0 l 1
 399 401 l 2
 399 482 385 511 349 535 c 1
 257 459 l 1
 175 535 l 1
 140 524 85 476 85 402 c 0
 85 315 166 224 178 161 c 1
 208 210 262 235 252 235 c 0
 196 235 167 281 167 330 c 0
 167 344 175 422 257 422 c 0
 336 422 380 347 337 263 c 0
 300 189 205 146 196 65 c 1
 196 0 l 1
 98 0 l 1
 98 94 l 2
 98 192 36 255 36 384 c 0
 36 535 132 581 178 598 c 1
 257 521 l 1
 345 598 l 1
 407 581 495 539 495 396 c 2
 495 0 l 1
257 275 m 0
 325 275 325 379 257 379 c 0
 191 379 191 275 257 275 c 0
EndSplineSet
EndChar
StartChar: uni0E16
Encoding: 182 3606 150
Width: 574
Flags: HW
HStem: 0 21G<391 487> 378 44<85 262>
VStem: 79 98<121 326> 391 96<0 402>
Fore
487 0 m 1
 391 0 l 1
 391 404 l 2
 391 579 131 594 85 422 c 1
 263 422 l 1
 263 378 l 1
 241 378 216 378 216 378 c 2
 189 378 177 355 177 326 c 2
 177 326 177 229 177 183 c 1
 308 212 333 2 199 -6 c 0
 98 -12 79 77 79 121 c 2
 79 315 l 2
 79 336 93 373 112 378 c 1
 32 378 l 1
 41 653 473 682 487 402 c 1
 487 0 l 1
196 37 m 0
 263 37 263 141 196 141 c 0
 129 141 129 37 196 37 c 0
EndSplineSet
EndChar
StartChar: uni0E17
Encoding: 183 3607 151
Width: 624
Flags: HW
HStem: 0 21G<147 243 441 539> 393 48<111 127> 545 51<111 127>
VStem: 147 96<0 225 0 479> 441 98<0 484>
DStem: 347 490 392 470 255 347 294 308
Fore
374 470 m 6
 280 308 l 22
 265 282 243 246 243 216 c 6
 243 0 l 5
 147 0 l 1
 147 399 l 1
 136 395 129 393 118 393 c 0
 -10 393 -16 596 125 596 c 0
 252 596 243 492 243 479 c 2
 243 347 l 5
 331 490 l 6
 419 634 539 619 539 482 c 6
 539 0 l 5
 441 0 l 5
 441 473 l 6
 441 513 406 525 374 470 c 6
117 441 m 0
 185 441 185 545 117 545 c 0
 50 545 50 441 117 441 c 0
EndSplineSet
EndChar
StartChar: uni0E18
Encoding: 184 3608 152
Width: 484
Flags: HW
HStem: 0 45<38 292>
VStem: 80 98<45 364> 303 96<99 337>
DStem: 15 445 84 478 296 370 356 407
Fore
421 558 m 0
 353 376 134 627 80 478 c 1
 340 407 l 2
 355 402 400 395 400 335 c 2
 400 120 l 2
 400 38 360 0 292 0 c 2
 38 0 l 1
 38 45 l 1
 80 45 l 1
 80 364 l 1
 178 364 l 1
 178 45 l 1
 238 45 l 2
 281 45 303 61 303 101 c 2
 303 333 l 2
 303 358 295 367 282 370 c 2
 14 445 l 1
 30 493 66 601 178 598 c 0
 240 598 356 533 397 585 c 0
 409 601 437 599 421 558 c 0
EndSplineSet
EndChar
StartChar: uni0E19
Encoding: 185 3609 153
Width: 632
Flags: HW
HStem: -8 46<481 483> 393 49<111 125> 547 51<111 125>
VStem: 147 96<0 395> 435 98<186 596>
Fore
533 596 m 1
 533 214 l 0
 533 214 l 0
 533 206 525 189 519 183 c 1
 607 149 593 -8 481 -8 c 0
 397 -8 366 80 399 132 c 1
 293 124 235 34 224 0 c 1
 147 0 l 1
 147 396 l 1
 136 393 128 393 117 393 c 0
 -10 390 -16 598 123 598 c 0
 252 598 243 493 243 481 c 0
 243 479 243 264 243 147 c 0
 243 135 241 123 240 111 c 1
 279 152 328 184 435 186 c 1
 435 596 l 1
 533 596 l 1
481 38 m 0
 481 38 l 0
 544 38 544 137 481 137 c 0
 418 137 418 38 481 38 c 0
115 442 m 0
 183 442 183 547 115 547 c 0
 49 547 49 442 115 442 c 0
EndSplineSet
KernsSLIF: 212 -44 1 0 215 -44 1 0 214 -44 1 0 213 -44 1 0
EndChar
StartChar: uni0E1A
Encoding: 186 3610 154
Width: 618
Flags: HW
HStem: 0 45<93 421> 393 49<110 127> 547 51<110 127>
VStem: 147 96<45 396> 434 98<106 596>
Fore
532 596 m 1
 532 120 l 0
 532 120 l 0
 535 74 506 0 421 0 c 2
 93 0 l 1
 93 45 l 1
 147 45 l 1
 147 396 l 1
 136 395 126 393 118 393 c 0
 -13 393 -14 598 125 598 c 0
 252 598 243 492 243 479 c 0
 243 478 243 117 243 45 c 1
 381 45 l 2
 407 45 437 63 434 106 c 1
 435 596 l 1
 532 596 l 1
115 442 m 0
 183 442 183 547 115 547 c 0
 49 547 49 442 115 442 c 0
EndSplineSet
EndChar
StartChar: uni0E1B
Encoding: 187 3611 155
Width: 634
Flags: HW
HStem: 0 45<93 435> 393 49<110 127> 547 51<110 127>
VStem: 147 96<45 396> 448 98<106 964>
AnchorPoint: "AboveBase" 388.194 629.76 basechar 0
Fore
546 964 m 5
 546 120 l 0
 546 120 l 0
 549 74 522 0 435 0 c 2
 93 0 l 1
 93 45 l 1
 147 45 l 1
 147 396 l 1
 136 395 126 393 118 393 c 0
 -13 393 -14 598 125 598 c 0
 252 598 243 492 243 479 c 0
 243 478 243 117 243 45 c 1
 396 45 l 2
 422 45 451 63 448 106 c 1
 448 964 l 1
 546 964 l 5
115 442 m 0
 183 442 183 547 115 547 c 0
 49 547 49 442 115 442 c 0
EndSplineSet
EndChar
StartChar: uni0E1C
Encoding: 188 3612 156
Width: 618
Flags: HW
HStem: 0 21G<76 175 434 532> 550 48<197 199>
VStem: 76 96<0 398> 434 98<0 596>
DStem: 324 287 324 382 444 66 436 187 324 382 324 287 203 183 194 66 324 287 324 382 444 66 436 187 324 382 324 287 203 183 194 66 324 287 324 382 444 66 436 187 324 382 324 287 203 183 194 66 324 287 324 382 444 66 436 187 324 382 324 287 203 183 194 66 324 287 324 382 444 66 436 187 324 382 324 287 203 183 194 66 324 287 324 382 444 66 436 187 324 382 324 287 203 183 194 66 324 287 324 382 444 66 436 187 324 382 324 287 203 183 194 66 324 287 324 382 444 66 436 187 324 382 324 287 203 183 194 66 324 287 324 382 444 66 436 187 324 382 324 287 203 183 194 66 324 287 324 382 444 66 436 187 324 382 324 287 203 183 194 66 324 287 324 382 444 66 436 187 324 382 324 287 203 183 194 66 324 287 324 382 444 66 436 187 324 382 324 287 203 183 194 66
Fore
532 596 m 1
 532 0 l 1
 434 0 l 1
 434 34 l 2
 434 52 424 60 423 66 c 1
 309 287 l 1
 185 66 l 1
 183 60 175 54 175 34 c 2
 175 0 l 1
 76 0 l 1
 76 478 l 2
 76 539 103 598 197 598 c 0
 336 598 331 372 173 399 c 1
 173 399 173 223 173 187 c 0
 173 163 167 129 167 129 c 1
 167 129 186 169 194 183 c 0
 292 350 309 382 309 382 c 1
 309 382 327 350 416 187 c 0
 424 172 440 132 440 132 c 1
 440 132 434 166 434 190 c 0
 434 226 435 596 435 596 c 1
 532 596 l 1
197 445 m 0
 265 445 265 550 197 550 c 0
 131 550 131 445 197 445 c 0
EndSplineSet
EndChar
StartChar: uni0E1D
Encoding: 189 3613 157
Width: 631
Flags: HW
HStem: 0 21G<76 175 448 546> 550 48<197 199>
VStem: 76 96<0 398> 448 98<0 964>
DStem: 332 295 332 390 459 66 452 187 332 390 332 295 203 183 194 66 332 295 332 390 459 66 452 187 332 390 332 295 203 183 194 66 332 295 332 390 459 66 452 187 332 390 332 295 203 183 194 66 332 295 332 390 459 66 452 187 332 390 332 295 203 183 194 66 332 295 332 390 459 66 452 187 332 390 332 295 203 183 194 66 332 295 332 390 459 66 452 187 332 390 332 295 203 183 194 66 332 295 332 390 459 66 452 187 332 390 332 295 203 183 194 66 332 295 332 390 459 66 452 187 332 390 332 295 203 183 194 66 332 295 332 390 459 66 452 187 332 390 332 295 203 183 194 66 332 295 332 390 459 66 452 187 332 390 332 295 203 183 194 66 332 295 332 390 459 66 452 187 332 390 332 295 203 183 194 66 332 295 332 390 459 66 452 187 332 390 332 295 203 183 194 66 332 295 332 390 459 66 452 187 332 390 332 295 203 183 194 66
AnchorPoint: "AboveBase" 385.265 629.76 basechar 0
Fore
546 964 m 1
 546 0 l 1
 448 0 l 1
 448 34 l 2
 448 52 440 60 438 66 c 1
 317 295 l 1
 185 66 l 1
 183 60 175 54 175 34 c 2
 175 0 l 1
 76 0 l 1
 76 478 l 2
 76 539 103 598 197 598 c 0
 336 598 331 372 173 399 c 1
 173 399 173 223 173 187 c 0
 173 163 167 129 167 129 c 1
 167 129 186 169 194 183 c 0
 292 350 317 390 317 390 c 1
 317 390 341 350 431 187 c 0
 440 172 454 132 454 132 c 1
 454 132 448 166 448 190 c 0
 448 226 450 964 450 964 c 1
 546 964 l 1
197 445 m 0
 265 445 265 550 197 550 c 0
 131 550 131 445 197 445 c 0
EndSplineSet
EndChar
StartChar: uni0E1E
Encoding: 190 3614 158
Width: 689
Flags: HW
HStem: 0 21G<148 238 510 602> 392 49<112 128> 545 49<112 128>
VStem: 148 97<0 394> 505 96<239 596>
DStem: 387 588 393 450 273 249 250 0 393 450 399 588 535 0 513 249
Fore
602 596 m 1
 602 0 l 1
 510 0 l 1
 375 450 l 1
 238 0 l 1
 148 0 l 1
 148 395 l 1
 137 393 128 392 120 392 c 0
 -10 392 -14 594 126 594 c 0
 254 594 245 492 245 479 c 0
 245 478 245 253 245 253 c 2
 245 226 236 160 236 160 c 1
 241 160 l 1
 241 160 252 217 260 249 c 1
 369 588 l 1
 381 588 l 1
 489 249 l 1
 498 217 508 160 508 160 c 1
 514 160 l 1
 514 160 505 226 505 253 c 1
 505 596 l 1
 602 596 l 1
117 441 m 0
 185 441 185 545 117 545 c 0
 50 545 50 441 117 441 c 0
EndSplineSet
EndChar
StartChar: uni0E1F
Encoding: 191 3615 159
Width: 689
Flags: HW
HStem: 0 21G<148 238 510 602> 392 49<112 128> 545 49<112 128>
VStem: 148 97<0 394> 505 96<239 964>
DStem: 387 588 393 450 273 249 250 0 393 450 399 588 535 0 513 249
AnchorPoint: "AboveBase" 443.859 629.76 basechar 0
Fore
602 964 m 1
 602 0 l 1
 510 0 l 1
 375 450 l 1
 238 0 l 1
 148 0 l 1
 148 395 l 1
 137 393 128 392 120 392 c 0
 -10 392 -14 594 126 594 c 0
 254 594 245 492 245 479 c 0
 245 478 245 253 245 253 c 2
 245 226 236 160 236 160 c 1
 241 160 l 1
 241 160 252 217 260 249 c 1
 369 588 l 1
 381 588 l 1
 489 249 l 1
 498 217 508 160 508 160 c 1
 514 160 l 1
 514 160 505 226 505 253 c 1
 506 964 l 1
 602 964 l 1
117 441 m 0
 185 441 185 545 117 545 c 0
 50 545 50 441 117 441 c 0
EndSplineSet
EndChar
StartChar: uni0E20
Encoding: 192 3616 160
Width: 588
Flags: HW
HStem: -8 45<101 105> 378 44<104 129 104 282>
VStem: 95 98<186 318> 405 98<0 407>
Fore
504 0 m 1
 405 0 l 1
 405 413 l 2
 405 581 145 590 104 422 c 1
 282 422 l 1
 282 378 l 1
 233 378 l 2
 207 378 194 346 194 318 c 2
 194 92 l 2
 194 29 153 -8 101 -8 c 0
 -19 -8 -24 183 95 187 c 1
 95 304 l 2
 95 329 110 373 129 378 c 1
 52 378 l 1
 60 651 487 682 504 407 c 1
 504 0 l 1
101 37 m 0
 169 37 169 141 101 141 c 0
 33 141 33 37 101 37 c 0
EndSplineSet
EndChar
StartChar: uni0E21
Encoding: 193 3617 161
Width: 621
Flags: HW
HStem: 0 21G<448 538> 392 49<111 127> 545 49<111 127>
VStem: 147 96<75 177 233 395> 441 97<114 596>
Fore
538 596 m 1
 538 0 l 0
 448 0 l 0
 409 80 356 141 243 177 c 1
 243 138 245 104 241 78 c 0
 233 22 210 -8 153 -8 c 0
 5 -9 9 223 147 233 c 1
 147 395 l 1
 136 393 126 392 118 392 c 0
 -10 392 -16 594 125 594 c 0
 252 594 243 492 243 479 c 0
 243 478 243 275 243 224 c 1
 293 215 383 175 441 114 c 1
 441 596 l 1
 538 596 l 1
147 75 m 0
 147 187 l 0
 93 186 58 98 113 58 c 0
 123 52 147 52 147 75 c 0
115 441 m 0
 183 441 183 545 115 545 c 0
 49 545 49 441 115 441 c 0
EndSplineSet
EndChar
StartChar: uni0E22
Encoding: 194 3618 162
Width: 575
Flags: HW
HStem: -8 46<263 299> 283 44<227 265> 398 47<192 209> 550 48<197 209>
VStem: 71 95<405 424> 391 96<126 596>
Fore
487 596 m 1
 487 174 l 1
 487 174 l 0
 487 65 413 -8 278 -8 c 0
 154 -8 71 49 71 163 c 2
 71 163 71 186 71 187 c 0
 71 257 109 289 134 306 c 1
 112 318 71 349 71 424 c 0
 71 470 71 438 71 452 c 0
 71 521 93 598 197 598 c 0
 327 598 330 398 202 398 c 0
 191 398 175 399 166 407 c 1
 166 358 188 327 227 327 c 2
 265 327 l 1
 265 283 l 1
 227 283 l 2
 194 283 169 258 169 203 c 2
 169 124 l 2
 169 66 222 38 279 38 c 0
 344 38 391 71 391 126 c 0
 391 131 391 570 391 596 c 1
 487 596 l 1
197 445 m 0
 265 445 265 550 197 550 c 0
 131 550 131 445 197 445 c 0
EndSplineSet
EndChar
StartChar: uni0E23
Encoding: 195 3619 163
Width: 427
Flags: HW
HStem: -3 49<212 223> 151 49<216 223>
VStem: 243 96<195 352>
DStem: 15 445 83 478 232 387 298 422
Fore
394 559 m 0
 394 559 l 0
 366 468 276 499 257 505 c 0
 148 544 106 539 79 478 c 1
 284 422 l 2
 318 413 340 393 340 350 c 2
 340 114 l 2
 340 100 350 -3 219 -3 c 0
 79 -3 90 201 216 200 c 0
 224 200 235 198 243 195 c 1
 243 350 l 2
 243 369 240 382 221 387 c 2
 14 445 l 1
 31 499 71 598 175 598 c 0
 243 598 340 541 364 579 c 0
 381 604 404 599 394 559 c 0
216 46 m 0
 282 46 282 151 216 151 c 0
 148 151 148 46 216 46 c 0
EndSplineSet
KernsSLIF: 212 30 1 0 215 30 1 0 214 30 1 0 213 30 1 0
EndChar
StartChar: uni0E24
Encoding: 196 3620 164
Width: 571
Flags: HW
HStem: 378 44<82 259>
VStem: 76 98<121 326> 387 96<-246 402>
Fore
387 -246 m 5
 387 404 l 2
 387 579 128 594 82 422 c 1
 260 422 l 1
 260 378 l 1
 238 378 213 378 213 378 c 2
 186 378 175 355 175 326 c 2
 175 326 175 229 175 183 c 1
 304 212 330 2 196 -6 c 0
 95 -12 76 77 76 121 c 2
 76 315 l 2
 76 336 90 373 109 378 c 1
 30 378 l 1
 38 653 470 682 484 402 c 0
 484 -246 l 5
 387 -246 l 5
192 37 m 0
 259 37 259 141 192 141 c 0
 125 141 125 37 192 37 c 0
EndSplineSet
EndChar
StartChar: uni0E25
Encoding: 197 3621 165
Width: 552
Flags: HW
HStem: -5 46<189 192> 376 54<245 267>
VStem: 69 98<120 283> 369 96<0 432>
Fore
465 0 m 1
 369 0 l 1
 369 283 l 2
 369 329 322 376 265 376 c 0
 204 376 167 329 167 276 c 2
 167 187 l 1
 311 221 330 3 192 -5 c 0
 99 -8 69 74 69 120 c 2
 69 266 l 2
 69 350 139 430 245 430 c 0
 304 430 345 410 371 379 c 1
 371 393 371 410 371 422 c 0
 371 568 147 587 65 430 c 1
 30 450 l 1
 151 691 465 607 465 413 c 2
 465 0 l 1
189 41 m 0
 257 41 257 146 189 146 c 0
 121 146 121 41 189 41 c 0
EndSplineSet
EndChar
StartChar: uni0E26
Encoding: 198 3622 166
Width: 583
Flags: HW
HStem: -8 45<95 99> 378 44<98 123 98 277>
VStem: 90 98<186 318> 400 97<-246 407>
Fore
400 -246 m 1
 400 413 l 2
 400 581 139 590 98 422 c 1
 277 422 l 1
 277 378 l 1
 227 378 l 2
 200 378 188 346 188 318 c 2
 188 83 l 2
 188 20 147 -8 95 -8 c 0
 -25 -8 -30 183 90 187 c 1
 90 304 l 2
 90 329 104 373 123 378 c 1
 46 378 l 1
 54 651 482 682 498 407 c 0
 497 -246 l 1
 400 -246 l 1
95 37 m 0
 162 37 162 141 95 141 c 0
 28 141 28 37 95 37 c 0
EndSplineSet
EndChar
StartChar: uni0E27
Encoding: 199 3623 167
Width: 478
Flags: HW
HStem: -5 45<261 270> 144 46<261 270>
VStem: 296 98<186 441>
Fore
394 131 m 1
 394 131 l 0
 394 46 361 -5 263 -5 c 0
 214 -5 175 37 173 89 c 0
 172 143 205 189 263 190 c 0
 278 190 287 189 296 186 c 1
 296 441 l 2
 296 565 104 587 43 436 c 1
 5 458 l 1
 84 673 394 622 394 421 c 2
 394 131 l 1
268 40 m 0
 336 40 336 144 268 144 c 0
 200 144 200 40 268 40 c 0
EndSplineSet
EndChar
StartChar: uni0E28
Encoding: 200 3624 168
Width: 561
Flags: HW
HStem: 0 21G<85 183 381 478> 249 44<234 247> 319 21G<109 112> 366 20G<381 381> 398 46<234 247> 545 54<221 254>
VStem: 24 47<401 418> 85 -14<233 401> 85 98<0 235> 381 97<0 396>
Fore
322 401 m 0
 322 401 l 0
 336 409 361 436 372 452 c 1
 353 510 306 545 237 545 c 0
 134 545 71 482 71 401 c 0
 71 361 96 333 109 319 c 1
 112 319 l 1
 128 390 156 444 243 444 c 0
 281 444 304 427 322 401 c 0
381 386 m 1
 381 386 l 0
 364 375 345 361 333 356 c 1
 340 307 311 249 245 249 c 0
 221 249 202 257 191 266 c 1
 185 255 183 233 183 206 c 2
 183 0 l 1
 85 0 l 1
 85 233 l 2
 85 275 24 304 24 401 c 0
 24 525 117 599 236 599 c 0
 308 599 380 581 423 539 c 1
 432 554 445 601 443 627 c 1
 541 627 l 1
 532 561 491 498 465 468 c 1
 473 450 478 427 478 396 c 2
 478 0 l 1
 381 0 l 1
 381 386 l 1
240 293 m 0
 308 293 308 398 240 398 c 0
 173 398 173 293 240 293 c 0
EndSplineSet
EndChar
StartChar: uni0E29
Encoding: 201 3625 169
Width: 631
Flags: HW
HStem: 0 45<93 435> 361 38<261 278> 392 49<109 127> 545 49<109 127>
VStem: 147 96<45 217> 448 98<108 596>
Fore
546 596 m 1xdc
 546 120 l 0
 546 120 l 0
 549 74 522 0 435 0 c 2
 93 0 l 1
 93 45 l 1
 147 45 l 1
 147 395 l 1
 136 393 126 392 118 392 c 0xbc
 -14 392 -16 594 125 594 c 0
 252 594 243 492 243 479 c 2
 243 395 l 1
 259 401 263 399 274 399 c 0
 368 399 385 266 311 238 c 1
 383 215 454 296 450 361 c 1
 450 596 l 1
 546 596 l 1xdc
448 108 m 0
 448 243 l 0
 383 161 287 174 243 217 c 1
 243 217 243 75 243 45 c 1
 396 45 l 2
 422 45 448 65 448 108 c 0
271 263 m 0
 271 263 l 0
 334 263 334 361 271 361 c 0xdc
 208 361 208 263 271 263 c 0
115 441 m 0xbc
 183 441 183 545 115 545 c 0
 49 545 49 441 115 441 c 0xbc
EndSplineSet
EndChar
StartChar: uni0E2A
Encoding: 202 3626 170
Width: 550
Flags: HW
HStem: -5 46<189 192> 335 47<262 275>
VStem: 69 98<120 240> 369 96<0 413>
Fore
541 627 m 1
 541 627 l 0
 536 584 497 528 448 490 c 1
 456 478 465 452 465 413 c 2
 465 0 l 1
 369 0 l 1
 369 226 l 2
 369 283 320 335 263 335 c 0
 202 335 167 290 167 238 c 2
 167 187 l 1
 311 221 330 3 192 -5 c 0
 99 -8 69 74 69 120 c 2
 69 227 l 2
 69 324 148 372 181 381 c 1
 227 402 304 449 352 488 c 1
 292 576 126 548 65 430 c 1
 30 450 l 1
 112 614 296 634 405 544 c 1
 426 570 440 599 443 627 c 1
 541 627 l 1
372 326 m 0
 372 326 l 1
 372 326 372 402 372 415 c 0
 372 422 372 430 369 436 c 1
 342 419 298 396 262 382 c 1
 299 382 353 366 372 326 c 0
189 41 m 0
 257 41 257 146 189 146 c 0
 121 146 121 41 189 41 c 0
EndSplineSet
EndChar
StartChar: uni0E2B
Encoding: 203 3627 171
Width: 620
Flags: HW
HStem: 0 21G<137 236 438 536> 393 48<102 117> 545 49<102 117>
VStem: 137 98<0 113 0 479> 438 98<0 385>
Fore
536 0 m 1
 438 0 l 1
 438 370 l 2
 438 384 437 392 432 398 c 1
 328 326 254 175 246 157 c 0
 238 134 236 114 236 97 c 2
 236 0 l 1
 137 0 l 1
 137 398 l 1
 129 395 118 393 109 393 c 0
 -16 393 -27 594 117 594 c 0
 243 594 235 492 235 479 c 2
 235 247 l 1
 290 338 368 409 396 429 c 1
 336 490 380 594 464 594 c 0
 573 594 586 459 520 418 c 1
 528 407 536 395 536 372 c 2
 536 0 l 1
107 441 m 0
 107 441 l 0
 175 441 175 545 107 545 c 0
 39 545 39 441 107 441 c 0
464 444 m 0
 532 444 532 548 464 548 c 0
 397 548 397 444 464 444 c 0
EndSplineSet
EndChar
StartChar: uni0E2C
Encoding: 204 3628 172
Width: 679
Flags: HW
HStem: 0 21G<139 230 501 595> 392 49<103 119> 545 49<103 119> 594 45<504 507>
VStem: 139 96<0 394> 498 97<239 482>
DStem: 370 558 375 404 266 249 241 0 375 404 379 558 525 0 501 249
Fore
718 644 m 1
 718 644 l 0
 713 542 624 492 595 482 c 1
 595 0 l 1
 501 0 l 1
 358 404 l 1
 230 0 l 1
 139 0 l 1
 139 395 l 1
 129 393 118 392 112 392 c 0
 -19 392 -24 594 117 594 c 0
 245 594 236 492 236 479 c 0
 236 478 236 253 236 253 c 2
 236 226 227 160 227 160 c 1
 233 160 l 1
 233 160 245 217 254 249 c 1
 353 558 l 1
 361 558 l 1
 478 249 l 1
 486 217 500 160 500 160 c 1
 505 160 l 1
 505 160 498 226 498 253 c 1
 500 455 l 1
 382 464 388 639 504 639 c 0
 557 639 592 607 595 545 c 1
 612 558 636 598 631 644 c 1
 718 644 l 1
504 499 m 0
 504 499 l 0
 566 499 566 594 504 594 c 0
 441 594 441 499 504 499 c 0
109 441 m 0
 175 441 175 545 109 545 c 0
 41 545 41 441 109 441 c 0
EndSplineSet
EndChar
StartChar: uni0E2D
Encoding: 205 3629 173
Width: 539
Flags: HW
HStem: -8 21G<228 288>
VStem: 68 98<151 250> 356 100<124 432>
Fore
456 158 m 1
 456 158 l 0
 456 22 314 -8 262 -8 c 0
 194 -8 68 18 68 160 c 2
 68 315 l 2
 68 359 96 449 191 445 c 0
 334 441 312 215 166 250 c 1
 166 124 l 1
 167 11 356 8 356 124 c 2
 356 124 356 410 356 422 c 0
 356 568 132 587 50 430 c 1
 14 450 l 1
 136 691 456 607 456 413 c 2
 456 158 l 1
191 295 m 0
 257 295 257 399 191 399 c 0
 123 399 123 295 191 295 c 0
EndSplineSet
EndChar
StartChar: uni0E2E
Encoding: 206 3630 174
Width: 539
Flags: HW
HStem: -8 21G<228 288> 327 45<180 191>
VStem: 68 98<151 180> 356 100<124 424>
Fore
475 602 m 1
 475 602 l 0
 464 564 448 533 429 508 c 1
 445 484 456 452 456 413 c 2
 456 158 l 2
 456 22 314 -8 262 -8 c 0
 194 -8 68 18 68 160 c 2
 68 241 l 2
 68 286 96 375 191 372 c 0
 333 367 308 147 166 180 c 1
 166 124 l 1
 167 11 356 8 356 124 c 2
 356 124 356 410 356 422 c 0
 356 430 356 438 355 445 c 1
 303 419 249 413 216 410 c 0
 107 401 43 419 39 464 c 0
 33 576 248 634 371 564 c 1
 377 576 380 590 382 602 c 1
 475 602 l 1
330 501 m 0
 330 501 l 0
 263 573 103 541 104 484 c 0
 104 467 134 450 216 455 c 0
 265 458 301 475 330 501 c 0
191 223 m 0
 257 223 257 327 191 327 c 0
 123 327 123 223 191 223 c 0
EndSplineSet
EndChar
StartChar: uni0E2F
Encoding: 207 3631 175
Width: 514
Flags: HW
HStem: 553 45<107 124>
VStem: 319 98<-18 594>
Fore
418 -18 m 1
 319 -18 l 1
 319 432 l 1
 230 369 98 390 60 418 c 0
 -21 478 19 598 114 598 c 0
 196 598 241 502 188 439 c 1
 308 439 334 525 334 594 c 1
 418 594 l 1
 418 -18 l 1
113 449 m 0
 180 449 180 553 113 553 c 0
 46 553 46 449 113 449 c 0
EndSplineSet
EndChar
StartChar: uni0E30
Encoding: 208 3632 176
Width: 438
Flags: HW
HStem: -6 54<181 206> 152 45<111 126> 396 54<181 204> 554 45<111 126>
Fore
390 594 m 1
 390 594 l 0
 374 444 279 396 181 396 c 0
 65 396 30 456 30 499 c 0
 30 544 50 599 123 599 c 0
 183 599 213 558 213 508 c 0
 213 492 210 464 188 450 c 1
 287 452 311 521 306 594 c 1
 390 594 l 1
121 456 m 0
 121 456 l 0
 185 456 185 554 121 554 c 0
 58 554 58 456 121 456 c 0
390 192 m 1
 390 192 l 0
 374 41 279 -6 181 -6 c 0
 65 -6 30 54 30 97 c 0
 30 141 50 197 123 197 c 0
 183 197 213 155 213 106 c 0
 213 89 210 61 188 48 c 1
 287 49 311 118 306 192 c 1
 390 192 l 1
121 54 m 0
 185 54 185 152 121 152 c 0
 58 152 58 54 121 54 c 0
EndSplineSet
EndChar
StartChar: uni0E31
Encoding: 209 3633 177
Width: 0
Flags: HW
HStem: 676 100<-257 -144> 880 49<-268 -251>
AnchorPoint: "AboveMark" -89.3584 983.04 basemark 0
AnchorPoint: "AboveBase" -89.3584 629.76 mark 0
Fore
150 923 m 1
 150 923 l 0
 109 740 -21 674 -144 676 c 0
 -257 676 -359 736 -359 823 c 0
 -359 882 -317 929 -259 929 c 0
 -199 929 -158 885 -158 826 c 0
 -158 786 -178 753 -218 736 c 1
 -96 700 36 746 52 923 c 1
 150 923 l 1
-257 776 m 0
 -191 776 -191 880 -257 880 c 0
 -325 880 -325 776 -257 776 c 0
EndSplineSet
EndChar
StartChar: uni0E32
Encoding: 210 3634 178
Width: 407
Flags: HW
HStem: 0 21G<224 322>
VStem: 224 98<0 465>
Fore
322 0 m 1
 224 0 l 1
 224 456 l 2
 224 554 87 564 21 479 c 1
 -6 505 l 1
 80 628 322 636 322 449 c 2
 322 0 l 1
EndSplineSet
EndChar
StartChar: uni0E33
Encoding: 211 3635 179
Width: 407
Flags: HW
HStem: 0 21G<224 322> 673 54<-137 -121> 831 57<-137 -121>
VStem: 224 98<0 465>
Fore
-126 673 m 0
 -126 673 l 0
 -263 673 -263 888 -126 888 c 0
 10 888 10 673 -126 673 c 0
322 0 m 1
 224 0 l 1
 224 456 l 2
 224 554 87 564 21 479 c 1
 -6 505 l 1
 80 628 322 636 322 449 c 2
 322 0 l 1
-126 727 m 0
 -58 727 -58 831 -126 831 c 0
 -194 831 -194 727 -126 727 c 0
EndSplineSet
MultipleSubs: 0 1 'ccmp' uni0E4D uni0E32
EndChar
StartChar: uni0E34
Encoding: 212 3636 180
Width: 0
Flags: HW
AnchorPoint: "AboveMark" -136.234 983.04 basemark 0
AnchorPoint: "AboveBase" -89.3584 629.76 mark 0
Fore
-69 636 m 0
 -69 636 l 0
 -245 716 -375 746 -527 713 c 1
 -463 977 -69 952 -69 636 c 0
-126 708 m 1
 -172 840 -356 894 -446 768 c 1
 -352 780 -224 760 -126 708 c 1
EndSplineSet
EndChar
StartChar: uni0E35
Encoding: 213 3637 181
Width: 0
Flags: HW
AnchorPoint: "AboveMark" -136.234 983.04 basemark 0
AnchorPoint: "AboveBase" -89.3584 629.76 mark 0
Fore
-69 636 m 0
 -69 636 l 0
 -245 716 -375 746 -527 713 c 1
 -486 883 -306 934 -185 862 c 1
 -185 948 l 1
 -90 948 l 5
 -90 750 l 1
 -76 717 -69 679 -69 636 c 0
-126 708 m 1
 -172 840 -356 894 -446 768 c 1
 -352 780 -224 760 -126 708 c 1
EndSplineSet
EndChar
StartChar: uni0E36
Encoding: 214 3638 182
Width: 0
Flags: HW
HStem: 906 46<-136 -126>
AnchorPoint: "AboveMark" -136.234 983.04 basemark 0
AnchorPoint: "AboveBase" -89.3584 629.76 mark 0
Fore
-69 636 m 0
 -69 636 l 0
 -245 716 -375 746 -527 713 c 1
 -491 865 -345 920 -229 882 c 1
 -224 911 -197 952 -136 952 c 4
 -24 952 -14 806 -98 770 c 1
 -79 733 -69 688 -69 636 c 0
-126 708 m 0
 -126 708 l 0
 -172 840 -356 894 -446 768 c 1
 -352 780 -224 760 -126 708 c 0
-136 808 m 0
 -73 808 -73 906 -136 906 c 0
 -199 906 -199 808 -136 808 c 0
EndSplineSet
EndChar
StartChar: uni0E37
Encoding: 215 3639 183
Width: 0
Flags: HW
VStem: -167 74<849 949>
AnchorPoint: "AboveMark" -194.829 983.04 basemark 0
AnchorPoint: "AboveBase" -89.3584 629.76 mark 0
Fore
-69 636 m 0
 -69 636 l 0
 -245 716 -375 746 -527 713 c 1
 -498 834 -397 895 -299 894 c 1
 -298 949 l 5
 -229 949 l 1
 -227 879 l 1
 -204 872 -185 860 -167 849 c 1
 -166 949 l 1
 -93 949 l 1
 -91 754 l 1
 -77 720 -69 680 -69 636 c 0
-126 708 m 1
 -172 840 -356 894 -446 768 c 1
 -352 780 -224 760 -126 708 c 1
EndSplineSet
EndChar
StartChar: uni0E38
Encoding: 216 3640 184
Width: 0
Flags: HW
HStem: -227 41<-210 -197>
VStem: -161 71<-151 -141>
AnchorPoint: "BelowBase" -89.3584 -52.2236 mark 0
Fore
-91 -307 m 1
 -183 -307 l 1
 -183 -226 l 1
 -189 -227 -199 -227 -208 -227 c 0
 -317 -226 -318 -61 -208 -52 c 5
 -140 -49 -95 -83 -91 -149 c 1
 -91 -307 l 1
-161 -141 m 0
 -161 -117 -180 -97 -202 -97 c 0
 -232 -97 -246 -115 -246 -141 c 0
 -246 -164 -227 -186 -202 -186 c 0
 -175 -186 -161 -164 -161 -141 c 0
EndSplineSet
EndChar
StartChar: uni0E39
Encoding: 217 3641 185
Width: 0
Flags: HW
HStem: -319 39<-207 -189> -214 37<-322 -315> -88 37<-322 -315>
VStem: -298 72<-240 -151> -183 93<-257 -57>
AnchorPoint: "BelowBase" -89.3584 -52.2236 mark 0
Fore
-90 -212 m 1
 -90 -212 l 0
 -90 -270 -123 -319 -189 -319 c 0
 -255 -319 -298 -281 -298 -226 c 2
 -298 -210 l 1
 -301 -212 -308 -214 -317 -214 c 0
 -424 -212 -424 -51 -317 -51 c 0
 -251 -51 -224 -92 -226 -151 c 1
 -226 -257 l 1
 -227 -269 -216 -280 -205 -280 c 0
 -192 -280 -183 -272 -183 -257 c 2
 -183 -57 l 1
 -90 -57 l 5
 -90 -212 l 1
-277 -132 m 0
 -277 -108 -296 -88 -318 -88 c 0
 -345 -88 -361 -106 -361 -132 c 0
 -361 -155 -342 -177 -318 -177 c 0
 -292 -177 -277 -155 -277 -132 c 0
EndSplineSet
EndChar
StartChar: uni0E3A
Encoding: 218 3642 186
Width: 0
Flags: HW
AnchorPoint: "BelowBase" -89.3584 -43.0078 mark 0
Fore
-134 -174 m 0
 -222 -174 -222 -43 -134 -43 c 0
 -50 -43 -50 -174 -134 -174 c 0
EndSplineSet
EndChar
StartChar: zerospace
Encoding: 220 8203 187
Width: 776
Flags: HW
HStem: 0 61<95 600>
VStem: 95 64<-187 -42> 649 65<-187 61>
Fore
713 -187 m 1
 649 -187 l 1
 649 -54 l 2
 649 -17 629 0 588 0 c 2
 210 0 l 2
 175 0 159 -15 159 -49 c 2
 159 -187 l 1
 95 -187 l 1
 95 61 l 1
 713 61 l 1
 713 -187 l 1
EndSplineSet
EndChar
StartChar: dottedcircle
Encoding: 221 9676 188
Width: 618
Flags: HW
HStem: -14 77<328 335> 23 77<183 192> 34 77<454 456> 118 77<85 94> 131 75<535 537> 270 77<50 57> 399 77<535 537> 406 76<93 94> 501 77<192 197> 535 76<327 335>
VStem: 13 73<307 309> 50 73<155 163> 57 72<445 451> 145 73<54 72> 155 73<538 547> 292 72<23 25 574 580> 405 73<530 539> 418 73<72 74> 498 72<167 169 439 447> 533 73<301 309>
Fore
82 462 m 6
181 554 m 6
172 80 m 6
74 172 m 6
443 89 m 6
523 184 m 6
523 456 m 6
431 547 m 6
558 318 m 6
39 324 m 6
317 591 m 6
93 482 m 4,11,12
 114 482 129 465 129 445 c 4,13,14
 129 424 114 406 93 406 c 4,15,16
 73 406 57 424 57 445 c 4,17,18
 57 465 73 482 93 482 c 4,11,12
93 445 m 4,19,-1
 93 445 l 4,20,-1
 93 445 l 4,21,-1
 93 445 l 4,22,-1
 93 445 l 4,19,-1
192 578 m 4,23,24
 213 578 229 561 229 538 c 4,25,26
 229 518 213 501 192 501 c 4,27,28
 173 501 155 518 155 538 c 4,29,30
 155 561 173 578 192 578 c 4,23,24
192 538 m 4,31,-1
 192 538 l 4,32,-1
 192 538 l 4,33,-1
 192 538 l 4,34,-1
 192 538 l 4,31,-1
183 100 m 4,35,36
 202 100 218 83 218 63 c 4,37,38
 218 41 202 23 183 23 c 4,39,40
 161 23 145 41 145 63 c 4,41,42
 145 83 161 100 183 100 c 4,35,36
183 63 m 4,43,-1
 183 63 l 4,44,-1
 183 63 l 4,45,-1
 183 63 l 4,46,-1
 183 63 l 4,43,-1
85 195 m 4,47,48
 107 195 123 177 123 155 c 4,49,50
 123 135 107 118 85 118 c 4,51,52
 66 118 50 135 50 155 c 4,53,54
 50 177 66 195 85 195 c 4,47,48
85 155 m 4,55,-1
 85 155 l 4,56,-1
 85 155 l 4,57,-1
 85 155 l 4,58,-1
 85 155 l 4,55,-1
454 111 m 4,59,60
 475 111 491 94 491 72 c 4,61,62
 491 52 475 34 454 34 c 4,63,64
 434 34 418 52 418 72 c 4,65,66
 418 94 434 111 454 111 c 4,59,60
454 72 m 4,67,-1
 454 72 l 4,68,-1
 454 72 l 4,69,-1
 454 72 l 4,70,-1
 454 72 l 4,67,-1
535 206 m 4,71,72
 554 206 570 189 570 167 c 4,73,74
 570 146 554 131 535 131 c 4,75,76
 513 131 498 146 498 167 c 4,77,78
 498 189 513 206 535 206 c 4,71,72
535 167 m 4,79,-1
 535 167 l 4,80,-1
 535 167 l 4,81,-1
 535 167 l 4,82,-1
 535 167 l 4,79,-1
535 476 m 4,83,84
 554 476 570 459 570 439 c 4,85,86
 570 418 554 399 535 399 c 4,87,88
 513 399 498 418 498 439 c 4,89,90
 498 459 513 476 535 476 c 4,83,84
535 439 m 4,91,-1
 535 439 l 4,92,-1
 535 439 l 4,93,-1
 535 439 l 4,94,-1
 535 439 l 4,91,-1
441 570 m 4,95,96
 463 570 479 551 479 530 c 4,97,98
 479 510 463 493 441 493 c 4,99,100
 422 493 405 510 405 530 c 4,101,102
 405 551 422 570 441 570 c 4,95,96
441 530 m 4,103,-1
 441 530 l 4,104,-1
 441 530 l 4,105,-1
 441 530 l 4,106,-1
 441 530 l 4,103,-1
568 339 m 4,107,108
 588 339 607 321 607 301 c 4,109,110
 607 280 588 263 568 263 c 4,111,112
 549 263 533 280 533 301 c 4,113,114
 533 321 549 339 568 339 c 4,107,108
568 301 m 4,115,-1
 568 301 l 4,116,-1
 568 301 l 4,117,-1
 568 301 l 4,118,-1
 568 301 l 4,115,-1
50 347 m 4,119,120
 71 347 87 329 87 307 c 4,121,122
 87 287 71 270 50 270 c 4,123,124
 31 270 13 287 13 307 c 4,125,126
 13 329 31 347 50 347 c 4,119,120
50 307 m 4,127,-1
 50 307 l 4,128,-1
 50 307 l 4,129,-1
 50 307 l 4,130,-1
 50 307 l 4,127,-1
328 63 m 4,131,132
 349 63 364 46 364 23 c 4,133,134
 364 3 349 -14 328 -14 c 4,135,136
 309 -14 292 3 292 23 c 4,137,138
 292 46 309 63 328 63 c 4,131,132
328 23 m 4,139,-1
 328 23 l 4,140,-1
 328 23 l 4,141,-1
 328 23 l 4,142,-1
 328 23 l 4,139,-1
327 611 m 4,143,144
 347 611 363 594 363 574 c 4,145,146
 363 551 347 535 327 535 c 4,147,148
 306 535 290 551 290 574 c 4,149,150
 290 594 306 611 327 611 c 4,143,144
327 574 m 4,151,-1
 327 574 l 4,152,-1
 327 574 l 4,153,-1
 327 574 l 4,154,-1
 327 574 l 4,151,-1
EndSplineSet
EndChar
StartChar: uni0E3F
Encoding: 223 3647 189
Width: 717
Flags: HW
HStem: -11 43<36 63> 347 65<238 322> 667 64<413 431> 694 40<36 59>
VStem: 137 101<86 347 88 650> 323 89<-118 -9 51 333 412 667 736 834> 516 107<521 555> 538 118<185 219>
Fore
656 200 m 0xed
 656 200 l 0
 656 58 568 -8 413 -9 c 1
 412 -118 l 1
 325 -118 l 1
 323 -11 l 1
 36 -9 l 1
 36 32 l 1
 123 32 137 58 137 88 c 2
 137 637 l 2
 137 665 123 693 36 694 c 1
 36 734 l 1xdd
 74 734 274 736 323 736 c 1
 325 834 l 1
 412 834 l 1
 413 731 l 1
 545 731 623 677 623 541 c 0xee
 623 445 577 399 510 381 c 1
 586 367 656 312 656 200 c 0xed
322 412 m 1
 322 673 l 0
 268 676 238 676 238 650 c 2
 238 412 l 1
 322 412 l 1
516 536 m 0xee
 516 536 l 0
 516 627 475 668 413 667 c 1
 413 415 l 1
 495 418 516 478 516 536 c 0xee
322 51 m 0
 322 347 l 0
 304 347 255 347 238 347 c 1
 238 100 l 2
 238 68 238 40 322 51 c 0
538 203 m 0xcd
 538 278 491 330 413 333 c 1
 413 55 l 1
 503 65 538 114 538 203 c 0xcd
EndSplineSet
EndChar
StartChar: uni0E40
Encoding: 224 3648 190
Width: 321
Flags: HW
HStem: -8 46<186 203> 143 43<178 203> 576 20G<80 178>
VStem: 80 98<118 596>
Fore
178 596 m 5
 178 596 178 241 178 186 c 1
 181 186 189 187 192 187 c 0
 192 187 l 0
 323 187 322 -8 191 -8 c 0
 118 -8 80 57 80 118 c 1
 80 596 l 1
 178 596 l 5
197 38 m 0
 265 38 265 143 197 143 c 0
 131 143 131 38 197 38 c 0
EndSplineSet
EndChar
StartChar: uni0E41
Encoding: 225 3649 191
Width: 580
Flags: HW
HStem: -8 45<186 203 445 463> 141 45<178 203 437 463> 576 20G<80 178 339 437>
VStem: 80 98<118 596> 339 98<118 596>
Fore
437 596 m 1
 437 596 437 243 437 186 c 1
 440 186 446 187 450 187 c 0
 450 187 l 0
 582 187 580 -8 448 -8 c 0
 377 -8 339 57 339 118 c 1
 339 596 l 1
 437 596 l 1
178 596 m 1
 178 596 178 243 178 186 c 1
 181 186 189 187 192 187 c 0
 192 187 l 0
 323 187 322 -8 191 -8 c 0
 118 -8 80 57 80 118 c 1
 80 596 l 1
 178 596 l 1
454 37 m 0
 454 37 l 0
 522 37 522 141 454 141 c 0
 387 141 387 37 454 37 c 0
196 37 m 0
 263 37 263 141 196 141 c 0
 129 141 129 37 196 37 c 0
EndSplineSet
EndChar
StartChar: uni0E42
Encoding: 226 3650 192
Width: 323
Flags: HW
HStem: -8 45<224 234> 141 46<224 243> 897 74<66 82>
VStem: 115 98<118 378 498 692>
DStem: -66 831 2 854 103 742 194 750
Fore
330 905 m 0
 330 905 l 0
 304 828 254 834 214 848 c 0
 158 868 96 897 66 897 c 0
 44 897 30 897 2 854 c 1
 185 750 l 2
 211 734 216 717 216 690 c 1
 216 690 214 255 214 186 c 1
 218 187 224 187 227 187 c 0
 359 187 358 -8 226 -8 c 0
 154 -8 115 57 115 118 c 1
 118 691 l 1
 118 720 107 737 98 742 c 2
 -63 831 l 1
 -30 906 11 971 82 971 c 0
 134 971 263 880 298 925 c 0
 315 948 340 945 330 905 c 0
232 37 m 0
 299 37 299 141 232 141 c 0
 164 141 164 37 232 37 c 0
EndSplineSet
EndChar
StartChar: uni0E43
Encoding: 227 3651 193
Width: 345
Flags: HW
HStem: -8 45<241 258> 141 45<233 258> 671 46<34 45> 794 48<34 45> 912 59<69 84>
VStem: 134 98<118 841>
Fore
246 187 m 0
 246 187 l 0
 378 187 377 -8 245 -8 c 0
 173 -8 134 57 134 118 c 1
 137 842 l 1
 137 885 103 912 71 912 c 0
 31 912 -10 894 -16 817 c 1
 2 839 32 842 38 842 c 0
 151 842 151 671 36 671 c 0
 -43 671 -66 765 -63 829 c 1
 -55 908 -6 971 84 971 c 0
 180 971 235 903 235 823 c 1
 233 186 l 1
 236 186 243 187 246 187 c 0
43 794 m 0
 43 794 l 0
 17 794 3 777 3 756 c 0
 3 739 14 717 39 717 c 0
 91 717 91 794 43 794 c 0
251 37 m 0
 318 37 318 141 251 141 c 0
 183 141 183 37 251 37 c 0
EndSplineSet
EndChar
StartChar: uni0E44
Encoding: 228 3652 194
Width: 370
Flags: HW
HStem: -8 45<269 281> 141 43<259 277> 662 41<52 59> 925 46<154 172>
VStem: -35 72<743 920> 77 57<723 874> 162 97<118 283> 170 93<871 902>
Fore
273 187 m 0xfe
 273 187 l 0
 404 187 402 -8 271 -8 c 0
 199 -8 162 57 162 118 c 1xfe
 170 902 l 1
 170 915 164 925 154 925 c 0
 140 925 134 912 134 902 c 2
 134 750 l 2
 134 702 112 662 52 662 c 0
 -3 660 -35 702 -35 754 c 2
 -35 909 l 2
 -35 917 -36 926 -46 935 c 0
 -57 948 -63 951 -76 963 c 1
 -98 989 -74 1012 -47 995 c 1
 11 965 l 2
 33 952 36 940 36 920 c 2
 36 723 l 2
 36 714 47 703 57 703 c 0
 66 703 77 713 77 723 c 2
 77 868 l 2
 77 926 106 971 172 971 c 0
 237 971 262 920 262 871 c 1xfd
 262 871 259 253 259 184 c 1
 262 184 267 187 273 187 c 0xfe
277 37 m 0
 344 37 344 141 277 141 c 0
 210 141 210 37 277 37 c 0
EndSplineSet
EndChar
StartChar: uni0E45
Encoding: 229 3653 195
Width: 289
Flags: HW
VStem: 106 98<-246 458>
Fore
106 -246 m 1
 106 456 l 2
 106 554 -32 564 -98 479 c 1
 -125 505 l 1
 -38 628 204 636 204 449 c 2
 204 -246 l 1
 106 -246 l 1
EndSplineSet
EndChar
StartChar: uni0E46
Encoding: 230 3654 196
Width: 670
Flags: HW
HStem: 255 37<334 336>
VStem: 481 95<-246 475>
DStem: 330 536 335 599 406 459 406 525
Fore
481 -246 m 1
 481 485 l 2
 481 505 464 521 448 525 c 1
 387 459 l 1
 315 536 l 1
 286 515 262 476 271 395 c 1
 287 421 317 427 334 427 c 0
 448 424 446 255 334 255 c 0
 248 255 226 346 224 427 c 0
 222 478 241 559 319 599 c 1
 387 525 l 1
 454 599 l 1
 546 588 576 521 576 455 c 2
 576 -246 l 1
 481 -246 l 1
334 292 m 0
 397 292 397 390 334 390 c 0
 271 390 271 292 334 292 c 0
EndSplineSet
EndChar
StartChar: uni0E47
Encoding: 231 3655 197
Width: 0
Flags: HW
HStem: 656 49<-174 -155>
AnchorPoint: "AboveMark" -275.398 629.76 mark 0
AnchorPoint: "AboveBase" -123.05 629.76 mark 0
Fore
-68 1025 m 1
 -68 1025 l 0
 -69 902 -154 885 -216 888 c 0
 -252 889 -287 892 -327 895 c 0
 -387 900 -431 836 -390 750 c 1
 -371 817 -292 793 -257 754 c 1
 -257 754 -246 742 -248 757 c 0
 -254 871 -76 871 -76 753 c 4
 -76 687 -120 656 -164 656 c 0
 -267 656 -286 736 -330 736 c 0
 -366 736 -369 680 -347 656 c 1
 -405 657 l 1
 -535 779 -479 966 -328 948 c 0
 -296 943 -257 940 -226 938 c 0
 -210 937 -150 935 -159 1025 c 1
 -68 1025 l 1
-166 705 m 0
 -109 705 -109 796 -166 796 c 0
 -222 796 -222 705 -166 705 c 0
EndSplineSet
EndChar
StartChar: uni0E48
Encoding: 232 3656 198
Width: 0
Flags: W
VStem: -183 93<1021 1227>
AnchorPoint: "AboveMark" -136.234 983.04 mark 0
Fore
-90 1227 m 1
 -90 1021 l 1
 -183 1021 l 5
 -183 1227 l 1
 -90 1227 l 1
EndSplineSet
Substitution: 0 65534 'loww' uni0E48.low
Substitution: 0 65534 'amni' uni0E4D
EndChar
StartChar: uni0E49
Encoding: 233 3657 199
Width: 0
Flags: HW
HStem: 1187 42<-182 -168>
AnchorPoint: "AboveMark" -43.9463 983.04 mark 0
Fore
145 1229 m 1
 145 1229 l 0
 114 957 -189 991 -233 994 c 1
 -233 1029 l 1
 -195 1034 -180 1052 -172 1071 c 1
 -172 1074 l 1
 -172 1074 -180 1071 -194 1072 c 0
 -281 1086 -279 1229 -177 1229 c 0
 -95 1229 -95 1152 -95 1150 c 0
 -95 1077 -132 1043 -132 1043 c 1
 -132 1040 l 1
 -132 1040 47 1035 60 1229 c 1
 145 1229 l 1
-178 1109 m 0
 -126 1109 -126 1187 -178 1187 c 0
 -229 1187 -229 1109 -178 1109 c 0
EndSplineSet
Substitution: 0 65534 'loww' uni0E49.low
Substitution: 0 65534 'amni' uni0E4D
EndChar
StartChar: uni0E4A
Encoding: 234 3658 200
Width: 0
Flags: HW
HStem: 986 35<-235 -225> 1089 35<-235 -225>
AnchorPoint: "AboveMark" -166.997 983.04 mark 0
Fore
63 1226 m 1
 63 1226 l 0
 72 1098 -5 986 -137 986 c 5
 -137 1021 l 1
 -71 1058 -88 1160 -129 1175 c 1
 -181 1137 l 1
 -241 1178 l 1
 -271 1172 -284 1130 -281 1107 c 1
 -278 1104 l 1
 -278 1104 -267 1124 -235 1124 c 0
 -196 1124 -169 1098 -169 1057 c 0
 -169 1014 -195 986 -235 986 c 0
 -296 986 -333 1043 -333 1115 c 0
 -333 1160 -296 1227 -237 1232 c 1
 -181 1183 l 1
 -126 1232 l 1
 -24 1201 -28 1103 -58 1055 c 1
 -55 1054 l 1
 -16 1080 11 1141 -8 1226 c 1
 63 1226 l 1
-235 1021 m 0
 -191 1021 -191 1089 -235 1089 c 0
 -277 1089 -277 1021 -235 1021 c 0
EndSplineSet
Substitution: 0 65534 'loww' uni0E4A.low
Substitution: 0 65534 'amni' uni0E4D
EndChar
StartChar: uni0E4B
Encoding: 235 3659 201
Width: 0
Flags: HW
HStem: 1071 75<-262 -173 -99 -10>
DStem: -181 1147 -104 1147 -275 1146 -11 1146
AnchorPoint: "AboveMark" -136.234 983.04 mark 0
Fore
-10 1072 m 5
 -99 1071 l 1
 -101 992 l 1
 -172 992 l 1
 -173 1071 l 1
 -262 1072 l 1
 -262 1146 l 1
 -173 1147 l 1
 -175 1226 l 1
 -98 1226 l 1
 -99 1147 l 1
 -10 1146 l 1
 -10 1072 l 5
EndSplineSet
MinimumDistance: x8,9 
Substitution: 0 65534 'loww' uni0E4B.low
Substitution: 0 65534 'amni' uni0E4D
EndChar
StartChar: uni0E4C
Encoding: 236 3660 202
Width: 0
Flags: HW
HStem: 895 42<-153 -145>
AnchorPoint: "AboveMark" -152.348 890.88 mark 0
Fore
35 1170 m 1
 35 1170 l 0
 10 1074 -95 1055 -118 1049 c 1
 -118 1046 l 1
 -95 1044 -71 1018 -71 977 c 0
 -71 931 -104 895 -153 895 c 0
 -205 895 -237 937 -237 983 c 0
 -237 1023 -210 1075 -123 1092 c 0
 -79 1101 -49 1135 -39 1192 c 1
 35 1170 l 1
-153 937 m 0
 -103 937 -103 1020 -153 1020 c 0
 -207 1020 -207 937 -153 937 c 0
EndSplineSet
Substitution: 0 65534 'loww' uni0E4C.low
EndChar
StartChar: uni0E4D
Encoding: 237 3661 203
Width: 0
Flags: HW
HStem: 673 54<-137 -121> 831 57<-137 -121>
AnchorPoint: "AboveMark" -125.979 629.76 mark 0
AnchorPoint: "AboveMark" -125.979 983.04 basemark 0
AnchorPoint: "AboveBase" -58.5957 629.76 mark 0
Fore
-126 673 m 4
 -126 673 l 0
 -263 673 -263 888 -126 888 c 0
 10 888 10 673 -126 673 c 4
-126 727 m 0
 -58 727 -58 831 -126 831 c 0
 -194 831 -194 727 -126 727 c 0
EndSplineSet
Substitution: 0 65534 'G006' uni0E4B
Substitution: 0 65534 'G005' uni0E4A
Substitution: 0 65534 'G004' uni0E49
Substitution: 0 65534 'G003' uni0E48
EndChar
StartChar: uni0E4E
Encoding: 238 3662 204
Width: 0
Flags: HW
HStem: 662 55<-164 -134>
VStem: -249 66<748 759>
AnchorPoint: "AboveBase" -89.3584 629.76 mark 0
Fore
-9 909 m 1
 -84 902 -96 863 -73 823 c 1
 -113 760 l 1
 -159 793 -183 773 -183 751 c 0
 -183 730 -164 717 -134 717 c 1
 -164 662 l 1
 -214 662 -249 703 -249 750 c 0
 -249 833 -173 849 -145 828 c 1
 -142 831 l 1
 -159 874 -144 962 -17 962 c 1
 -9 909 l 1
EndSplineSet
EndChar
StartChar: uni0E4F
Encoding: 239 3663 205
Width: 702
Flags: HW
HStem: -14 79<352 360> 152 77<352 360> 364 77<352 360> 527 80<352 360>
VStem: 54 76<296 307> 211 76<296 307> 416 72<296 307> 571 76<296 307>
Fore
648 296 m 0
 648 296 l 0
 648 126 511 -14 352 -14 c 0
 188 -14 54 126 54 296 c 0
 54 468 188 607 352 607 c 0
 511 607 648 468 648 296 c 0
571 296 m 0
 571 296 l 0
 571 424 473 527 352 527 c 0
 227 527 131 424 131 296 c 0
 131 169 227 65 352 65 c 0
 473 65 571 169 571 296 c 0
487 296 m 0
 487 296 l 0
 487 217 424 152 352 152 c 0
 273 152 211 217 211 296 c 0
 211 379 273 441 352 441 c 0
 424 441 487 379 487 296 c 0
416 296 m 0
 416 333 387 364 352 364 c 0
 317 364 287 333 287 296 c 0
 287 260 317 229 352 229 c 0
 387 229 416 260 416 296 c 0
EndSplineSet
EndChar
StartChar: uni0E50
Encoding: 240 3664 206
Width: 615
Flags: HW
HStem: -9 55<308 312> 430 60<308 312>
VStem: 36 101<230 248> 475 101<230 248>
Fore
576 237 m 0
 576 237 l 0
 576 92 453 -9 308 -9 c 0
 158 -9 36 89 36 238 c 0
 36 384 158 490 308 490 c 0
 453 490 576 384 576 237 c 0
475 238 m 0
 475 336 405 430 308 430 c 0
 205 430 137 341 137 237 c 0
 137 137 211 46 308 46 c 0
 404 46 475 144 475 238 c 0
EndSplineSet
EndChar
StartChar: uni0E51
Encoding: 241 3665 207
Width: 615
Flags: HW
HStem: 98 53<281 299> 243 49<281 299> 427 57<304 324>
VStem: 38 95<232 252> 197 202<164 194> 481 95<218 252>
Fore
576 232 m 0
 576 232 l 0
 576 100 497 -8 380 -37 c 1
 322 -14 l 1
 472 32 481 149 481 233 c 0
 481 362 400 427 304 427 c 0
 199 427 134 346 134 232 c 0
 134 46 303 2 330 111 c 1
 314 100 300 98 287 98 c 0
 232 98 197 144 197 194 c 0
 197 249 235 292 292 292 c 0
 363 292 400 232 400 164 c 0
 400 -72 38 -75 38 232 c 0
 38 392 164 484 304 484 c 0
 443 484 576 390 576 232 c 0
290 151 m 0
 349 151 349 243 290 243 c 0
 232 243 232 151 290 151 c 0
EndSplineSet
EndChar
StartChar: uni0E52
Encoding: 242 3666 208
Width: 615
Flags: HW
HStem: -2 48<185 470> 86 43<279 297> 221 46<279 297> 390 21G<371 374>
VStem: 35 88<115 575>
Fore
590 252 m 0
 590 252 l 0
 590 201 592 154 585 112 c 0
 574 49 561 -2 459 -2 c 2
 185 -2 l 2
 82 -2 35 57 35 134 c 2
 35 561 l 2
 35 648 25 667 25 667 c 1
 9 725 52 717 69 703 c 1
 104 660 l 1
 104 660 123 637 123 561 c 2
 123 117 l 2
 123 75 153 46 185 46 c 2
 460 46 l 2
 492 46 500 71 503 91 c 0
 514 187 523 412 463 425 c 0
 435 432 407 366 400 321 c 0
 394 283 349 280 342 323 c 0
 337 362 318 430 284 425 c 0
 249 421 236 350 245 255 c 1
 254 263 274 267 289 267 c 0
 404 267 402 86 289 86 c 0
 227 86 194 132 181 192 c 0
 150 369 197 493 281 490 c 0
 334 488 359 438 369 401 c 0
 371 396 371 390 371 390 c 1
 374 390 l 1
 374 390 374 396 375 401 c 0
 388 438 418 490 470 490 c 0
 558 490 590 384 590 252 c 0
287 129 m 0
 345 129 345 221 287 221 c 0
 229 221 229 129 287 129 c 0
EndSplineSet
EndChar
StartChar: uni0E53
Encoding: 243 3667 209
Width: 615
Flags: HW
HStem: -8 49<175 190> 134 49<175 190> 424 64<198 204>
VStem: 278 66<194 269>
Fore
545 8 m 0
 497 -5 l 0
 478 -6 450 -12 459 32 c 0
 517 284 484 435 409 424 c 0
 363 418 344 316 344 244 c 0
 344 229 342 218 342 194 c 0
 341 138 277 140 278 194 c 0
 278 217 279 229 279 243 c 0
 279 338 245 424 202 424 c 0
 161 424 107 356 137 167 c 1
 147 174 164 183 185 183 c 0
 238 183 276 138 276 88 c 0
 276 35 238 -8 185 -8 c 0
 126 -8 82 35 63 92 c 0
 13 235 21 488 200 488 c 0
 262 488 296 432 309 402 c 1
 334 467 374 488 421 488 c 0
 582 488 612 263 545 8 c 0
185 41 m 0
 243 41 243 134 185 134 c 0
 126 134 126 41 185 41 c 0
EndSplineSet
EndChar
StartChar: uni0E54
Encoding: 244 3668 210
Width: 615
Flags: HW
HStem: 421 66<350 368> 424 66<272 290>
VStem: 44 95<252 269>
Fore
593 659 m 0xa0
 593 659 l 0
 586 521 503 421 356 421 c 0xa0
 339 421 308 424 290 424 c 0
 183 424 140 332 139 252 c 0
 139 149 199 37 317 46 c 0
 331 48 355 49 368 49 c 1
 304 89 237 166 237 244 c 0
 237 324 298 367 358 362 c 0
 412 358 443 318 443 260 c 0
 443 195 380 154 328 172 c 1
 355 127 446 57 533 65 c 0
 539 65 557 68 563 68 c 0
 599 68 579 31 579 31 c 1
 560 -2 l 1
 560 -2 469 0 383 3 c 0
 330 5 315 0 276 -3 c 0
 161 -9 44 80 44 252 c 0
 44 413 156 490 278 490 c 0x60
 315 490 323 487 350 487 c 0
 437 487 498 551 498 713 c 1
 574 688 l 2
 586 685 596 679 593 659 c 0xa0
350 221 m 0
 409 221 409 313 350 313 c 0
 292 313 292 221 350 221 c 0
EndSplineSet
EndChar
StartChar: uni0E55
Encoding: 245 3669 211
Width: 615
Flags: HW
HStem: 421 187<330 363> 424 46<290 328> 562 46<318 335>
VStem: 44 95<253 269>
Fore
593 660 m 0x90
 593 660 l 0
 586 519 495 422 363 421 c 0x90
 344 421 308 424 290 424 c 0x50
 183 424 140 333 139 253 c 0
 139 151 213 35 330 45 c 0
 344 46 353 49 368 49 c 1
 292 91 237 167 237 246 c 0
 237 326 298 369 358 364 c 0
 412 359 443 319 443 261 c 0
 443 197 380 154 328 174 c 1
 355 129 446 58 533 66 c 0
 539 66 557 69 563 69 c 0
 599 69 579 32 579 32 c 1
 560 -2 l 1
 560 -2 470 0 385 3 c 0
 345 5 315 0 276 -3 c 0
 161 -9 44 81 44 253 c 0
 44 407 144 476 238 488 c 1
 236 498 236 505 236 511 c 0
 236 570 276 608 330 608 c 0
 385 608 422 568 422 511 c 0
 422 507 l 1
 459 530 501 590 497 714 c 1
 574 690 l 2
 586 687 596 680 593 660 c 0x90
328 470 m 0x70
 328 470 l 0
 387 470 387 562 328 562 c 0
 271 562 271 470 328 470 c 0x70
350 221 m 0
 409 221 409 313 350 313 c 0
 292 313 292 221 350 221 c 0
EndSplineSet
EndChar
StartChar: uni0E56
Encoding: 246 3670 212
Width: 615
Flags: HW
HStem: -9 54<296 314> 103 51<175 192> 246 52<183 192> 429 64<292 298>
VStem: 470 95<238 248>
Fore
566 238 m 0
 566 238 l 0
 566 97 476 -9 296 -9 c 0
 5 -9 17 298 183 298 c 0
 238 298 276 253 276 198 c 0
 276 149 243 103 185 103 c 0
 178 103 173 104 169 104 c 1
 192 75 229 45 296 45 c 0
 397 45 470 132 470 238 c 0
 470 352 388 429 292 429 c 0
 252 429 204 424 164 399 c 0
 150 390 104 396 109 449 c 1
 109 556 82 614 44 677 c 0
 36 688 35 710 58 710 c 2
 137 710 l 1
 155 679 188 584 185 478 c 1
 214 488 257 493 292 493 c 0
 446 493 566 396 566 238 c 0
183 154 m 0
 241 154 241 246 183 246 c 0
 125 246 125 154 183 154 c 0
EndSplineSet
EndChar
StartChar: uni0E57
Encoding: 247 3671 213
Width: 615
Flags: HW
HStem: -6 47<159 176> 134 50<159 176>
Fore
570 682 m 0
 570 682 l 0
 650 436 595 41 441 -5 c 1
 441 -5 364 -18 375 31 c 1
 375 31 391 106 399 154 c 0
 432 353 393 424 358 424 c 0
 320 424 296 367 292 332 c 0
 289 316 287 296 286 273 c 0
 282 238 236 237 232 273 c 1
 232 296 229 318 227 333 c 0
 221 372 195 424 164 424 c 0
 134 424 80 372 115 164 c 1
 128 180 145 184 167 184 c 0
 219 184 257 141 257 91 c 0
 257 38 221 -6 167 -6 c 0
 98 -6 63 45 47 103 c 0
 -6 296 27 482 166 488 c 0
 202 490 243 455 259 406 c 1
 277 455 320 490 358 488 c 0
 486 482 523 275 443 58 c 1
 456 61 469 84 475 97 c 0
 544 240 557 464 481 648 c 1
 519 700 l 2
 535 722 552 737 570 682 c 0
166 41 m 0
 224 41 224 134 166 134 c 0
 107 134 107 41 166 41 c 0
EndSplineSet
EndChar
StartChar: uni0E58
Encoding: 248 3672 214
Width: 615
Flags: HW
HStem: -9 21G<408 471> 298 52<476 485> 416 66<347 363>
VStem: 30 96<225 262>
Fore
582 651 m 0
 582 651 l 0
 573 518 481 416 363 416 c 0
 336 416 312 418 289 418 c 0
 175 418 126 336 126 246 c 0
 126 175 142 117 181 83 c 1
 189 120 214 210 271 235 c 1
 322 227 l 1
 322 31 481 20 492 157 c 1
 419 143 380 201 380 250 c 0
 380 313 422 350 476 350 c 0
 552 350 576 296 579 246 c 0
 592 66 508 -9 434 -9 c 0
 382 -9 290 -2 265 132 c 1
 249 101 238 35 235 -11 c 1
 159 -12 30 66 30 247 c 0
 31 409 142 487 262 487 c 0
 290 487 325 482 347 482 c 0
 424 482 487 554 484 708 c 1
 563 684 l 2
 574 680 585 671 582 651 c 0
476 206 m 0
 535 206 535 298 476 298 c 0
 418 298 418 206 476 206 c 0
EndSplineSet
EndChar
StartChar: uni0E59
Encoding: 249 3673 215
Width: 615
Flags: HW
HStem: -6 46<219 232> 132 49<219 232> 341 80<473 488>
Fore
617 656 m 0
 617 656 l 0
 628 447 577 341 486 341 c 0
 421 341 409 416 372 418 c 0
 355 419 353 390 356 373 c 1
 360 362 377 338 381 330 c 0
 456 200 546 0 546 0 c 1
 473 0 l 2
 450 0 440 14 432 29 c 2
 432 29 360 180 308 275 c 0
 248 384 196 444 144 407 c 0
 93 373 114 230 169 154 c 1
 178 164 197 181 230 181 c 0
 282 181 319 140 319 86 c 0
 319 35 279 -6 229 -6 c 0
 188 -6 148 12 114 57 c 0
 19 177 -6 379 99 458 c 0
 126 476 213 510 298 433 c 1
 306 461 337 482 368 482 c 0
 440 484 440 421 482 421 c 0
 525 421 539 515 511 708 c 1
 601 680 l 2
 612 677 617 671 617 656 c 0
229 40 m 0
 287 40 287 132 229 132 c 0
 170 132 170 40 229 40 c 0
EndSplineSet
EndChar
StartChar: uni0E5A
Encoding: 250 3674 216
Width: 697
Flags: HW
HStem: 542 56<107 124>
VStem: 319 98<-18 594> 503 98<-18 594>
Fore
418 -18 m 1
 319 -18 l 1
 319 432 l 1
 230 369 98 390 60 418 c 0
 -21 478 19 598 112 598 c 0
 188 598 230 530 200 465 c 1
 309 467 334 565 334 594 c 1
 418 594 l 1
 418 -18 l 1
601 -18 m 1
 503 -18 l 1
 503 594 l 1
 601 594 l 1
 601 -18 l 1
114 459 m 0
 166 459 166 542 114 542 c 0
 62 542 62 459 114 459 c 0
EndSplineSet
EndChar
StartChar: uni0E5B
Encoding: 251 3675 217
Width: 1233
Flags: HW
HStem: 37 67<278 297> 389 40<227 243> 562 68<234 251>
VStem: 6 68<315 358> 150 45<324 342> 277 43<324 342>
DStem: 613 441 633 611 694 69 705 270 757 554 780 372 705 270 727 69 780 372 790 554 852 63 854 273 926 548 928 367 854 273 852 63 928 367 926 548 1000 112 997 295 1048 492 1057 350 997 295 1000 112
Fore
1246 247 m 1
 1246 247 l 1
 1246 247 1205 281 1178 246 c 0
 1144 201 1099 181 1063 243 c 0
 1061 247 1020 329 1008 350 c 1
 954 112 l 1
 885 367 l 1
 813 63 l 1
 744 372 l 1
 693 69 l 1
 662 69 l 1
 585 441 l 1
 574 402 558 309 551 283 c 0
 494 86 385 37 277 37 c 0
 134 37 6 160 6 338 c 0
 6 527 113 630 245 630 c 0
 547 630 505 198 287 198 c 0
 207 198 150 253 150 338 c 0
 150 387 185 429 236 429 c 0
 286 429 319 390 319 338 c 0
 319 283 286 258 279 260 c 1
 279 257 l 1
 418 253 464 562 243 562 c 0
 153 562 73 478 73 336 c 0
 73 200 169 108 278 104 c 0
 350 104 443 149 486 303 c 0
 504 364 519 404 573 611 c 1
 604 611 l 1
 672 270 l 1
 722 554 l 1
 753 554 l 1
 814 273 l 1
 883 548 l 1
 951 295 l 1
 999 492 l 1
 1063 347 1091 295 1091 295 c 2
 1106 264 1125 249 1151 289 c 0
 1185 339 1246 306 1246 306 c 1
 1246 247 l 1
277 336 m 0
 277 361 260 389 236 389 c 0
 208 389 195 361 195 336 c 0
 195 306 213 283 236 283 c 0
 260 283 277 306 277 336 c 0
EndSplineSet
EndChar
StartChar: uni0E38.low
Encoding: 252 63256 218
Width: 0
Flags: HW
HStem: -392 40<-180 -174>
VStem: -140 69<-323 -313>
Fore
-72 -458 m 1
 -155 -458 l 1
 -155 -392 l 1
 -161 -392 -169 -392 -177 -392 c 0
 -277 -392 -277 -243 -178 -233 c 5
 -117 -230 -76 -261 -72 -321 c 1
 -72 -458 l 1
-140 -313 m 0
 -140 -293 -159 -275 -175 -275 c 0
 -199 -275 -214 -290 -214 -313 c 0
 -214 -336 -197 -352 -175 -352 c 0
 -154 -352 -140 -336 -140 -313 c 0
EndSplineSet
EndChar
StartChar: uni0E39.low
Encoding: 253 63257 219
Width: 0
Flags: HW
HStem: -476 54<-176 -161> -387 35<-278 -274> -275 35<-287 -274>
VStem: -257 63<-404 -384> -240 46<-330 -311> -155 85<-402 -240>
Fore
-71 -379 m 1xf4
 -71 -379 l 0
 -71 -432 -101 -476 -161 -476 c 0
 -221 -476 -257 -442 -257 -390 c 2
 -257 -384 l 1xf4
 -262 -386 -268 -387 -276 -387 c 0
 -374 -386 -374 -240 -276 -240 c 4
 -216 -240 -194 -276 -195 -330 c 1xec
 -195 -402 l 2
 -195 -415 -186 -422 -175 -422 c 0
 -164 -422 -155 -416 -155 -402 c 2
 -155 -240 l 1
 -71 -240 l 1
 -71 -379 l 1xf4
-240 -313 m 0xec
 -240 -293 -257 -275 -277 -275 c 0
 -301 -275 -314 -290 -314 -313 c 0
 -314 -336 -300 -352 -277 -352 c 0
 -254 -352 -240 -336 -240 -313 c 0xec
EndSplineSet
EndChar
StartChar: uni0E3A.low
Encoding: 254 63258 220
Width: 0
Flags: HW
Fore
-117 -335 m 0
 -196 -335 -196 -217 -117 -217 c 0
 -44 -217 -46 -335 -117 -335 c 0
EndSplineSet
EndChar
StartChar: multiply
Encoding: 256 215 222
Width: 590
Flags: HW
DStem: 75 458 138 521 243 286 309 352 243 286 309 220 72 118 138 51 309 220 375 286 481 49 544 117 478 521 542 458 309 352 375 286
Fore
519 117 m 1
 459 49 l 1
 295 220 l 1
 132 51 l 1
 69 118 l 1
 232 286 l 1
 72 458 l 1
 132 521 l 1
 295 352 l 1
 456 521 l 1
 517 458 l 1
 358 286 l 1
 519 117 l 1
EndSplineSet
EndChar
StartChar: divide
Encoding: 257 247 223
Width: 520
Flags: HW
HStem: 2 129<250 263> 212 81<19 503> 375 130<250 263>
VStem: 199 123<55 69 439 451>
Fore
322 439 m 0
 322 439 l 0
 322 401 295 375 260 375 c 0
 227 375 199 407 199 439 c 0
 199 475 224 505 260 505 c 0
 295 505 322 479 322 439 c 0
503 212 m 1
 19 212 l 1
 19 293 l 1
 503 293 l 1
 503 212 l 1
322 66 m 0
 322 26 295 2 260 2 c 0
 227 2 199 31 199 66 c 0
 199 98 224 131 260 131 c 0
 295 131 322 101 322 66 c 0
EndSplineSet
EndChar
StartChar: registered
Encoding: 258 174 224
Width: 738
Flags: HW
HStem: -25 70<347 384> 147 37<364 372> 309 41<334 349> 485 39<216 247 216 341> 613 69<348 384>
VStem: 32 67<329 352> 254 80<204 309 204 472> 422 81<419 431> 642 64<329 352>
Fore
542 147 m 1
 472 147 l 0
 443 147 423 190 405 232 c 0
 375 296 383 309 334 309 c 1
 334 204 l 2
 334 192 339 189 347 187 c 2
 372 184 l 1
 372 147 l 1
 214 147 l 1
 214 186 l 1
 235 187 l 2
 248 189 254 194 254 204 c 2
 254 468 l 2
 254 484 252 485 236 485 c 2
 216 485 l 1
 216 524 l 1
 378 524 l 2
 462 524 503 495 503 429 c 0
 503 378 470 330 429 326 c 1
 460 318 470 283 484 253 c 0
 500 221 503 187 542 186 c 1
 542 147 l 1
422 421 m 0
 422 421 l 0
 422 465 399 488 359 485 c 2
 341 484 l 2
 334 484 334 467 334 458 c 2
 334 352 l 1
 342 350 l 2
 387 350 422 364 422 421 c 0
99 329 m 0
 99 172 221 45 371 45 c 0
 520 45 642 172 642 329 c 0
 642 485 520 613 371 613 c 0
 221 613 99 485 99 329 c 0
 99 329 l 0
32 329 m 0
 32 524 183 682 369 682 c 0
 555 682 706 524 706 329 c 0
 706 134 555 -25 369 -25 c 0
 183 -25 32 134 32 329 c 0
EndSplineSet
EndChar
